{
.appVersion = 944;
classes = (
{
code = "uni1780 uni1781 uni1782 uni1783 uni1784 uni1785 uni1786 uni1787 uni1788 uni1789 uni178A uni178B uni178C uni178D uni178E uni178F uni1790 uni1791 uni1792 uni1793 uni1794 uni1795 uni1796 uni1797 uni1798 uni1799 uni179A uni179B uni179C uni179D uni179E uni179F uni17A0 uni17A1 uni17A2 uni17A3 uni17A4 ";
name = khmbase01;
},
{
code = "uni17D21780 uni17D21781 uni17D21782 uni17D21783 uni17D21783.low uni17D21784 uni17D21785 uni17D21786 uni17D21787 uni17D21788 uni17D21788.low uni17D21789 uni17D21789.a uni17D2178A uni17D2178A.r uni17D2178B uni17D2178C uni17D2178D uni17D2178D.low uni17D2178E uni17D2178E.alt uni17D2178F uni17D2178F.r uni17D21790 uni17D21791 uni17D21792 uni17D21793 uni17D21794 uni17D21794.low uni17D21795 uni17D21796 uni17D21797 uni17D21797.r uni17D21798 uni17D21798.r uni17D21799 uni17D21799.low uni17D2179A uni17D2179A.low uni17D2179B uni17D2179C uni17D2179D uni17D2179E uni17D2179E.low uni17D2179F uni17D2179F.low uni17D217A0 uni17D217A1 uni17D217A2 uni17D217A7 uni17D217AB uni17D217AC uni17D217AF";
name = khm_all_subs;
},
{
code = "uni17D21780 uni17D21781 uni17D21782 uni17D21784 uni17D21785 uni17D21786 uni17D21787 uni17D21789 uni17D21789.a uni17D2178A uni17D2178B uni17D2178C uni17D2178E uni17D2178F uni17D21790 uni17D21791 uni17D21792 uni17D21793 uni17D21795 uni17D21796 uni17D21797 uni17D21798 uni17D2179B uni17D2179C uni17D217A0 uni17D217A2";
name = khmsubs01;
},
{

glyphs = (
{
glyphname = .notdef;
lastChange = "2016-12-05 19:32:48 +0000";
layers = (
{
guideLines = (
{
position = "{-120, 661}";
showMeasurement = 1;
},
{
angle = 90;
position = "{215, 1029}";
showMeasurement = 1;
}
);
layerId = "46DC2CF2-3687-4CD7-A306-8CA7072459C9";
paths = (
{
closed = 1;
nodes = (
"538 244 LINE",
"538 958 LINE",
"96 958 LINE",
"96 244 LINE"
);
},
{
closed = 1;
nodes = (
"188 891 LINE",
"446 891 LINE",
"446 311 LINE",
"188 311 LINE"
);
}
);
width = 634;
},
{
guideLines = (
{
position = "{-133, 661}";
showMeasurement = 1;
},
{
angle = 90;
position = "{295, 1020}";
showMeasurement = 1;
}
);
layerId = "51E32C1F-DEF7-419B-8D63-3B39AA64BD60";
paths = (
{
closed = 1;
nodes = (
"609 244 LINE",
"609 958 LINE",
"80 958 LINE",
"80 244 LINE"
);
},
{
closed = 1;
nodes = (
"261 846 LINE",
"428 846 LINE",
"428 356 LINE",
"261 356 LINE"
);
}
);
width = 689;
},
{
guideLines = (
{
position = "{-118, 661}";
showMeasurement = 1;
},
{
angle = 90;
position = "{217, 1029}";
showMeasurement = 1;
},
{
position = "{264, 1101}";
}
);
layerId = "6517A2BC-7974-4B53-8E65-A6A29EB8D1E7";
paths = (
{
closed = 1;
nodes = (
"492 244 LINE",
"492 958 LINE",
"120 958 LINE",
"120 244 LINE"
);
},
{
closed = 1;
nodes = (
"146 932 LINE",
"466 932 LINE",
"466 270 LINE",
"146 270 LINE"
);
}
);
width = 612;
},
{
guideLines = (
{
position = "{-130, 661}";
showMeasurement = 1;
},
{
angle = 90;
position = "{205, 1029}";
showMeasurement = 1;
}
);
layerId = "0F8E8D95-EFB6-4635-B30D-2DA8DDB35575";
paths = (
{
closed = 1;
nodes = (
"521 244 LINE",
"521 958 LINE",
"80 958 LINE",
"80 244 LINE"
);
},
{
closed = 1;
nodes = (
"231 846 LINE",
"370 846 LINE",
"370 356 LINE",
"231 356 LINE"
);
}
);
width = 601;
},
{
guideLines = (
{
position = "{-130, 661}";
showMeasurement = 1;
},
{
angle = 90;
position = "{205, 1029}";
showMeasurement = 1;
}
);
layerId = "9C354F0E-63BE-4945-A1C1-0B7B127DD18D";
paths = (
{
closed = 1;
nodes = (
"446 244 LINE",
"446 958 LINE",
"78 958 LINE",
"78 244 LINE"
);
},
{
closed = 1;
nodes = (
"155 891 LINE",
"370 891 LINE",
"370 311 LINE",
"155 311 LINE"
);
}
);
width = 600;
},
{
guideLines = (
{
position = "{-130, 661}";
showMeasurement = 1;
},
{
angle = 90;
position = "{205, 1029}";
showMeasurement = 1;
}
);
layerId = "DE962D09-1426-4D02-9608-9FE5B080C42D";
paths = (
{
closed = 1;
nodes = (
"400 244 LINE",
"400 958 LINE",
"88 958 LINE",
"88 244 LINE"
);
},
{
closed = 1;
nodes = (
"114 932 LINE",
"374 932 LINE",
"374 270 LINE",
"114 270 LINE"
);
}
);
width = 488;
}
);
note = .notdef;
},
{
glyphname = exclam;
lastChange = "2016-12-05 19:32:48 +0000";
layers = (
{
layerId = "46DC2CF2-3687-4CD7-A306-8CA7072459C9";
paths = (
{
closed = 1;
nodes = (
"188 958 LINE",
"81 958 LINE",
"106 445 LINE",
"163 445 LINE"
);
},
{
closed = 1;
nodes = (
"72 250 OFFCURVE",
"99 230 OFFCURVE",
"134 230 CURVE SMOOTH",
"167 230 OFFCURVE",
"196 250 OFFCURVE",
"196 298 CURVE SMOOTH",
"196 347 OFFCURVE",
"167 365 OFFCURVE",
"134 365 CURVE SMOOTH",
"99 365 OFFCURVE",
"72 347 OFFCURVE",
"72 298 CURVE SMOOTH"
);
}
);
width = 269;
},
{
layerId = "51E32C1F-DEF7-419B-8D63-3B39AA64BD60";
paths = (
{
closed = 1;
nodes = (
"260 958 LINE",
"41 958 LINE",
"66 510 LINE",
"235 510 LINE"
);
},
{
closed = 1;
nodes = (
"45 263 OFFCURVE",
"87 232 OFFCURVE",
"150 232 CURVE SMOOTH",
"211 232 OFFCURVE",
"254 263 OFFCURVE",
"254 327 CURVE SMOOTH",
"254 394 OFFCURVE",
"211 423 OFFCURVE",
"150 423 CURVE SMOOTH",
"87 423 OFFCURVE",
"45 394 OFFCURVE",
"45 327 CURVE SMOOTH"
);
}
);
width = 300;
},
{
layerId = "6517A2BC-7974-4B53-8E65-A6A29EB8D1E7";
paths = (
{
closed = 1;
nodes = (
"126 958 LINE",
"98 958 LINE",
"100 418 LINE",
"124 418 LINE"
);
},
{
closed = 1;
nodes = (
"85 250 OFFCURVE",
"90 236 OFFCURVE",
"110 236 CURVE SMOOTH",
"134 236 OFFCURVE",
"137 250 OFFCURVE",
"137 267 CURVE SMOOTH",
"137 283 OFFCURVE",
"134 298 OFFCURVE",
"110 298 CURVE SMOOTH",
"90 298 OFFCURVE",
"85 283 OFFCURVE",
"85 267 CURVE SMOOTH"
);
}
);
width = 223;
},
{
layerId = "0F8E8D95-EFB6-4635-B30D-2DA8DDB35575";
paths = (
{
closed = 1;
nodes = (
"260 958 LINE",
"41 958 LINE",
"66 510 LINE",
"235 510 LINE"
);
},
{
closed = 1;
nodes = (
"45 263 OFFCURVE",
"87 232 OFFCURVE",
"150 232 CURVE SMOOTH",
"211 232 OFFCURVE",
"254 263 OFFCURVE",
"254 327 CURVE SMOOTH",
"254 394 OFFCURVE",
"211 423 OFFCURVE",
"150 423 CURVE SMOOTH",
"87 423 OFFCURVE",
"45 394 OFFCURVE",
"45 327 CURVE SMOOTH"
);
}
);
width = 300;
},
{
layerId = "9C354F0E-63BE-4945-A1C1-0B7B127DD18D";
paths = (
{
closed = 1;
nodes = (
"188 958 LINE",
"81 958 LINE",
"106 445 LINE",
"163 445 LINE"
);
},
{
closed = 1;
nodes = (
"72 250 OFFCURVE",
"99 230 OFFCURVE",
"134 230 CURVE SMOOTH",
"167 230 OFFCURVE",
"196 250 OFFCURVE",
"196 298 CURVE SMOOTH",
"196 347 OFFCURVE",
"167 365 OFFCURVE",
"134 365 CURVE SMOOTH",
"99 365 OFFCURVE",
"72 347 OFFCURVE",
"72 298 CURVE SMOOTH"
);
}
);
width = 269;
},
{
layerId = "DE962D09-1426-4D02-9608-9FE5B080C42D";
paths = (
{
closed = 1;
nodes = (
"114 958 LINE",
"83 958 LINE",
"86 414 LINE",
"109 414 LINE"
);
},
{
closed = 1;
nodes = (
"72 253 OFFCURVE",
"77 238 OFFCURVE",
"97 238 CURVE SMOOTH",
"115 238 OFFCURVE",
"123 251 OFFCURVE",
"123 274 CURVE SMOOTH",
"123 297 OFFCURVE",
"116 309 OFFCURVE",
"97 309 CURVE SMOOTH",
"77 309 OFFCURVE",
"72 293 OFFCURVE",
"72 274 CURVE SMOOTH"
);
}
);
width = 194;
}
);
note = exclam;
unicode = 0021;
},
{
glyphname = quotedbl;
lastChange = "2016-12-05 19:32:48 +0000";
layers = (
{
layerId = "46DC2CF2-3687-4CD7-A306-8CA7072459C9";
paths = (
{
closed = 1;
nodes = (
"141 700 LINE",
"161 958 LINE",
"65 958 LINE",
"85 700 LINE"
);
},
{
closed = 1;
nodes = (
"317 700 LINE",
"337 958 LINE",
"241 958 LINE",
"261 700 LINE"
);
}
);
width = 402;
},
{
layerId = "51E32C1F-DEF7-419B-8D63-3B39AA64BD60";
paths = (
{
closed = 1;
nodes = (
"213 700 LINE",
"233 958 LINE",
"65 958 LINE",
"85 700 LINE"
);
},
{
closed = 1;
nodes = (
"443 700 LINE",
"463 958 LINE",
"295 958 LINE",
"315 700 LINE"
);
}
);
width = 528;
},
{
layerId = "6517A2BC-7974-4B53-8E65-A6A29EB8D1E7";
paths = (
{
closed = 1;
nodes = (
"97 700 LINE",
"101 958 LINE",
"73 958 LINE",
"77 700 LINE"
);
},
{
closed = 1;
nodes = (
"243 700 LINE",
"247 958 LINE",
"219 958 LINE",
"223 700 LINE"
);
}
);
width = 320;
},
{
layerId = "0F8E8D95-EFB6-4635-B30D-2DA8DDB35575";
paths = (
{
closed = 1;
nodes = (
"213 700 LINE",
"233 958 LINE",
"65 958 LINE",
"85 700 LINE"
);
},
{
closed = 1;
nodes = (
"443 700 LINE",
"463 958 LINE",
"295 958 LINE",
"315 700 LINE"
);
}
);
width = 528;
},
{
layerId = "9C354F0E-63BE-4945-A1C1-0B7B127DD18D";
paths = (
{
closed = 1;
nodes = (
"141 700 LINE",
"161 958 LINE",
"65 958 LINE",
"85 700 LINE"
);
},
{
closed = 1;
nodes = (
"317 700 LINE",
"337 958 LINE",
"241 958 LINE",
"261 700 LINE"
);
}
);
width = 402;
},
{
layerId = "DE962D09-1426-4D02-9608-9FE5B080C42D";
paths = (
{
closed = 1;
nodes = (
"97 700 LINE",
"101 958 LINE",
"73 958 LINE",
"77 700 LINE"
);
},
{
closed = 1;
nodes = (
"243 700 LINE",
"247 958 LINE",
"219 958 LINE",
"223 700 LINE"
);
}
);
width = 320;
}
);
note = quotedbl;
unicode = 0022;
},
{
glyphname = quotesingle;
lastChange = "2016-12-05 19:32:48 +0000";
layers = (
{
layerId = "46DC2CF2-3687-4CD7-A306-8CA7072459C9";
paths = (
{
closed = 1;
nodes = (
"141 700 LINE",
"161 958 LINE",
"65 958 LINE",
"85 700 LINE"
);
}
);
width = 226;
},
{
layerId = "51E32C1F-DEF7-419B-8D63-3B39AA64BD60";
paths = (
{
closed = 1;
nodes = (
"213 700 LINE",
"233 958 LINE",
"65 958 LINE",
"85 700 LINE"
);
}
);
width = 298;
},
{
layerId = "6517A2BC-7974-4B53-8E65-A6A29EB8D1E7";
paths = (
{
closed = 1;
nodes = (
"97 700 LINE",
"101 958 LINE",
"73 958 LINE",
"77 700 LINE"
);
}
);
width = 172;
},
{
layerId = "0F8E8D95-EFB6-4635-B30D-2DA8DDB35575";
paths = (
{
closed = 1;
nodes = (
"193 700 LINE",
"213 958 LINE",
"39 958 LINE",
"59 700 LINE"
);
}
);
width = 252;
},
{
layerId = "9C354F0E-63BE-4945-A1C1-0B7B127DD18D";
paths = (
{
closed = 1;
nodes = (
"136 700 LINE",
"152 958 LINE",
"58 958 LINE",
"75 700 LINE"
);
}
);
width = 208;
},
{
layerId = "DE962D09-1426-4D02-9608-9FE5B080C42D";
paths = (
{
closed = 1;
nodes = (
"93 700 LINE",
"97 958 LINE",
"65 958 LINE",
"71 700 LINE"
);
}
);
width = 161;
}
);
note = quotesingle;
unicode = 0027;
},
{
glyphname = parenleft;
lastChange = "2016-12-05 19:32:48 +0000";
layers = (
{
layerId = "46DC2CF2-3687-4CD7-A306-8CA7072459C9";
paths = (
{
closed = 1;
nodes = (
"40 357 OFFCURVE",
"86 203 OFFCURVE",
"187 86 CURVE",
"269 86 LINE",
"177 211 OFFCURVE",
"129 364 OFFCURVE",
"129 519 CURVE SMOOTH",
"129 677 OFFCURVE",
"177 833 OFFCURVE",
"270 958 CURVE",
"187 958 LINE",
"86 837 OFFCURVE",
"40 681 OFFCURVE",
"40 518 CURVE SMOOTH"
);
}
);
width = 300;
},
{
layerId = "51E32C1F-DEF7-419B-8D63-3B39AA64BD60";
paths = (
{
closed = 1;
nodes = (
"40 353 OFFCURVE",
"88 201 OFFCURVE",
"187 86 CURVE",
"339 86 LINE",
"251 206 OFFCURVE",
"203 363 OFFCURVE",
"203 519 CURVE SMOOTH",
"203 678 OFFCURVE",
"251 834 OFFCURVE",
"340 958 CURVE",
"187 958 LINE",
"88 839 OFFCURVE",
"40 686 OFFCURVE",
"40 518 CURVE SMOOTH"
);
}
);
width = 370;
},
{
layerId = "6517A2BC-7974-4B53-8E65-A6A29EB8D1E7";
paths = (
{
closed = 1;
nodes = (
"42 343 OFFCURVE",
"96 198 OFFCURVE",
"187 86 CURVE",
"220 86 LINE",
"119 205 OFFCURVE",
"69 353 OFFCURVE",
"69 519 CURVE SMOOTH",
"69 687 OFFCURVE",
"117 840 OFFCURVE",
"220 958 CURVE",
"187 958 LINE",
"96 850 OFFCURVE",
"42 695 OFFCURVE",
"42 518 CURVE SMOOTH"
);
}
);
width = 255;
},
{
layerId = "0F8E8D95-EFB6-4635-B30D-2DA8DDB35575";
paths = (
{
closed = 1;
nodes = (
"40 353 OFFCURVE",
"88 201 OFFCURVE",
"187 86 CURVE",
"339 86 LINE",
"251 206 OFFCURVE",
"203 363 OFFCURVE",
"203 519 CURVE SMOOTH",
"203 678 OFFCURVE",
"251 834 OFFCURVE",
"340 958 CURVE",
"187 958 LINE",
"88 839 OFFCURVE",
"40 686 OFFCURVE",
"40 518 CURVE SMOOTH"
);
}
);
width = 370;
},
{
layerId = "9C354F0E-63BE-4945-A1C1-0B7B127DD18D";
paths = (
{
closed = 1;
nodes = (
"40 357 OFFCURVE",
"86 203 OFFCURVE",
"187 86 CURVE",
"269 86 LINE",
"177 211 OFFCURVE",
"129 364 OFFCURVE",
"129 519 CURVE SMOOTH",
"129 677 OFFCURVE",
"177 833 OFFCURVE",
"270 958 CURVE",
"187 958 LINE",
"86 837 OFFCURVE",
"40 681 OFFCURVE",
"40 518 CURVE SMOOTH"
);
}
);
width = 300;
},
{
layerId = "DE962D09-1426-4D02-9608-9FE5B080C42D";
paths = (
{
closed = 1;
nodes = (
"42 343 OFFCURVE",
"96 198 OFFCURVE",
"187 86 CURVE",
"220 86 LINE",
"119 205 OFFCURVE",
"69 353 OFFCURVE",
"69 519 CURVE SMOOTH",
"69 687 OFFCURVE",
"117 840 OFFCURVE",
"220 958 CURVE",
"187 958 LINE",
"96 850 OFFCURVE",
"42 695 OFFCURVE",
"42 518 CURVE SMOOTH"
);
}
);
width = 255;
}
);
note = parenleft;
unicode = 0028;
},
{
glyphname = parenright;
lastChange = "2016-12-05 19:32:48 +0000";
layers = (
{
layerId = "46DC2CF2-3687-4CD7-A306-8CA7072459C9";
paths = (
{
closed = 1;
nodes = (
"260 681 OFFCURVE",
"214 837 OFFCURVE",
"113 958 CURVE",
"30 958 LINE",
"123 833 OFFCURVE",
"171 677 OFFCURVE",
"171 519 CURVE SMOOTH",
"171 364 OFFCURVE",
"123 211 OFFCURVE",
"31 86 CURVE",
"113 86 LINE",
"214 203 OFFCURVE",
"260 357 OFFCURVE",
"260 518 CURVE SMOOTH"
);
}
);
width = 300;
},
{
layerId = "51E32C1F-DEF7-419B-8D63-3B39AA64BD60";
paths = (
{
closed = 1;
nodes = (
"330 686 OFFCURVE",
"282 839 OFFCURVE",
"183 958 CURVE",
"30 958 LINE",
"119 834 OFFCURVE",
"167 678 OFFCURVE",
"167 519 CURVE SMOOTH",
"167 363 OFFCURVE",
"119 206 OFFCURVE",
"31 86 CURVE",
"183 86 LINE",
"282 201 OFFCURVE",
"330 353 OFFCURVE",
"330 518 CURVE SMOOTH"
);
}
);
width = 370;
},
{
layerId = "6517A2BC-7974-4B53-8E65-A6A29EB8D1E7";
paths = (
{
closed = 1;
nodes = (
"214 701 OFFCURVE",
"160 846 OFFCURVE",
"69 958 CURVE",
"36 958 LINE",
"137 839 OFFCURVE",
"187 691 OFFCURVE",
"187 525 CURVE SMOOTH",
"187 357 OFFCURVE",
"139 204 OFFCURVE",
"36 86 CURVE",
"69 86 LINE",
"160 194 OFFCURVE",
"214 349 OFFCURVE",
"214 526 CURVE SMOOTH"
);
}
);
width = 255;
},
{
layerId = "0F8E8D95-EFB6-4635-B30D-2DA8DDB35575";
paths = (
{
closed = 1;
nodes = (
"330 686 OFFCURVE",
"282 839 OFFCURVE",
"183 958 CURVE",
"30 958 LINE",
"119 834 OFFCURVE",
"167 678 OFFCURVE",
"167 519 CURVE SMOOTH",
"167 363 OFFCURVE",
"119 206 OFFCURVE",
"31 86 CURVE",
"183 86 LINE",
"282 201 OFFCURVE",
"330 353 OFFCURVE",
"330 518 CURVE SMOOTH"
);
}
);
width = 370;
},
{
layerId = "9C354F0E-63BE-4945-A1C1-0B7B127DD18D";
paths = (
{
closed = 1;
nodes = (
"260 681 OFFCURVE",
"214 837 OFFCURVE",
"113 958 CURVE",
"30 958 LINE",
"123 833 OFFCURVE",
"171 677 OFFCURVE",
"171 519 CURVE SMOOTH",
"171 364 OFFCURVE",
"123 211 OFFCURVE",
"31 86 CURVE",
"113 86 LINE",
"214 203 OFFCURVE",
"260 357 OFFCURVE",
"260 518 CURVE SMOOTH"
);
}
);
width = 300;
},
{
layerId = "DE962D09-1426-4D02-9608-9FE5B080C42D";
paths = (
{
closed = 1;
nodes = (
"214 701 OFFCURVE",
"160 846 OFFCURVE",
"69 958 CURVE",
"36 958 LINE",
"137 839 OFFCURVE",
"187 691 OFFCURVE",
"187 525 CURVE SMOOTH",
"187 357 OFFCURVE",
"139 204 OFFCURVE",
"36 86 CURVE",
"69 86 LINE",
"160 194 OFFCURVE",
"214 349 OFFCURVE",
"214 526 CURVE SMOOTH"
);
}
);
width = 255;
}
);
note = parenright;
unicode = 0029;
},
{
glyphname = comma;
lastChange = "2016-12-05 19:32:48 +0000";
layers = (
{
layerId = "46DC2CF2-3687-4CD7-A306-8CA7072459C9";
paths = (
{
closed = 1;
nodes = (
"91 360 LINE",
"81 290 OFFCURVE",
"60 191 OFFCURVE",
"41 115 CURVE",
"106 115 LINE",
"138 187 OFFCURVE",
"174 278 OFFCURVE",
"192 349 CURVE",
"185 360 LINE"
);
}
);
width = 250;
},
{
layerId = "51E32C1F-DEF7-419B-8D63-3B39AA64BD60";
paths = (
{
closed = 1;
nodes = (
"71 360 LINE",
"60 288 OFFCURVE",
"44 206 OFFCURVE",
"23 115 CURVE",
"164 115 LINE",
"204 202 OFFCURVE",
"233 280 OFFCURVE",
"250 349 CURVE",
"243 360 LINE"
);
}
);
width = 322;
},
{
layerId = "6517A2BC-7974-4B53-8E65-A6A29EB8D1E7";
paths = (
{
closed = 1;
nodes = (
"94 360 LINE",
"83 284 OFFCURVE",
"67 212 OFFCURVE",
"38 115 CURVE",
"60 115 LINE",
"88 184 OFFCURVE",
"110 274 OFFCURVE",
"125 348 CURVE",
"122 360 LINE"
);
}
);
width = 183;
},
{
layerId = "0F8E8D95-EFB6-4635-B30D-2DA8DDB35575";
paths = (
{
closed = 1;
nodes = (
"71 360 LINE",
"60 288 OFFCURVE",
"44 206 OFFCURVE",
"23 115 CURVE",
"164 115 LINE",
"204 202 OFFCURVE",
"233 280 OFFCURVE",
"250 349 CURVE",
"243 360 LINE"
);
}
);
width = 322;
},
{
layerId = "9C354F0E-63BE-4945-A1C1-0B7B127DD18D";
paths = (
{
closed = 1;
nodes = (
"91 360 LINE",
"81 290 OFFCURVE",
"60 191 OFFCURVE",
"41 115 CURVE",
"106 115 LINE",
"138 187 OFFCURVE",
"174 278 OFFCURVE",
"192 349 CURVE",
"185 360 LINE"
);
}
);
width = 250;
},
{
layerId = "DE962D09-1426-4D02-9608-9FE5B080C42D";
paths = (
{
closed = 1;
nodes = (
"94 360 LINE",
"83 284 OFFCURVE",
"67 212 OFFCURVE",
"38 115 CURVE",
"60 115 LINE",
"88 184 OFFCURVE",
"110 274 OFFCURVE",
"125 348 CURVE",
"122 360 LINE"
);
}
);
width = 183;
}
);
note = comma;
unicode = 002C;
},
{
glyphname = hyphen;
lastChange = "2016-12-05 19:32:48 +0000";
layers = (
{
layerId = "46DC2CF2-3687-4CD7-A306-8CA7072459C9";
paths = (
{
closed = 1;
nodes = (
"282 471 LINE",
"282 553 LINE",
"40 553 LINE",
"40 471 LINE"
);
}
);
width = 322;
},
{
layerId = "51E32C1F-DEF7-419B-8D63-3B39AA64BD60";
paths = (
{
closed = 1;
nodes = (
"300 435 LINE",
"300 589 LINE",
"22 589 LINE",
"22 435 LINE"
);
}
);
width = 322;
},
{
layerId = "6517A2BC-7974-4B53-8E65-A6A29EB8D1E7";
paths = (
{
closed = 1;
nodes = (
"268 498 LINE",
"268 526 LINE",
"54 526 LINE",
"54 498 LINE"
);
}
);
width = 322;
},
{
layerId = "0F8E8D95-EFB6-4635-B30D-2DA8DDB35575";
paths = (
{
closed = 1;
nodes = (
"296 436 LINE",
"296 588 LINE",
"29 588 LINE",
"29 436 LINE"
);
}
);
width = 325;
},
{
layerId = "9C354F0E-63BE-4945-A1C1-0B7B127DD18D";
paths = (
{
closed = 1;
nodes = (
"247 473 LINE",
"247 554 LINE",
"27 554 LINE",
"27 473 LINE"
);
}
);
width = 274;
},
{
layerId = "DE962D09-1426-4D02-9608-9FE5B080C42D";
paths = (
{
closed = 1;
nodes = (
"237 503 LINE",
"237 530 LINE",
"26 530 LINE",
"26 503 LINE"
);
}
);
width = 263;
}
);
note = hyphen;
unicode = 002D;
},
{
glyphname = period;
lastChange = "2016-12-05 19:32:48 +0000";
layers = (
{
layerId = "46DC2CF2-3687-4CD7-A306-8CA7072459C9";
paths = (
{
closed = 1;
nodes = (
"72 250 OFFCURVE",
"99 230 OFFCURVE",
"133 230 CURVE SMOOTH",
"167 230 OFFCURVE",
"196 250 OFFCURVE",
"196 298 CURVE SMOOTH",
"196 347 OFFCURVE",
"167 365 OFFCURVE",
"133 365 CURVE SMOOTH",
"99 365 OFFCURVE",
"72 347 OFFCURVE",
"72 298 CURVE SMOOTH"
);
}
);
width = 268;
},
{
layerId = "51E32C1F-DEF7-419B-8D63-3B39AA64BD60";
paths = (
{
closed = 1;
nodes = (
"45 263 OFFCURVE",
"87 232 OFFCURVE",
"151 232 CURVE SMOOTH",
"211 232 OFFCURVE",
"254 263 OFFCURVE",
"254 327 CURVE SMOOTH",
"254 392 OFFCURVE",
"212 423 OFFCURVE",
"151 423 CURVE SMOOTH",
"87 423 OFFCURVE",
"45 394 OFFCURVE",
"45 327 CURVE SMOOTH"
);
}
);
width = 299;
},
{
layerId = "6517A2BC-7974-4B53-8E65-A6A29EB8D1E7";
paths = (
{
closed = 1;
nodes = (
"85 250 OFFCURVE",
"90 236 OFFCURVE",
"110 236 CURVE SMOOTH",
"134 236 OFFCURVE",
"137 250 OFFCURVE",
"137 267 CURVE SMOOTH",
"137 283 OFFCURVE",
"134 298 OFFCURVE",
"110 298 CURVE SMOOTH",
"90 298 OFFCURVE",
"85 283 OFFCURVE",
"85 267 CURVE SMOOTH"
);
}
);
width = 220;
},
{
layerId = "0F8E8D95-EFB6-4635-B30D-2DA8DDB35575";
paths = (
{
closed = 1;
nodes = (
"45 263 OFFCURVE",
"87 232 OFFCURVE",
"151 232 CURVE SMOOTH",
"211 232 OFFCURVE",
"254 263 OFFCURVE",
"254 327 CURVE SMOOTH",
"254 392 OFFCURVE",
"212 423 OFFCURVE",
"151 423 CURVE SMOOTH",
"87 423 OFFCURVE",
"45 394 OFFCURVE",
"45 327 CURVE SMOOTH"
);
}
);
width = 299;
},
{
layerId = "9C354F0E-63BE-4945-A1C1-0B7B127DD18D";
paths = (
{
closed = 1;
nodes = (
"72 250 OFFCURVE",
"99 230 OFFCURVE",
"133 230 CURVE SMOOTH",
"167 230 OFFCURVE",
"196 250 OFFCURVE",
"196 298 CURVE SMOOTH",
"196 347 OFFCURVE",
"167 365 OFFCURVE",
"133 365 CURVE SMOOTH",
"99 365 OFFCURVE",
"72 347 OFFCURVE",
"72 298 CURVE SMOOTH"
);
}
);
width = 268;
},
{
layerId = "DE962D09-1426-4D02-9608-9FE5B080C42D";
paths = (
{
closed = 1;
nodes = (
"85 250 OFFCURVE",
"90 236 OFFCURVE",
"110 236 CURVE SMOOTH",
"134 236 OFFCURVE",
"137 250 OFFCURVE",
"137 267 CURVE SMOOTH",
"137 283 OFFCURVE",
"134 298 OFFCURVE",
"110 298 CURVE SMOOTH",
"90 298 OFFCURVE",
"85 283 OFFCURVE",
"85 267 CURVE SMOOTH"
);
}
);
width = 220;
}
);
note = period;
unicode = 002E;
},
{
glyphname = slash;
lastChange = "2016-12-05 19:32:48 +0000";
layers = (
{
layerId = "46DC2CF2-3687-4CD7-A306-8CA7072459C9";
paths = (
{
closed = 1;
nodes = (
"97 244 LINE",
"363 958 LINE",
"276 958 LINE",
"10 244 LINE"
);
}
);
width = 373;
},
{
layerId = "51E32C1F-DEF7-419B-8D63-3B39AA64BD60";
paths = (
{
closed = 1;
nodes = (
"178 244 LINE",
"444 958 LINE",
"271 958 LINE",
"5 244 LINE"
);
}
);
width = 445;
},
{
layerId = "6517A2BC-7974-4B53-8E65-A6A29EB8D1E7";
paths = (
{
closed = 1;
nodes = (
"37 244 LINE",
"303 958 LINE",
"280 958 LINE",
"14 244 LINE"
);
}
);
width = 319;
},
{
layerId = "0F8E8D95-EFB6-4635-B30D-2DA8DDB35575";
paths = (
{
closed = 1;
nodes = (
"178 244 LINE",
"444 958 LINE",
"271 958 LINE",
"5 244 LINE"
);
}
);
width = 445;
},
{
layerId = "9C354F0E-63BE-4945-A1C1-0B7B127DD18D";
paths = (
{
closed = 1;
nodes = (
"97 244 LINE",
"363 958 LINE",
"276 958 LINE",
"10 244 LINE"
);
}
);
width = 373;
},
{
layerId = "DE962D09-1426-4D02-9608-9FE5B080C42D";
paths = (
{
closed = 1;
nodes = (
"37 244 LINE",
"303 958 LINE",
"280 958 LINE",
"14 244 LINE"
);
}
);
width = 319;
}
);
note = slash;
unicode = 002F;
},
{
glyphname = colon;
lastChange = "2016-12-05 19:32:48 +0000";
layers = (
{
layerId = "46DC2CF2-3687-4CD7-A306-8CA7072459C9";
paths = (
{
closed = 1;
nodes = (
"72 250 OFFCURVE",
"99 230 OFFCURVE",
"133 230 CURVE SMOOTH",
"167 230 OFFCURVE",
"196 250 OFFCURVE",
"196 298 CURVE SMOOTH",
"196 347 OFFCURVE",
"167 365 OFFCURVE",
"133 365 CURVE SMOOTH",
"99 365 OFFCURVE",
"72 347 OFFCURVE",
"72 298 CURVE SMOOTH"
);
},
{
closed = 1;
nodes = (
"72 678 OFFCURVE",
"99 658 OFFCURVE",
"133 658 CURVE SMOOTH",
"167 658 OFFCURVE",
"196 678 OFFCURVE",
"196 726 CURVE SMOOTH",
"196 776 OFFCURVE",
"167 794 OFFCURVE",
"133 794 CURVE SMOOTH",
"99 794 OFFCURVE",
"72 776 OFFCURVE",
"72 726 CURVE SMOOTH"
);
}
);
width = 268;
},
{
layerId = "51E32C1F-DEF7-419B-8D63-3B39AA64BD60";
paths = (
{
closed = 1;
nodes = (
"42 259 OFFCURVE",
"89 232 OFFCURVE",
"146 232 CURVE SMOOTH",
"200 232 OFFCURVE",
"246 259 OFFCURVE",
"246 325 CURVE SMOOTH",
"246 394 OFFCURVE",
"200 419 OFFCURVE",
"146 419 CURVE SMOOTH",
"89 419 OFFCURVE",
"42 394 OFFCURVE",
"42 325 CURVE"
);
},
{
closed = 1;
nodes = (
"42 644 OFFCURVE",
"89 617 OFFCURVE",
"146 617 CURVE SMOOTH",
"200 617 OFFCURVE",
"246 644 OFFCURVE",
"246 711 CURVE SMOOTH",
"246 779 OFFCURVE",
"200 804 OFFCURVE",
"146 804 CURVE SMOOTH",
"89 804 OFFCURVE",
"42 779 OFFCURVE",
"42 711 CURVE"
);
}
);
width = 289;
},
{
layerId = "6517A2BC-7974-4B53-8E65-A6A29EB8D1E7";
paths = (
{
closed = 1;
nodes = (
"85 250 OFFCURVE",
"90 236 OFFCURVE",
"110 236 CURVE SMOOTH",
"134 236 OFFCURVE",
"137 250 OFFCURVE",
"137 267 CURVE SMOOTH",
"137 283 OFFCURVE",
"134 298 OFFCURVE",
"110 298 CURVE SMOOTH",
"90 298 OFFCURVE",
"85 283 OFFCURVE",
"85 267 CURVE SMOOTH"
);
},
{
closed = 1;
nodes = (
"85 728 OFFCURVE",
"90 714 OFFCURVE",
"110 714 CURVE SMOOTH",
"134 714 OFFCURVE",
"137 728 OFFCURVE",
"137 745 CURVE SMOOTH",
"137 761 OFFCURVE",
"134 776 OFFCURVE",
"110 776 CURVE SMOOTH",
"90 776 OFFCURVE",
"85 761 OFFCURVE",
"85 745 CURVE SMOOTH"
);
}
);
width = 220;
},
{
layerId = "0F8E8D95-EFB6-4635-B30D-2DA8DDB35575";
paths = (
{
closed = 1;
nodes = (
"49 266 OFFCURVE",
"84 232 OFFCURVE",
"142 232 CURVE SMOOTH",
"198 232 OFFCURVE",
"231 266 OFFCURVE",
"231 325 CURVE SMOOTH",
"231 385 OFFCURVE",
"200 419 OFFCURVE",
"142 419 CURVE SMOOTH",
"81 419 OFFCURVE",
"49 385 OFFCURVE",
"49 325 CURVE SMOOTH"
);
},
{
closed = 1;
nodes = (
"49 652 OFFCURVE",
"84 618 OFFCURVE",
"142 618 CURVE SMOOTH",
"198 618 OFFCURVE",
"231 652 OFFCURVE",
"231 711 CURVE SMOOTH",
"231 771 OFFCURVE",
"200 805 OFFCURVE",
"142 805 CURVE SMOOTH",
"81 805 OFFCURVE",
"49 771 OFFCURVE",
"49 711 CURVE SMOOTH"
);
}
);
width = 280;
},
{
layerId = "9C354F0E-63BE-4945-A1C1-0B7B127DD18D";
paths = (
{
closed = 1;
nodes = (
"60 257 OFFCURVE",
"79 235 OFFCURVE",
"114 235 CURVE SMOOTH",
"145 235 OFFCURVE",
"168 255 OFFCURVE",
"168 299 CURVE SMOOTH",
"168 344 OFFCURVE",
"147 363 OFFCURVE",
"114 363 CURVE SMOOTH",
"78 363 OFFCURVE",
"60 341 OFFCURVE",
"60 299 CURVE SMOOTH"
);
},
{
closed = 1;
nodes = (
"60 677 OFFCURVE",
"79 655 OFFCURVE",
"114 655 CURVE SMOOTH",
"145 655 OFFCURVE",
"168 676 OFFCURVE",
"168 720 CURVE SMOOTH",
"168 762 OFFCURVE",
"149 784 OFFCURVE",
"114 784 CURVE SMOOTH",
"78 784 OFFCURVE",
"60 762 OFFCURVE",
"60 720 CURVE SMOOTH"
);
}
);
width = 228;
},
{
layerId = "DE962D09-1426-4D02-9608-9FE5B080C42D";
paths = (
{
closed = 1;
nodes = (
"65 256 OFFCURVE",
"67 239 OFFCURVE",
"90 239 CURVE SMOOTH",
"112 239 OFFCURVE",
"116 255 OFFCURVE",
"116 275 CURVE SMOOTH",
"116 294 OFFCURVE",
"112 310 OFFCURVE",
"90 310 CURVE SMOOTH",
"69 310 OFFCURVE",
"65 294 OFFCURVE",
"65 275 CURVE SMOOTH"
);
},
{
closed = 1;
nodes = (
"65 720 OFFCURVE",
"70 705 OFFCURVE",
"90 705 CURVE SMOOTH",
"108 705 OFFCURVE",
"116 718 OFFCURVE",
"116 741 CURVE SMOOTH",
"116 765 OFFCURVE",
"109 776 OFFCURVE",
"91 776 CURVE SMOOTH",
"70 776 OFFCURVE",
"65 760 OFFCURVE",
"65 740 CURVE SMOOTH"
);
}
);
width = 180;
}
);
note = colon;
unicode = 003A;
},
{
glyphname = semicolon;
lastChange = "2016-12-05 19:32:48 +0000";
layers = (
{
layerId = "46DC2CF2-3687-4CD7-A306-8CA7072459C9";
paths = (
{
closed = 1;
nodes = (
"82 360 LINE",
"72 290 OFFCURVE",
"50 190 OFFCURVE",
"31 115 CURVE",
"97 115 LINE",
"129 186 OFFCURVE",
"165 279 OFFCURVE",
"183 349 CURVE",
"176 360 LINE"
);
},
{
closed = 1;
nodes = (
"70 678 OFFCURVE",
"97 658 OFFCURVE",
"131 658 CURVE SMOOTH",
"166 658 OFFCURVE",
"194 678 OFFCURVE",
"194 726 CURVE SMOOTH",
"194 776 OFFCURVE",
"166 794 OFFCURVE",
"131 794 CURVE SMOOTH",
"97 794 OFFCURVE",
"70 776 OFFCURVE",
"70 726 CURVE SMOOTH"
);
}
);
width = 268;
},
{
layerId = "51E32C1F-DEF7-419B-8D63-3B39AA64BD60";
paths = (
{
closed = 1;
nodes = (
"76 390 LINE",
"67 310 OFFCURVE",
"47 196 OFFCURVE",
"28 105 CURVE",
"164 105 LINE",
"197 179 OFFCURVE",
"232 307 OFFCURVE",
"250 379 CURVE",
"243 390 LINE"
);
},
{
closed = 1;
nodes = (
"45 644 OFFCURVE",
"91 617 OFFCURVE",
"148 617 CURVE SMOOTH",
"202 617 OFFCURVE",
"249 644 OFFCURVE",
"249 711 CURVE SMOOTH",
"249 779 OFFCURVE",
"202 804 OFFCURVE",
"148 804 CURVE SMOOTH",
"91 804 OFFCURVE",
"45 779 OFFCURVE",
"45 711 CURVE"
);
}
);
width = 297;
},
{
layerId = "6517A2BC-7974-4B53-8E65-A6A29EB8D1E7";
paths = (
{
closed = 1;
nodes = (
"94 360 LINE",
"83 284 OFFCURVE",
"67 212 OFFCURVE",
"38 115 CURVE",
"60 115 LINE",
"88 184 OFFCURVE",
"110 274 OFFCURVE",
"125 348 CURVE",
"122 360 LINE"
);
},
{
closed = 1;
nodes = (
"85 728 OFFCURVE",
"90 714 OFFCURVE",
"110 714 CURVE SMOOTH",
"134 714 OFFCURVE",
"137 728 OFFCURVE",
"137 745 CURVE SMOOTH",
"137 761 OFFCURVE",
"134 776 OFFCURVE",
"110 776 CURVE SMOOTH",
"90 776 OFFCURVE",
"85 761 OFFCURVE",
"85 745 CURVE SMOOTH"
);
}
);
width = 220;
},
{
layerId = "0F8E8D95-EFB6-4635-B30D-2DA8DDB35575";
paths = (
{
closed = 1;
nodes = (
"67 390 LINE",
"61 313 OFFCURVE",
"46 184 OFFCURVE",
"30 105 CURVE",
"165 105 LINE",
"193 178 OFFCURVE",
"215 269 OFFCURVE",
"230 379 CURVE",
"225 390 LINE"
);
},
{
closed = 1;
nodes = (
"49 652 OFFCURVE",
"84 618 OFFCURVE",
"142 618 CURVE SMOOTH",
"198 618 OFFCURVE",
"231 652 OFFCURVE",
"231 711 CURVE SMOOTH",
"231 771 OFFCURVE",
"200 805 OFFCURVE",
"142 805 CURVE SMOOTH",
"81 805 OFFCURVE",
"49 771 OFFCURVE",
"49 711 CURVE SMOOTH"
);
}
);
width = 280;
},
{
layerId = "9C354F0E-63BE-4945-A1C1-0B7B127DD18D";
paths = (
{
closed = 1;
nodes = (
"82 358 LINE",
"74 286 OFFCURVE",
"58 194 OFFCURVE",
"36 112 CURVE",
"98 112 LINE",
"130 184 OFFCURVE",
"155 263 OFFCURVE",
"174 347 CURVE",
"167 358 LINE"
);
},
{
closed = 1;
nodes = (
"60 677 OFFCURVE",
"79 655 OFFCURVE",
"114 655 CURVE SMOOTH",
"145 655 OFFCURVE",
"168 676 OFFCURVE",
"168 720 CURVE SMOOTH",
"168 762 OFFCURVE",
"149 784 OFFCURVE",
"114 784 CURVE SMOOTH",
"78 784 OFFCURVE",
"60 762 OFFCURVE",
"60 720 CURVE SMOOTH"
);
}
);
width = 228;
},
{
layerId = "DE962D09-1426-4D02-9608-9FE5B080C42D";
paths = (
{
closed = 1;
nodes = (
"89 345 LINE",
"79 266 OFFCURVE",
"72 231 OFFCURVE",
"38 115 CURVE",
"59 115 LINE",
"88 186 OFFCURVE",
"110 270 OFFCURVE",
"121 332 CURVE",
"117 345 LINE"
);
},
{
closed = 1;
nodes = (
"70 720 OFFCURVE",
"75 705 OFFCURVE",
"95 705 CURVE SMOOTH",
"113 705 OFFCURVE",
"121 718 OFFCURVE",
"121 741 CURVE SMOOTH",
"121 764 OFFCURVE",
"114 776 OFFCURVE",
"95 776 CURVE SMOOTH",
"75 776 OFFCURVE",
"70 760 OFFCURVE",
"70 741 CURVE SMOOTH"
);
}
);
width = 177;
}
);
note = semicolon;
unicode = 003B;
},
{
glyphname = question;
lastChange = "2016-12-05 19:32:48 +0000";
layers = (
{
layerId = "46DC2CF2-3687-4CD7-A306-8CA7072459C9";
paths = (
{
closed = 1;
nodes = (
"210 445 LINE",
"210 462 LINE SMOOTH",
"210 519 OFFCURVE",
"223 545 OFFCURVE",
"290 602 CURVE SMOOTH",
"362 662 OFFCURVE",
"408 703 OFFCURVE",
"408 793 CURVE SMOOTH",
"408 901 OFFCURVE",
"336 968 OFFCURVE",
"209 968 CURVE SMOOTH",
"129 968 OFFCURVE",
"65 947 OFFCURVE",
"12 919 CURVE",
"43 849 LINE",
"89 871 OFFCURVE",
"137 891 OFFCURVE",
"203 891 CURVE SMOOTH",
"281 891 OFFCURVE",
"324 855 OFFCURVE",
"324 791 CURVE SMOOTH",
"324 731 OFFCURVE",
"301 707 OFFCURVE",
"224 642 CURVE SMOOTH",
"159 587 OFFCURVE",
"140 547 OFFCURVE",
"140 472 CURVE SMOOTH",
"140 445 LINE"
);
},
{
closed = 1;
nodes = (
"117 250 OFFCURVE",
"143 230 OFFCURVE",
"179 230 CURVE SMOOTH",
"212 230 OFFCURVE",
"240 250 OFFCURVE",
"240 298 CURVE SMOOTH",
"240 347 OFFCURVE",
"212 365 OFFCURVE",
"179 365 CURVE SMOOTH",
"143 365 OFFCURVE",
"117 347 OFFCURVE",
"117 298 CURVE SMOOTH"
);
}
);
width = 434;
},
{
layerId = "51E32C1F-DEF7-419B-8D63-3B39AA64BD60";
paths = (
{
closed = 1;
nodes = (
"294 496 LINE",
"294 521 LINE SMOOTH",
"294 552 OFFCURVE",
"312 568 OFFCURVE",
"371 606 CURVE SMOOTH",
"454 659 OFFCURVE",
"487 713 OFFCURVE",
"487 790 CURVE SMOOTH",
"487 897 OFFCURVE",
"402 968 OFFCURVE",
"254 968 CURVE SMOOTH",
"156 968 OFFCURVE",
"73 941 OFFCURVE",
"0 899 CURVE",
"68 766 LINE",
"133 800 OFFCURVE",
"191 818 OFFCURVE",
"240 818 CURVE SMOOTH",
"280 818 OFFCURVE",
"307 801 OFFCURVE",
"307 774 CURVE SMOOTH",
"307 747 OFFCURVE",
"299 725 OFFCURVE",
"233 683 CURVE SMOOTH",
"163 639 OFFCURVE",
"144 598 OFFCURVE",
"144 538 CURVE SMOOTH",
"144 496 LINE"
);
},
{
closed = 1;
nodes = (
"123 259 OFFCURVE",
"169 232 OFFCURVE",
"226 232 CURVE SMOOTH",
"281 232 OFFCURVE",
"327 259 OFFCURVE",
"327 325 CURVE SMOOTH",
"327 394 OFFCURVE",
"281 419 OFFCURVE",
"226 419 CURVE SMOOTH",
"169 419 OFFCURVE",
"123 394 OFFCURVE",
"123 325 CURVE SMOOTH"
);
}
);
width = 505;
},
{
layerId = "6517A2BC-7974-4B53-8E65-A6A29EB8D1E7";
paths = (
{
closed = 1;
nodes = (
"169 418 LINE",
"169 430 LINE SMOOTH",
"169 521 OFFCURVE",
"190 558 OFFCURVE",
"242 594 CURVE SMOOTH",
"321 649 OFFCURVE",
"374 698 OFFCURVE",
"374 798 CURVE SMOOTH",
"374 912 OFFCURVE",
"300 968 OFFCURVE",
"188 968 CURVE SMOOTH",
"134 968 OFFCURVE",
"96 959 OFFCURVE",
"38 935 CURVE",
"48 909 LINE",
"96 933 OFFCURVE",
"139 943 OFFCURVE",
"188 943 CURVE SMOOTH",
"281 943 OFFCURVE",
"347 898 OFFCURVE",
"347 798 CURVE SMOOTH",
"347 707 OFFCURVE",
"301 666 OFFCURVE",
"229 615 CURVE SMOOTH",
"160 566 OFFCURVE",
"144 529 OFFCURVE",
"144 430 CURVE SMOOTH",
"144 418 LINE"
);
},
{
closed = 1;
nodes = (
"133 250 OFFCURVE",
"138 236 OFFCURVE",
"158 236 CURVE SMOOTH",
"182 236 OFFCURVE",
"185 250 OFFCURVE",
"185 267 CURVE SMOOTH",
"185 283 OFFCURVE",
"182 298 OFFCURVE",
"158 298 CURVE SMOOTH",
"138 298 OFFCURVE",
"133 283 OFFCURVE",
"133 267 CURVE SMOOTH"
);
}
);
width = 413;
},
{
layerId = "0F8E8D95-EFB6-4635-B30D-2DA8DDB35575";
paths = (
{
closed = 1;
nodes = (
"243 496 LINE",
"243 521 LINE SMOOTH",
"243 550 OFFCURVE",
"245 561 OFFCURVE",
"295 606 CURVE SMOOTH",
"354 658 OFFCURVE",
"388 704 OFFCURVE",
"388 790 CURVE SMOOTH",
"388 899 OFFCURVE",
"319 968 OFFCURVE",
"189 968 CURVE SMOOTH",
"126 968 OFFCURVE",
"63 945 OFFCURVE",
"0 899 CURVE",
"52 772 LINE",
"98 806 OFFCURVE",
"138 824 OFFCURVE",
"173 824 CURVE SMOOTH",
"212 824 OFFCURVE",
"230 807 OFFCURVE",
"230 776 CURVE SMOOTH",
"230 738 OFFCURVE",
"215 720 OFFCURVE",
"175 684 CURVE SMOOTH",
"126 640 OFFCURVE",
"107 603 OFFCURVE",
"107 538 CURVE SMOOTH",
"107 496 LINE"
);
},
{
closed = 1;
nodes = (
"83 266 OFFCURVE",
"119 232 OFFCURVE",
"176 232 CURVE SMOOTH",
"233 232 OFFCURVE",
"266 266 OFFCURVE",
"266 325 CURVE SMOOTH",
"266 385 OFFCURVE",
"234 419 OFFCURVE",
"176 419 CURVE SMOOTH",
"116 419 OFFCURVE",
"83 385 OFFCURVE",
"83 325 CURVE SMOOTH"
);
}
);
width = 402;
},
{
layerId = "9C354F0E-63BE-4945-A1C1-0B7B127DD18D";
paths = (
{
closed = 1;
nodes = (
"163 445 LINE",
"163 465 LINE SMOOTH",
"163 519 OFFCURVE",
"175 550 OFFCURVE",
"215 602 CURVE SMOOTH",
"272 677 OFFCURVE",
"297 718 OFFCURVE",
"297 804 CURVE SMOOTH",
"297 909 OFFCURVE",
"243 968 OFFCURVE",
"145 968 CURVE SMOOTH",
"98 968 OFFCURVE",
"54 953 OFFCURVE",
"12 922 CURVE",
"43 858 LINE",
"76 881 OFFCURVE",
"104 894 OFFCURVE",
"141 894 CURVE SMOOTH",
"188 894 OFFCURVE",
"216 861 OFFCURVE",
"216 797 CURVE SMOOTH",
"216 739 OFFCURVE",
"198 699 OFFCURVE",
"151 638 CURVE SMOOTH",
"110 586 OFFCURVE",
"98 542 OFFCURVE",
"98 474 CURVE SMOOTH",
"98 445 LINE"
);
},
{
closed = 1;
nodes = (
"78 257 OFFCURVE",
"98 235 OFFCURVE",
"132 235 CURVE SMOOTH",
"164 235 OFFCURVE",
"186 255 OFFCURVE",
"186 299 CURVE SMOOTH",
"186 344 OFFCURVE",
"165 363 OFFCURVE",
"132 363 CURVE SMOOTH",
"97 363 OFFCURVE",
"78 341 OFFCURVE",
"78 299 CURVE SMOOTH"
);
}
);
width = 318;
},
{
layerId = "DE962D09-1426-4D02-9608-9FE5B080C42D";
paths = (
{
closed = 1;
nodes = (
"109 414 LINE",
"109 436 LINE SMOOTH",
"109 503 OFFCURVE",
"114 538 OFFCURVE",
"161 607 CURVE SMOOTH",
"200 664 OFFCURVE",
"240 712 OFFCURVE",
"240 809 CURVE SMOOTH",
"240 918 OFFCURVE",
"189 968 OFFCURVE",
"115 968 CURVE SMOOTH",
"76 968 OFFCURVE",
"40 954 OFFCURVE",
"17 937 CURVE",
"30 916 LINE",
"54 933 OFFCURVE",
"83 943 OFFCURVE",
"114 943 CURVE SMOOTH",
"177 943 OFFCURVE",
"213 901 OFFCURVE",
"213 811 CURVE SMOOTH",
"213 727 OFFCURVE",
"182 681 OFFCURVE",
"138 617 CURVE SMOOTH",
"96 556 OFFCURVE",
"85 518 OFFCURVE",
"85 437 CURVE SMOOTH",
"85 414 LINE"
);
},
{
closed = 1;
nodes = (
"72 253 OFFCURVE",
"77 238 OFFCURVE",
"97 238 CURVE SMOOTH",
"115 238 OFFCURVE",
"123 251 OFFCURVE",
"123 275 CURVE SMOOTH",
"123 297 OFFCURVE",
"116 309 OFFCURVE",
"98 309 CURVE SMOOTH",
"77 309 OFFCURVE",
"72 293 OFFCURVE",
"72 273 CURVE SMOOTH"
);
}
);
width = 263;
}
);
note = question;
unicode = 003F;
},
{
glyphname = guillemotleft;
lastChange = "2016-12-05 19:32:48 +0000";
layers = (
{
layerId = "46DC2CF2-3687-4CD7-A306-8CA7072459C9";
paths = (
{
closed = 1;
nodes = (
"40 501 LINE",
"208 300 LINE",
"271 337 LINE",
"131 508 LINE",
"271 679 LINE",
"208 715 LINE",
"40 514 LINE"
);
},
{
closed = 1;
nodes = (
"238 501 LINE",
"408 300 LINE",
"470 337 LINE",
"330 508 LINE",
"470 679 LINE",
"408 715 LINE",
"238 514 LINE"
);
}
);
width = 509;
},
{
layerId = "51E32C1F-DEF7-419B-8D63-3B39AA64BD60";
paths = (
{
closed = 1;
nodes = (
"36 518 LINE",
"226 283 LINE",
"363 355 LINE",
"230 525 LINE",
"363 694 LINE",
"226 767 LINE",
"36 531 LINE"
);
},
{
closed = 1;
nodes = (
"317 518 LINE",
"506 283 LINE",
"644 355 LINE",
"510 525 LINE",
"644 694 LINE",
"506 767 LINE",
"317 531 LINE"
);
}
);
width = 681;
},
{
layerId = "6517A2BC-7974-4B53-8E65-A6A29EB8D1E7";
paths = (
{
closed = 1;
nodes = (
"26 516 LINE",
"178 331 LINE",
"194 342 LINE",
"57 523 LINE",
"194 704 LINE",
"178 716 LINE",
"26 529 LINE"
);
},
{
closed = 1;
nodes = (
"195 516 LINE",
"347 331 LINE",
"363 342 LINE",
"226 523 LINE",
"363 704 LINE",
"347 716 LINE",
"195 529 LINE"
);
}
);
width = 389;
},
{
layerId = "0F8E8D95-EFB6-4635-B30D-2DA8DDB35575";
paths = (
{
closed = 1;
nodes = (
"22 517 LINE",
"177 286 LINE",
"294 348 LINE",
"193 524 LINE",
"294 701 LINE",
"177 763 LINE",
"22 531 LINE"
);
},
{
closed = 1;
nodes = (
"261 517 LINE",
"416 286 LINE",
"533 348 LINE",
"433 524 LINE",
"533 701 LINE",
"416 763 LINE",
"261 531 LINE"
);
}
);
width = 560;
},
{
layerId = "9C354F0E-63BE-4945-A1C1-0B7B127DD18D";
paths = (
{
closed = 1;
nodes = (
"35 501 LINE",
"179 307 LINE",
"236 338 LINE",
"130 508 LINE",
"236 680 LINE",
"179 709 LINE",
"35 515 LINE"
);
},
{
closed = 1;
nodes = (
"224 501 LINE",
"369 307 LINE",
"425 338 LINE",
"320 508 LINE",
"425 680 LINE",
"369 709 LINE",
"224 515 LINE"
);
}
);
width = 460;
},
{
layerId = "DE962D09-1426-4D02-9608-9FE5B080C42D";
paths = (
{
closed = 1;
nodes = (
"40 515 LINE",
"181 342 LINE",
"199 352 LINE",
"75 522 LINE",
"198 693 LINE",
"181 703 LINE",
"40 528 LINE"
);
},
{
closed = 1;
nodes = (
"210 515 LINE",
"351 342 LINE",
"369 352 LINE",
"245 522 LINE",
"368 693 LINE",
"351 703 LINE",
"210 528 LINE"
);
}
);
width = 408;
}
);
note = guillemotleft;
unicode = 00AB;
},
{
glyphname = guillemotright;
lastChange = "2016-12-05 19:32:48 +0000";
layers = (
{
layerId = "46DC2CF2-3687-4CD7-A306-8CA7072459C9";
paths = (
{
closed = 1;
nodes = (
"469 514 LINE",
"299 715 LINE",
"237 679 LINE",
"377 508 LINE",
"237 337 LINE",
"299 300 LINE",
"469 501 LINE"
);
},
{
closed = 1;
nodes = (
"270 514 LINE",
"101 715 LINE",
"39 679 LINE",
"179 508 LINE",
"39 337 LINE",
"101 300 LINE",
"270 501 LINE"
);
}
);
width = 509;
},
{
layerId = "51E32C1F-DEF7-419B-8D63-3B39AA64BD60";
paths = (
{
closed = 1;
nodes = (
"645 531 LINE",
"456 767 LINE",
"317 694 LINE",
"451 525 LINE",
"317 355 LINE",
"456 283 LINE",
"645 518 LINE"
);
},
{
closed = 1;
nodes = (
"364 531 LINE",
"175 767 LINE",
"37 694 LINE",
"170 525 LINE",
"37 355 LINE",
"175 283 LINE",
"364 518 LINE"
);
}
);
width = 681;
},
{
layerId = "6517A2BC-7974-4B53-8E65-A6A29EB8D1E7";
paths = (
{
closed = 1;
nodes = (
"363 531 LINE",
"211 716 LINE",
"195 705 LINE",
"332 524 LINE",
"195 343 LINE",
"211 331 LINE",
"363 518 LINE"
);
},
{
closed = 1;
nodes = (
"194 531 LINE",
"42 716 LINE",
"26 705 LINE",
"163 524 LINE",
"26 343 LINE",
"42 331 LINE",
"194 518 LINE"
);
}
);
width = 389;
},
{
layerId = "0F8E8D95-EFB6-4635-B30D-2DA8DDB35575";
paths = (
{
closed = 1;
nodes = (
"538 531 LINE",
"383 763 LINE",
"266 701 LINE",
"367 524 LINE",
"266 348 LINE",
"383 286 LINE",
"538 517 LINE"
);
},
{
closed = 1;
nodes = (
"299 531 LINE",
"144 763 LINE",
"27 701 LINE",
"127 524 LINE",
"27 348 LINE",
"144 286 LINE",
"299 517 LINE"
);
}
);
width = 560;
},
{
layerId = "9C354F0E-63BE-4945-A1C1-0B7B127DD18D";
paths = (
{
closed = 1;
nodes = (
"426 515 LINE",
"281 709 LINE",
"225 680 LINE",
"330 508 LINE",
"225 338 LINE",
"281 307 LINE",
"426 501 LINE"
);
},
{
closed = 1;
nodes = (
"237 515 LINE",
"91 709 LINE",
"36 680 LINE",
"140 508 LINE",
"36 338 LINE",
"91 307 LINE",
"237 501 LINE"
);
}
);
width = 460;
},
{
layerId = "DE962D09-1426-4D02-9608-9FE5B080C42D";
paths = (
{
closed = 1;
nodes = (
"358 528 LINE",
"217 703 LINE",
"199 693 LINE",
"323 522 LINE",
"199 352 LINE",
"217 342 LINE",
"358 515 LINE"
);
},
{
closed = 1;
nodes = (
"199 528 LINE",
"58 703 LINE",
"40 693 LINE",
"164 522 LINE",
"40 352 LINE",
"58 342 LINE",
"199 515 LINE"
);
}
);
width = 397;
}
);
note = guillemotright;
unicode = 00BB;
},
{
glyphname = quoteleft;
lastChange = "2016-12-05 19:32:48 +0000";
layers = (
{
layerId = "51E32C1F-DEF7-419B-8D63-3B39AA64BD60";
paths = (
{
closed = 1;
nodes = (
"184 672 LINE",
"193 752 OFFCURVE",
"213 866 OFFCURVE",
"232 957 CURVE",
"96 957 LINE",
"63 883 OFFCURVE",
"28 755 OFFCURVE",
"10 683 CURVE",
"17 672 LINE"
);
}
);
width = 250;
},
{
layerId = "0F8E8D95-EFB6-4635-B30D-2DA8DDB35575";
paths = (
{
closed = 1;
nodes = (
"201 673 LINE",
"207 747 OFFCURVE",
"221 875 OFFCURVE",
"238 958 CURVE",
"104 958 LINE",
"75 885 OFFCURVE",
"53 793 OFFCURVE",
"38 684 CURVE",
"43 673 LINE"
);
}
);
width = 273;
},
{
layerId = "46DC2CF2-3687-4CD7-A306-8CA7072459C9";
paths = (
{
closed = 1;
nodes = (
"113 713 LINE",
"123 782 OFFCURVE",
"144 882 OFFCURVE",
"163 958 CURVE",
"98 958 LINE",
"66 887 OFFCURVE",
"30 794 OFFCURVE",
"12 724 CURVE",
"18 713 LINE"
);
}
);
width = 175;
},
{
layerId = "9C354F0E-63BE-4945-A1C1-0B7B127DD18D";
paths = (
{
closed = 1;
nodes = (
"119 712 LINE",
"126 783 OFFCURVE",
"142 875 OFFCURVE",
"164 958 CURVE",
"103 958 LINE",
"71 886 OFFCURVE",
"45 807 OFFCURVE",
"26 723 CURVE",
"32 712 LINE"
);
}
);
width = 189;
},
{
layerId = "6517A2BC-7974-4B53-8E65-A6A29EB8D1E7";
paths = (
{
closed = 1;
nodes = (
"48 713 LINE",
"55 785 OFFCURVE",
"80 888 OFFCURVE",
"111 958 CURVE",
"94 958 LINE",
"62 889 OFFCURVE",
"34 804 OFFCURVE",
"22 722 CURVE",
"28 713 LINE"
);
}
);
width = 127;
},
{
layerId = "DE962D09-1426-4D02-9608-9FE5B080C42D";
paths = (
{
closed = 1;
nodes = (
"56 739 LINE",
"68 811 OFFCURVE",
"85 875 OFFCURVE",
"110 958 CURVE",
"89 958 LINE",
"58 886 OFFCURVE",
"39 817 OFFCURVE",
"21 750 CURVE",
"29 739 LINE"
);
}
);
width = 131;
}
);
leftKerningGroup = quoteleft;
rightKerningGroup = quote.left;
unicode = 2018;
subCategory = Quote;
},
{
glyphname = quoteright;
lastChange = "2016-12-05 19:32:48 +0000";
layers = (
{
layerId = "51E32C1F-DEF7-419B-8D63-3B39AA64BD60";
paths = (
{
closed = 1;
nodes = (
"66 957 LINE",
"57 877 OFFCURVE",
"37 763 OFFCURVE",
"18 672 CURVE",
"154 672 LINE",
"187 746 OFFCURVE",
"222 874 OFFCURVE",
"240 946 CURVE",
"233 957 LINE"
);
}
);
width = 250;
},
{
layerId = "0F8E8D95-EFB6-4635-B30D-2DA8DDB35575";
paths = (
{
closed = 1;
nodes = (
"72 958 LINE",
"69 891 OFFCURVE",
"50 743 OFFCURVE",
"36 673 CURVE",
"170 673 LINE",
"199 746 OFFCURVE",
"220 837 OFFCURVE",
"235 947 CURVE",
"230 958 LINE"
);
}
);
width = 273;
},
{
layerId = "46DC2CF2-3687-4CD7-A306-8CA7072459C9";
paths = (
{
closed = 1;
nodes = (
"62 958 LINE",
"52 888 OFFCURVE",
"31 788 OFFCURVE",
"12 713 CURVE",
"77 713 LINE",
"109 784 OFFCURVE",
"145 877 OFFCURVE",
"163 947 CURVE",
"156 958 LINE"
);
}
);
width = 175;
},
{
layerId = "9C354F0E-63BE-4945-A1C1-0B7B127DD18D";
paths = (
{
closed = 1;
nodes = (
"70 958 LINE",
"64 889 OFFCURVE",
"46 792 OFFCURVE",
"25 712 CURVE",
"87 712 LINE",
"119 787 OFFCURVE",
"144 864 OFFCURVE",
"163 947 CURVE",
"156 958 LINE"
);
}
);
width = 189;
},
{
layerId = "6517A2BC-7974-4B53-8E65-A6A29EB8D1E7";
paths = (
{
closed = 1;
nodes = (
"79 958 LINE",
"72 886 OFFCURVE",
"47 783 OFFCURVE",
"16 713 CURVE",
"33 713 LINE",
"65 782 OFFCURVE",
"93 867 OFFCURVE",
"105 949 CURVE",
"99 958 LINE"
);
}
);
width = 127;
},
{
layerId = "DE962D09-1426-4D02-9608-9FE5B080C42D";
paths = (
{
closed = 1;
nodes = (
"75 958 LINE",
"63 886 OFFCURVE",
"46 822 OFFCURVE",
"21 739 CURVE",
"42 739 LINE",
"73 811 OFFCURVE",
"92 880 OFFCURVE",
"110 947 CURVE",
"102 958 LINE"
);
}
);
width = 131;
}
);
leftKerningGroup = quote.right;
rightKerningGroup = quote.left;
unicode = 2019;
subCategory = Quote;
},
{
glyphname = quotedblleft;
lastChange = "2016-12-05 19:32:48 +0000";
layers = (
{
layerId = "51E32C1F-DEF7-419B-8D63-3B39AA64BD60";
paths = (
{
closed = 1;
nodes = (
"345 957 LINE",
"312 883 OFFCURVE",
"277 755 OFFCURVE",
"259 683 CURVE",
"266 672 LINE",
"433 672 LINE",
"442 752 OFFCURVE",
"462 866 OFFCURVE",
"481 957 CURVE"
);
},
{
closed = 1;
nodes = (
"96 957 LINE",
"63 883 OFFCURVE",
"28 755 OFFCURVE",
"10 683 CURVE",
"17 672 LINE",
"184 672 LINE",
"193 752 OFFCURVE",
"213 866 OFFCURVE",
"232 957 CURVE"
);
}
);
width = 499;
},
{
layerId = "0F8E8D95-EFB6-4635-B30D-2DA8DDB35575";
paths = (
{
closed = 1;
nodes = (
"333 958 LINE",
"304 885 OFFCURVE",
"283 793 OFFCURVE",
"268 684 CURVE",
"273 673 LINE",
"431 673 LINE",
"435 759 OFFCURVE",
"451 870 OFFCURVE",
"467 958 CURVE"
);
},
{
closed = 1;
nodes = (
"104 958 LINE",
"75 885 OFFCURVE",
"53 793 OFFCURVE",
"38 684 CURVE",
"43 673 LINE",
"201 673 LINE",
"207 747 OFFCURVE",
"221 875 OFFCURVE",
"238 958 CURVE"
);
}
);
width = 503;
},
{
layerId = "46DC2CF2-3687-4CD7-A306-8CA7072459C9";
paths = (
{
closed = 1;
nodes = (
"282 958 LINE",
"249 886 OFFCURVE",
"213 794 OFFCURVE",
"195 724 CURVE",
"202 713 LINE",
"297 713 LINE",
"307 782 OFFCURVE",
"328 881 OFFCURVE",
"347 958 CURVE"
);
},
{
closed = 1;
nodes = (
"98 958 LINE",
"65 886 OFFCURVE",
"30 794 OFFCURVE",
"12 724 CURVE",
"18 713 LINE",
"112 713 LINE",
"122 782 OFFCURVE",
"143 881 OFFCURVE",
"162 958 CURVE"
);
}
);
width = 359;
},
{
layerId = "9C354F0E-63BE-4945-A1C1-0B7B127DD18D";
paths = (
{
closed = 1;
nodes = (
"268 958 LINE",
"237 886 OFFCURVE",
"212 807 OFFCURVE",
"192 723 CURVE",
"198 712 LINE",
"285 712 LINE",
"292 787 OFFCURVE",
"309 874 OFFCURVE",
"330 958 CURVE"
);
},
{
closed = 1;
nodes = (
"103 958 LINE",
"71 886 OFFCURVE",
"45 807 OFFCURVE",
"26 723 CURVE",
"32 712 LINE",
"119 712 LINE",
"126 783 OFFCURVE",
"142 875 OFFCURVE",
"164 958 CURVE"
);
}
);
width = 354;
},
{
layerId = "6517A2BC-7974-4B53-8E65-A6A29EB8D1E7";
paths = (
{
closed = 1;
nodes = (
"232 958 LINE",
"200 889 OFFCURVE",
"172 804 OFFCURVE",
"160 722 CURVE",
"166 713 LINE",
"186 713 LINE",
"193 785 OFFCURVE",
"218 888 OFFCURVE",
"249 958 CURVE"
);
},
{
closed = 1;
nodes = (
"94 958 LINE",
"62 889 OFFCURVE",
"34 804 OFFCURVE",
"22 722 CURVE",
"28 713 LINE",
"48 713 LINE",
"55 785 OFFCURVE",
"80 888 OFFCURVE",
"111 958 CURVE"
);
}
);
width = 265;
},
{
layerId = "DE962D09-1426-4D02-9608-9FE5B080C42D";
paths = (
{
closed = 1;
nodes = (
"213 958 LINE",
"182 886 OFFCURVE",
"162 817 OFFCURVE",
"144 750 CURVE",
"152 739 LINE",
"182 739 LINE",
"192 811 OFFCURVE",
"209 875 OFFCURVE",
"234 958 CURVE"
);
},
{
closed = 1;
nodes = (
"90 958 LINE",
"59 886 OFFCURVE",
"39 817 OFFCURVE",
"21 750 CURVE",
"29 739 LINE",
"59 739 LINE",
"69 811 OFFCURVE",
"86 875 OFFCURVE",
"111 958 CURVE"
);
}
);
width = 255;
}
);
leftKerningGroup = quoteleft;
rightKerningGroup = quote.left;
unicode = 201C;
subCategory = Quote;
},
{
glyphname = quotedblright;
lastChange = "2016-12-05 19:32:48 +0000";
layers = (
{
layerId = "51E32C1F-DEF7-419B-8D63-3B39AA64BD60";
paths = (
{
closed = 1;
nodes = (
"315 957 LINE",
"306 877 OFFCURVE",
"286 763 OFFCURVE",
"267 672 CURVE",
"403 672 LINE",
"436 746 OFFCURVE",
"471 874 OFFCURVE",
"489 946 CURVE",
"482 957 LINE"
);
},
{
closed = 1;
nodes = (
"66 957 LINE",
"57 877 OFFCURVE",
"37 763 OFFCURVE",
"18 672 CURVE",
"154 672 LINE",
"187 746 OFFCURVE",
"222 874 OFFCURVE",
"240 946 CURVE",
"233 957 LINE"
);
}
);
width = 499;
},
{
layerId = "0F8E8D95-EFB6-4635-B30D-2DA8DDB35575";
paths = (
{
closed = 1;
nodes = (
"302 958 LINE",
"295 868 OFFCURVE",
"282 770 OFFCURVE",
"265 673 CURVE",
"399 673 LINE",
"428 746 OFFCURVE",
"450 837 OFFCURVE",
"465 947 CURVE",
"459 958 LINE"
);
},
{
closed = 1;
nodes = (
"72 958 LINE",
"69 891 OFFCURVE",
"48 743 OFFCURVE",
"36 673 CURVE",
"170 673 LINE",
"199 746 OFFCURVE",
"220 837 OFFCURVE",
"235 947 CURVE",
"230 958 LINE"
);
}
);
width = 503;
},
{
layerId = "46DC2CF2-3687-4CD7-A306-8CA7072459C9";
paths = (
{
closed = 1;
nodes = (
"246 958 LINE",
"236 888 OFFCURVE",
"214 788 OFFCURVE",
"195 713 CURVE",
"261 713 LINE",
"293 784 OFFCURVE",
"329 876 OFFCURVE",
"347 947 CURVE",
"340 958 LINE"
);
},
{
closed = 1;
nodes = (
"61 958 LINE",
"51 888 OFFCURVE",
"31 788 OFFCURVE",
"12 713 CURVE",
"76 713 LINE",
"108 784 OFFCURVE",
"144 876 OFFCURVE",
"162 947 CURVE",
"155 958 LINE"
);
}
);
width = 359;
},
{
layerId = "9C354F0E-63BE-4945-A1C1-0B7B127DD18D";
paths = (
{
closed = 1;
nodes = (
"237 958 LINE",
"229 882 OFFCURVE",
"214 799 OFFCURVE",
"191 712 CURVE",
"253 712 LINE",
"285 787 OFFCURVE",
"310 864 OFFCURVE",
"329 947 CURVE",
"322 958 LINE"
);
},
{
closed = 1;
nodes = (
"70 958 LINE",
"64 889 OFFCURVE",
"46 792 OFFCURVE",
"25 712 CURVE",
"87 712 LINE",
"119 787 OFFCURVE",
"144 864 OFFCURVE",
"163 947 CURVE",
"156 958 LINE"
);
}
);
width = 354;
},
{
layerId = "6517A2BC-7974-4B53-8E65-A6A29EB8D1E7";
paths = (
{
closed = 1;
nodes = (
"217 958 LINE",
"210 886 OFFCURVE",
"185 783 OFFCURVE",
"154 713 CURVE",
"171 713 LINE",
"203 782 OFFCURVE",
"231 867 OFFCURVE",
"243 949 CURVE",
"237 958 LINE"
);
},
{
closed = 1;
nodes = (
"79 958 LINE",
"72 886 OFFCURVE",
"47 783 OFFCURVE",
"16 713 CURVE",
"33 713 LINE",
"65 782 OFFCURVE",
"93 867 OFFCURVE",
"105 949 CURVE",
"99 958 LINE"
);
}
);
width = 265;
},
{
layerId = "DE962D09-1426-4D02-9608-9FE5B080C42D";
paths = (
{
closed = 1;
nodes = (
"196 958 LINE",
"186 886 OFFCURVE",
"169 822 OFFCURVE",
"144 739 CURVE",
"165 739 LINE",
"196 811 OFFCURVE",
"217 880 OFFCURVE",
"235 947 CURVE",
"227 958 LINE"
);
},
{
closed = 1;
nodes = (
"73 958 LINE",
"63 886 OFFCURVE",
"46 822 OFFCURVE",
"21 739 CURVE",
"42 739 LINE",
"73 811 OFFCURVE",
"94 880 OFFCURVE",
"112 947 CURVE",
"104 958 LINE"
);
}
);
width = 256;
}
);
leftKerningGroup = quote.right;
rightKerningGroup = quote.left;
unicode = 201D;
subCategory = Quote;
},
{
glyphname = uni1780;
lastChange = "2016-12-05 19:32:48 +0000";
layers = (
{
anchors = (
{
name = abvm;
position = "{316, 830}";
},
{
name = blwm;
position = "{317, 244}";
}
);
guideLines = (
{
position = "{356, 144}";
showMeasurement = 1;
},
{
angle = 180;
position = "{318, 511}";
},
{
angle = 90;
position = "{635, 641}";
}
);
layerId = "46DC2CF2-3687-4CD7-A306-8CA7072459C9";
paths = (
{
closed = 1;
nodes = (
"538 713 LINE",
"538 780 LINE",
"98 780 LINE",
"98 713 LINE"
);
},
{
closed = 1;
nodes = (
"190 244 LINE",
"190 487 LINE SMOOTH",
"190 547 OFFCURVE",
"233 578 OFFCURVE",
"318 578 CURVE SMOOTH",
"404 578 OFFCURVE",
"446 547 OFFCURVE",
"446 487 CURVE SMOOTH",
"446 244 LINE",
"538 244 LINE",
"538 487 LINE SMOOTH",
"538 592 OFFCURVE",
"465 645 OFFCURVE",
"318 645 CURVE SMOOTH",
"172 645 OFFCURVE",
"98 592 OFFCURVE",
"98 487 CURVE SMOOTH",
"98 244 LINE"
);
}
);
width = 636;
},
{
anchors = (
{
name = abvm;
position = "{354, 830}";
},
{
name = blwm;
position = "{354, 244}";
}
);
guideLines = (
{
angle = 270;
position = "{619, 377}";
},
{
position = "{654, 517}";
}
);
layerId = "51E32C1F-DEF7-419B-8D63-3B39AA64BD60";
paths = (
{
closed = 1;
nodes = (
"619 668 LINE",
"619 780 LINE",
"90 780 LINE",
"90 668 LINE"
);
},
{
closed = 1;
nodes = (
"271 244 LINE",
"271 460 LINE SMOOTH",
"271 493 OFFCURVE",
"302 522 OFFCURVE",
"354 522 CURVE SMOOTH",
"406 522 OFFCURVE",
"438 493 OFFCURVE",
"438 460 CURVE SMOOTH",
"438 244 LINE",
"619 244 LINE",
"619 460 LINE SMOOTH",
"619 568 OFFCURVE",
"526 634 OFFCURVE",
"354 634 CURVE SMOOTH",
"183 634 OFFCURVE",
"90 568 OFFCURVE",
"90 460 CURVE SMOOTH",
"90 244 LINE"
);
}
);
width = 709;
},
{
anchors = (
{
name = abvm;
position = "{293, 830}";
},
{
name = blwm;
position = "{295, 244}";
}
);
layerId = "6517A2BC-7974-4B53-8E65-A6A29EB8D1E7";
paths = (
{
closed = 1;
nodes = (
"481 754 LINE",
"481 780 LINE",
"110 780 LINE",
"110 754 LINE"
);
},
{
closed = 1;
nodes = (
"136 244 LINE",
"136 506 LINE SMOOTH",
"136 583 OFFCURVE",
"176 627 OFFCURVE",
"294 627 CURVE SMOOTH",
"412 627 OFFCURVE",
"455 587 OFFCURVE",
"455 506 CURVE SMOOTH",
"455 244 LINE",
"481 244 LINE",
"481 506 LINE SMOOTH",
"481 609 OFFCURVE",
"422 653 OFFCURVE",
"294 653 CURVE SMOOTH",
"166 653 OFFCURVE",
"110 609 OFFCURVE",
"110 506 CURVE SMOOTH",
"110 244 LINE"
);
}
);
width = 591;
},
{
anchors = (
{
name = abvm;
position = "{279, 830}";
},
{
name = blwm;
position = "{279, 244}";
}
);
layerId = "0F8E8D95-EFB6-4635-B30D-2DA8DDB35575";
paths = (
{
closed = 1;
nodes = (
"501 668 LINE",
"501 780 LINE",
"60 780 LINE",
"60 668 LINE"
);
},
{
closed = 1;
nodes = (
"211 244 LINE",
"211 460 LINE SMOOTH",
"211 493 OFFCURVE",
"237 523 OFFCURVE",
"280 523 CURVE SMOOTH",
"323 523 OFFCURVE",
"350 493 OFFCURVE",
"350 460 CURVE SMOOTH",
"350 244 LINE",
"501 244 LINE",
"501 460 LINE SMOOTH",
"501 568 OFFCURVE",
"423 634 OFFCURVE",
"280 634 CURVE SMOOTH",
"138 634 OFFCURVE",
"60 568 OFFCURVE",
"60 460 CURVE SMOOTH",
"60 244 LINE"
);
}
);
width = 561;
},
{
anchors = (
{
name = abvm;
position = "{261, 830}";
},
{
name = blwm;
position = "{261, 244}";
}
);
guideLines = (
{
position = "{313, 388}";
showMeasurement = 1;
}
);
layerId = "9C354F0E-63BE-4945-A1C1-0B7B127DD18D";
paths = (
{
closed = 1;
nodes = (
"445 713 LINE",
"445 780 LINE",
"78 780 LINE",
"78 713 LINE"
);
},
{
closed = 1;
nodes = (
"155 244 LINE",
"155 487 LINE SMOOTH",
"155 547 OFFCURVE",
"191 577 OFFCURVE",
"261 577 CURVE SMOOTH",
"333 577 OFFCURVE",
"368 547 OFFCURVE",
"368 487 CURVE SMOOTH",
"368 244 LINE",
"445 244 LINE",
"445 487 LINE SMOOTH",
"445 592 OFFCURVE",
"384 645 OFFCURVE",
"261 645 CURVE SMOOTH",
"140 645 OFFCURVE",
"78 592 OFFCURVE",
"78 487 CURVE SMOOTH",
"78 244 LINE"
);
}
);
width = 523;
},
{
anchors = (
{
name = abvm;
position = "{243, 830}";
},
{
name = blwm;
position = "{251, 244}";
}
);
layerId = "DE962D09-1426-4D02-9608-9FE5B080C42D";
paths = (
{
closed = 1;
nodes = (
"399 754 LINE",
"399 780 LINE",
"90 780 LINE",
"90 754 LINE"
);
},
{
closed = 1;
nodes = (
"116 244 LINE",
"116 506 LINE SMOOTH",
"116 583 OFFCURVE",
"143 627 OFFCURVE",
"243 627 CURVE SMOOTH",
"343 627 OFFCURVE",
"373 583 OFFCURVE",
"373 506 CURVE SMOOTH",
"373 244 LINE",
"399 244 LINE",
"399 506 LINE SMOOTH",
"399 609 OFFCURVE",
"339 653 OFFCURVE",
"243 653 CURVE SMOOTH",
"147 653 OFFCURVE",
"90 609 OFFCURVE",
"90 506 CURVE SMOOTH",
"90 244 LINE"
);
}
);
width = 489;
}
);
note = uni1780;
unicode = 1780;
},
{
glyphname = uni1781;
lastChange = "2016-12-05 19:32:48 +0000";
layers = (
{
anchors = (
{
name = abvm;
position = "{318, 830}";
},
{
name = blwm;
position = "{317, 244}";
}
);
layerId = "46DC2CF2-3687-4CD7-A306-8CA7072459C9";
paths = (
{
closed = 1;
nodes = (
"480 244 OFFCURVE",
"537 312 OFFCURVE",
"537 402 CURVE SMOOTH",
"537 448 LINE",
"445 448 LINE",
"445 402 LINE SMOOTH",
"445 342 OFFCURVE",
"412 311 OFFCURVE",
"317 311 CURVE SMOOTH",
"223 311 OFFCURVE",
"190 342 OFFCURVE",
"190 402 CURVE SMOOTH",
"190 425 LINE",
"276 438 LINE SMOOTH",
"450 464 OFFCURVE",
"537 524 OFFCURVE",
"537 632 CURVE SMOOTH",
"537 712 OFFCURVE",
"480 780 OFFCURVE",
"317 780 CURVE SMOOTH",
"155 780 OFFCURVE",
"98 709 OFFCURVE",
"98 639 CURVE SMOOTH",
"98 573 OFFCURVE",
"147 545 OFFCURVE",
"196 545 CURVE SMOOTH",
"238 545 LINE",
"238 615 LINE",
"206 615 OFFCURVE",
"189 626 OFFCURVE",
"189 650 CURVE SMOOTH",
"189 679 OFFCURVE",
"223 713 OFFCURVE",
"317 713 CURVE SMOOTH",
"412 713 OFFCURVE",
"445 682 OFFCURVE",
"445 629 CURVE SMOOTH",
"445 560 OFFCURVE",
"387 522 OFFCURVE",
"271 505 CURVE SMOOTH",
"98 480 LINE",
"98 402 LINE SMOOTH",
"98 312 OFFCURVE",
"155 244 OFFCURVE",
"317 244 CURVE SMOOTH"
);
}
);
width = 635;
},
{
anchors = (
{
name = abvm;
position = "{354, 830}";
},
{
name = blwm;
position = "{354, 244}";
}
);
layerId = "51E32C1F-DEF7-419B-8D63-3B39AA64BD60";
paths = (
{
closed = 1;
nodes = (
"526 244 OFFCURVE",
"619 290 OFFCURVE",
"619 402 CURVE SMOOTH",
"619 448 LINE",
"438 448 LINE",
"438 402 LINE SMOOTH",
"438 373 OFFCURVE",
"405 356 OFFCURVE",
"354 356 CURVE SMOOTH",
"305 356 OFFCURVE",
"271 373 OFFCURVE",
"271 402 CURVE SMOOTH",
"271 422 LINE",
"313 435 LINE SMOOTH",
"537 504 OFFCURVE",
"619 523 OFFCURVE",
"619 630 CURVE SMOOTH",
"619 734 OFFCURVE",
"526 780 OFFCURVE",
"354 780 CURVE SMOOTH",
"179 780 OFFCURVE",
"90 743 OFFCURVE",
"90 648 CURVE SMOOTH",
"90 585 OFFCURVE",
"140 555 OFFCURVE",
"211 555 CURVE SMOOTH",
"306 555 LINE",
"306 618 LINE",
"282 618 OFFCURVE",
"275 624 OFFCURVE",
"275 638 CURVE SMOOTH",
"275 659 OFFCURVE",
"305 668 OFFCURVE",
"354 668 CURVE SMOOTH",
"405 668 OFFCURVE",
"438 651 OFFCURVE",
"438 622 CURVE SMOOTH",
"438 577 OFFCURVE",
"396 557 OFFCURVE",
"308 539 CURVE SMOOTH",
"90 495 LINE",
"90 402 LINE SMOOTH",
"90 290 OFFCURVE",
"183 244 OFFCURVE",
"354 244 CURVE SMOOTH"
);
}
);
width = 709;
},
{
anchors = (
{
name = abvm;
position = "{293, 830}";
},
{
name = blwm;
position = "{295, 244}";
}
);
layerId = "6517A2BC-7974-4B53-8E65-A6A29EB8D1E7";
paths = (
{
closed = 1;
nodes = (
"419 244 OFFCURVE",
"481 297 OFFCURVE",
"481 402 CURVE SMOOTH",
"481 448 LINE",
"455 448 LINE",
"455 402 LINE SMOOTH",
"455 313 OFFCURVE",
"413 270 OFFCURVE",
"294 270 CURVE SMOOTH",
"174 270 OFFCURVE",
"136 311 OFFCURVE",
"136 402 CURVE SMOOTH",
"136 456 LINE",
"260 469 LINE SMOOTH",
"397 483 OFFCURVE",
"481 534 OFFCURVE",
"481 639 CURVE SMOOTH",
"481 735 OFFCURVE",
"409 780 OFFCURVE",
"297 780 CURVE SMOOTH",
"163 780 OFFCURVE",
"110 711 OFFCURVE",
"110 631 CURVE SMOOTH",
"110 579 OFFCURVE",
"136 545 OFFCURVE",
"176 545 CURVE SMOOTH",
"182 545 LINE",
"182 569 LINE",
"159 569 OFFCURVE",
"136 589 OFFCURVE",
"136 628 CURVE SMOOTH",
"136 714 OFFCURVE",
"181 754 OFFCURVE",
"296 754 CURVE SMOOTH",
"407 754 OFFCURVE",
"455 717 OFFCURVE",
"455 640 CURVE SMOOTH",
"455 553 OFFCURVE",
"386 507 OFFCURVE",
"254 494 CURVE SMOOTH",
"110 480 LINE",
"110 402 LINE SMOOTH",
"110 289 OFFCURVE",
"169 244 OFFCURVE",
"294 244 CURVE SMOOTH"
);
}
);
width = 591;
},
{
anchors = (
{
name = abvm;
position = "{280, 830}";
},
{
name = blwm;
position = "{280, 244}";
}
);
layerId = "0F8E8D95-EFB6-4635-B30D-2DA8DDB35575";
paths = (
{
closed = 1;
nodes = (
"424 244 OFFCURVE",
"502 290 OFFCURVE",
"502 402 CURVE SMOOTH",
"502 448 LINE",
"351 448 LINE",
"351 402 LINE SMOOTH",
"351 373 OFFCURVE",
"324 356 OFFCURVE",
"281 356 CURVE SMOOTH",
"240 356 OFFCURVE",
"212 373 OFFCURVE",
"212 402 CURVE SMOOTH",
"212 422 LINE",
"247 435 LINE SMOOTH",
"434 504 OFFCURVE",
"502 523 OFFCURVE",
"502 630 CURVE SMOOTH",
"502 734 OFFCURVE",
"424 780 OFFCURVE",
"281 780 CURVE SMOOTH",
"135 780 OFFCURVE",
"61 743 OFFCURVE",
"61 648 CURVE SMOOTH",
"61 585 OFFCURVE",
"103 555 OFFCURVE",
"162 555 CURVE SMOOTH",
"241 555 LINE",
"241 618 LINE",
"221 618 OFFCURVE",
"215 624 OFFCURVE",
"215 638 CURVE SMOOTH",
"215 659 OFFCURVE",
"240 668 OFFCURVE",
"281 668 CURVE SMOOTH",
"324 668 OFFCURVE",
"351 651 OFFCURVE",
"351 622 CURVE SMOOTH",
"351 577 OFFCURVE",
"316 557 OFFCURVE",
"243 539 CURVE SMOOTH",
"61 495 LINE",
"61 402 LINE SMOOTH",
"61 290 OFFCURVE",
"139 244 OFFCURVE",
"281 244 CURVE SMOOTH"
);
}
);
width = 561;
},
{
anchors = (
{
name = abvm;
position = "{265, 830}";
},
{
name = blwm;
position = "{263, 244}";
}
);
layerId = "9C354F0E-63BE-4945-A1C1-0B7B127DD18D";
paths = (
{
closed = 1;
nodes = (
"398 244 OFFCURVE",
"446 312 OFFCURVE",
"446 402 CURVE SMOOTH",
"446 448 LINE",
"369 448 LINE",
"369 402 LINE SMOOTH",
"369 342 OFFCURVE",
"342 311 OFFCURVE",
"263 311 CURVE SMOOTH",
"184 311 OFFCURVE",
"156 342 OFFCURVE",
"156 402 CURVE SMOOTH",
"156 425 LINE",
"228 438 LINE SMOOTH",
"373 464 OFFCURVE",
"446 524 OFFCURVE",
"446 622 CURVE SMOOTH",
"446 712 OFFCURVE",
"398 780 OFFCURVE",
"263 780 CURVE SMOOTH",
"128 780 OFFCURVE",
"80 709 OFFCURVE",
"80 640 CURVE SMOOTH",
"80 580 OFFCURVE",
"118 545 OFFCURVE",
"170 545 CURVE SMOOTH",
"197 545 LINE",
"197 615 LINE",
"170 615 OFFCURVE",
"156 629 OFFCURVE",
"156 658 CURVE SMOOTH",
"156 687 OFFCURVE",
"184 713 OFFCURVE",
"263 713 CURVE SMOOTH",
"342 713 OFFCURVE",
"369 682 OFFCURVE",
"369 622 CURVE SMOOTH",
"369 560 OFFCURVE",
"321 522 OFFCURVE",
"224 505 CURVE SMOOTH",
"79 480 LINE",
"79 402 LINE SMOOTH",
"79 312 OFFCURVE",
"128 244 OFFCURVE",
"263 244 CURVE SMOOTH"
);
}
);
width = 526;
},
{
anchors = (
{
name = abvm;
position = "{249, 830}";
},
{
name = blwm;
position = "{243, 244}";
}
);
layerId = "DE962D09-1426-4D02-9608-9FE5B080C42D";
paths = (
{
closed = 1;
nodes = (
"356 244 OFFCURVE",
"399 297 OFFCURVE",
"399 402 CURVE SMOOTH",
"399 448 LINE",
"373 448 LINE",
"373 402 LINE SMOOTH",
"373 313 OFFCURVE",
"343 270 OFFCURVE",
"243 270 CURVE SMOOTH",
"157 270 OFFCURVE",
"116 311 OFFCURVE",
"116 402 CURVE SMOOTH",
"116 456 LINE",
"209 468 LINE SMOOTH",
"336 484 OFFCURVE",
"399 529 OFFCURVE",
"399 642 CURVE SMOOTH",
"399 727 OFFCURVE",
"348 780 OFFCURVE",
"243 780 CURVE SMOOTH",
"143 780 OFFCURVE",
"83 720 OFFCURVE",
"83 634 CURVE SMOOTH",
"83 585 OFFCURVE",
"116 545 OFFCURVE",
"144 545 CURVE SMOOTH",
"150 545 LINE",
"150 571 LINE",
"133 571 OFFCURVE",
"109 587 OFFCURVE",
"109 634 CURVE SMOOTH",
"109 712 OFFCURVE",
"154 754 OFFCURVE",
"243 754 CURVE SMOOTH",
"343 754 OFFCURVE",
"373 711 OFFCURVE",
"373 642 CURVE SMOOTH",
"373 547 OFFCURVE",
"320 506 OFFCURVE",
"205 493 CURVE SMOOTH",
"90 480 LINE",
"90 402 LINE SMOOTH",
"90 297 OFFCURVE",
"142 244 OFFCURVE",
"243 244 CURVE SMOOTH"
);
}
);
width = 489;
}
);
note = uni1781;
unicode = 1781;
},
{
glyphname = uni1782;
lastChange = "2016-12-05 19:32:48 +0000";
layers = (
{
anchors = (
{
name = abvm;
position = "{318, 830}";
},
{
name = blwm;
position = "{317, 244}";
}
);
guideLines = (
{
position = "{318, 586}";
}
);
layerId = "46DC2CF2-3687-4CD7-A306-8CA7072459C9";
paths = (
{
closed = 1;
nodes = (
"537 713 LINE",
"537 780 LINE",
"98 780 LINE",
"98 713 LINE"
);
},
{
closed = 1;
nodes = (
"189 244 LINE",
"189 286 LINE",
"203 341 OFFCURVE",
"224 372 OFFCURVE",
"291 372 CURVE SMOOTH",
"342 372 LINE",
"342 439 LINE",
"280 439 LINE SMOOTH",
"242 439 OFFCURVE",
"212 426 OFFCURVE",
"189 400 CURVE",
"189 487 LINE SMOOTH",
"189 547 OFFCURVE",
"232 577 OFFCURVE",
"317 577 CURVE SMOOTH",
"403 577 OFFCURVE",
"445 547 OFFCURVE",
"445 487 CURVE SMOOTH",
"445 244 LINE",
"537 244 LINE",
"537 487 LINE SMOOTH",
"537 592 OFFCURVE",
"464 645 OFFCURVE",
"317 645 CURVE SMOOTH",
"171 645 OFFCURVE",
"98 592 OFFCURVE",
"98 487 CURVE SMOOTH",
"98 244 LINE"
);
}
);
width = 635;
},
{
anchors = (
{
name = abvm;
position = "{354, 830}";
},
{
name = blwm;
position = "{354, 244}";
}
);
layerId = "51E32C1F-DEF7-419B-8D63-3B39AA64BD60";
paths = (
{
closed = 1;
nodes = (
"619 668 LINE",
"619 780 LINE",
"90 780 LINE",
"90 668 LINE"
);
},
{
closed = 1;
nodes = (
"271 244 LINE",
"271 321 LINE",
"278 332 OFFCURVE",
"296 352 OFFCURVE",
"329 352 CURVE SMOOTH",
"379 352 LINE",
"379 464 LINE",
"347 464 LINE SMOOTH",
"310 464 OFFCURVE",
"288 456 OFFCURVE",
"271 435 CURVE",
"271 460 LINE SMOOTH",
"271 495 OFFCURVE",
"302 524 OFFCURVE",
"354 524 CURVE SMOOTH",
"406 524 OFFCURVE",
"438 493 OFFCURVE",
"438 460 CURVE SMOOTH",
"438 244 LINE",
"619 244 LINE",
"619 460 LINE SMOOTH",
"619 568 OFFCURVE",
"526 636 OFFCURVE",
"354 636 CURVE SMOOTH",
"183 636 OFFCURVE",
"90 568 OFFCURVE",
"90 460 CURVE SMOOTH",
"90 244 LINE"
);
}
);
width = 709;
},
{
anchors = (
{
name = abvm;
position = "{293, 830}";
},
{
name = blwm;
position = "{295, 244}";
}
);
layerId = "6517A2BC-7974-4B53-8E65-A6A29EB8D1E7";
paths = (
{
closed = 1;
nodes = (
"481 754 LINE",
"481 780 LINE",
"110 780 LINE",
"110 754 LINE"
);
},
{
closed = 1;
nodes = (
"136 244 LINE",
"136 297 LINE",
"144 355 OFFCURVE",
"182 376 OFFCURVE",
"271 376 CURVE SMOOTH",
"322 376 LINE",
"322 402 LINE",
"260 402 LINE SMOOTH",
"208 402 OFFCURVE",
"166 392 OFFCURVE",
"136 358 CURVE",
"136 506 LINE SMOOTH",
"136 583 OFFCURVE",
"183 625 OFFCURVE",
"294 625 CURVE SMOOTH",
"407 625 OFFCURVE",
"455 586 OFFCURVE",
"455 506 CURVE SMOOTH",
"455 244 LINE",
"481 244 LINE",
"481 506 LINE SMOOTH",
"481 607 OFFCURVE",
"414 651 OFFCURVE",
"294 651 CURVE SMOOTH",
"176 651 OFFCURVE",
"110 609 OFFCURVE",
"110 506 CURVE SMOOTH",
"110 244 LINE"
);
}
);
width = 591;
},
{
anchors = (
{
name = abvm;
position = "{277, 830}";
},
{
name = blwm;
position = "{280, 244}";
}
);
layerId = "0F8E8D95-EFB6-4635-B30D-2DA8DDB35575";
paths = (
{
closed = 1;
nodes = (
"501 668 LINE",
"501 780 LINE",
"60 780 LINE",
"60 668 LINE"
);
},
{
closed = 1;
nodes = (
"211 244 LINE",
"211 321 LINE",
"217 332 OFFCURVE",
"232 352 OFFCURVE",
"259 352 CURVE SMOOTH",
"301 352 LINE",
"301 464 LINE",
"274 464 LINE SMOOTH",
"243 464 OFFCURVE",
"225 456 OFFCURVE",
"211 435 CURVE",
"211 460 LINE SMOOTH",
"211 495 OFFCURVE",
"237 525 OFFCURVE",
"280 525 CURVE SMOOTH",
"323 525 OFFCURVE",
"350 493 OFFCURVE",
"350 460 CURVE SMOOTH",
"350 244 LINE",
"501 244 LINE",
"501 460 LINE SMOOTH",
"501 568 OFFCURVE",
"423 636 OFFCURVE",
"280 636 CURVE SMOOTH",
"138 636 OFFCURVE",
"60 568 OFFCURVE",
"60 460 CURVE SMOOTH",
"60 244 LINE"
);
}
);
width = 561;
},
{
anchors = (
{
name = abvm;
position = "{262, 830}";
},
{
name = blwm;
position = "{262, 244}";
}
);
layerId = "9C354F0E-63BE-4945-A1C1-0B7B127DD18D";
paths = (
{
closed = 1;
nodes = (
"445 713 LINE",
"445 780 LINE",
"78 780 LINE",
"78 713 LINE"
);
},
{
closed = 1;
nodes = (
"155 244 LINE",
"155 286 LINE",
"167 341 OFFCURVE",
"184 372 OFFCURVE",
"240 372 CURVE SMOOTH",
"282 372 LINE",
"282 439 LINE",
"231 439 LINE SMOOTH",
"199 439 OFFCURVE",
"174 426 OFFCURVE",
"155 400 CURVE",
"155 487 LINE SMOOTH",
"155 547 OFFCURVE",
"191 577 OFFCURVE",
"262 577 CURVE SMOOTH",
"333 577 OFFCURVE",
"368 547 OFFCURVE",
"368 487 CURVE SMOOTH",
"368 244 LINE",
"445 244 LINE",
"445 487 LINE SMOOTH",
"445 592 OFFCURVE",
"384 645 OFFCURVE",
"262 645 CURVE SMOOTH",
"140 645 OFFCURVE",
"78 592 OFFCURVE",
"78 487 CURVE SMOOTH",
"78 244 LINE"
);
}
);
width = 523;
},
{
anchors = (
{
name = abvm;
position = "{243, 830}";
},
{
name = blwm;
position = "{245, 244}";
}
);
layerId = "DE962D09-1426-4D02-9608-9FE5B080C42D";
paths = (
{
closed = 1;
nodes = (
"399 754 LINE",
"399 780 LINE",
"90 780 LINE",
"90 754 LINE"
);
},
{
closed = 1;
nodes = (
"116 244 LINE",
"116 297 LINE",
"123 355 OFFCURVE",
"155 376 OFFCURVE",
"229 376 CURVE SMOOTH",
"271 376 LINE",
"271 402 LINE",
"220 402 LINE SMOOTH",
"176 402 OFFCURVE",
"141 392 OFFCURVE",
"116 358 CURVE",
"116 506 LINE SMOOTH",
"116 583 OFFCURVE",
"151 625 OFFCURVE",
"243 625 CURVE SMOOTH",
"338 625 OFFCURVE",
"373 586 OFFCURVE",
"373 506 CURVE SMOOTH",
"373 244 LINE",
"399 244 LINE",
"399 506 LINE SMOOTH",
"399 607 OFFCURVE",
"343 651 OFFCURVE",
"243 651 CURVE SMOOTH",
"145 651 OFFCURVE",
"90 609 OFFCURVE",
"90 506 CURVE SMOOTH",
"90 244 LINE"
);
}
);
width = 489;
}
);
leftMetricsKey = uni1780;
note = uni1782;
rightMetricsKey = uni1780;
unicode = 1782;
},
{
glyphname = uni1783;
lastChange = "2016-12-05 19:32:48 +0000";
layers = (
{
anchors = (
{
name = abvm;
position = "{621, 830}";
},
{
name = blwm;
position = "{626, 244}";
}
);
components = (
{
alignment = -1;
name = topout.right;
transform = "{1, 0, 0, 1, 628, 194}";
},
{
alignment = -1;
name = topout.left;
transform = "{1, 0, 0, 1, 323, 194}";
}
);
guideLines = (
{
position = "{1056, 586}";
}
);
layerId = "46DC2CF2-3687-4CD7-A306-8CA7072459C9";
paths = (
{
closed = 1;
nodes = (
"98 297 OFFCURVE",
"167 244 OFFCURVE",
"305 244 CURVE SMOOTH",
"378 244 OFFCURVE",
"432 260 OFFCURVE",
"467 292 CURVE",
"501 260 OFFCURVE",
"554 244 OFFCURVE",
"625 244 CURVE SMOOTH",
"762 244 OFFCURVE",
"830 297 OFFCURVE",
"830 402 CURVE SMOOTH",
"830 573 LINE",
"738 573 LINE",
"738 402 LINE SMOOTH",
"738 342 OFFCURVE",
"701 311 OFFCURVE",
"625 311 CURVE SMOOTH",
"550 311 OFFCURVE",
"513 342 OFFCURVE",
"513 402 CURVE SMOOTH",
"513 566 LINE",
"421 566 LINE",
"421 402 LINE SMOOTH",
"421 342 OFFCURVE",
"382 311 OFFCURVE",
"305 311 CURVE SMOOTH",
"228 311 OFFCURVE",
"190 342 OFFCURVE",
"190 402 CURVE SMOOTH",
"190 730 LINE SMOOTH",
"190 763 OFFCURVE",
"165 780 OFFCURVE",
"116 780 CURVE SMOOTH",
"29 780 LINE",
"29 713 LINE",
"75 713 OFFCURVE",
"98 704 OFFCURVE",
"98 680 CURVE SMOOTH",
"98 402 LINE SMOOTH"
);
}
);
width = 928;
},
{
anchors = (
{
name = abvm;
position = "{668, 830}";
},
{
name = blwm;
position = "{666, 244}";
}
);
components = (
{
alignment = -1;
name = topout.right;
transform = "{1, 0, 0, 1, 672, 194}";
},
{
alignment = -1;
name = topout.left;
transform = "{1, 0, 0, 1, 364, 194}";
}
);
guideLines = (
{
angle = 135.735;
position = "{745, 819}";
},
{
position = "{968, 736}";
showMeasurement = 1;
}
);
layerId = "51E32C1F-DEF7-419B-8D63-3B39AA64BD60";
paths = (
{
closed = 1;
nodes = (
"94 297 OFFCURVE",
"178 244 OFFCURVE",
"346 244 CURVE SMOOTH",
"419 244 OFFCURVE",
"473 260 OFFCURVE",
"508 292 CURVE",
"542 260 OFFCURVE",
"595 244 OFFCURVE",
"666 244 CURVE SMOOTH",
"831 244 OFFCURVE",
"917 297 OFFCURVE",
"917 402 CURVE SMOOTH",
"917 565 LINE",
"736 565 LINE",
"736 407 LINE SMOOTH",
"736 376 OFFCURVE",
"713 356 OFFCURVE",
"666 356 CURVE SMOOTH",
"620 356 OFFCURVE",
"598 376 OFFCURVE",
"598 407 CURVE SMOOTH",
"598 565 LINE",
"417 565 LINE",
"417 407 LINE SMOOTH",
"417 376 OFFCURVE",
"393 356 OFFCURVE",
"346 356 CURVE SMOOTH",
"299 356 OFFCURVE",
"275 376 OFFCURVE",
"275 407 CURVE SMOOTH",
"275 730 LINE SMOOTH",
"275 763 OFFCURVE",
"251 780 OFFCURVE",
"201 780 CURVE SMOOTH",
"60 780 LINE",
"60 668 LINE",
"76 668 OFFCURVE",
"94 660 OFFCURVE",
"94 645 CURVE SMOOTH",
"94 402 LINE SMOOTH"
);
}
);
width = 1009;
},
{
anchors = (
{
name = abvm;
position = "{604, 830}";
},
{
name = blwm;
position = "{636, 244}";
}
);
components = (
{
alignment = -1;
name = topout.right;
transform = "{1, 0, 0, 1, 669, 194}";
},
{
alignment = -1;
name = topout.left;
transform = "{1, 0, 0, 1, 334, 194}";
}
);
layerId = "6517A2BC-7974-4B53-8E65-A6A29EB8D1E7";
paths = (
{
closed = 1;
nodes = (
"142 297 OFFCURVE",
"209 244 OFFCURVE",
"316 244 CURVE SMOOTH",
"389 244 OFFCURVE",
"443 260 OFFCURVE",
"478 292 CURVE",
"512 260 OFFCURVE",
"560 244 OFFCURVE",
"631 244 CURVE SMOOTH",
"741 244 OFFCURVE",
"808 297 OFFCURVE",
"808 402 CURVE SMOOTH",
"808 578 LINE",
"782 578 LINE",
"782 402 LINE SMOOTH",
"782 319 OFFCURVE",
"733 270 OFFCURVE",
"636 270 CURVE SMOOTH",
"546 270 OFFCURVE",
"491 299 OFFCURVE",
"491 329 CURVE SMOOTH",
"491 580 LINE",
"465 580 LINE",
"465 329 LINE SMOOTH",
"465 299 OFFCURVE",
"408 270 OFFCURVE",
"316 270 CURVE SMOOTH",
"219 270 OFFCURVE",
"168 321 OFFCURVE",
"168 402 CURVE SMOOTH",
"168 724 LINE SMOOTH",
"168 751 OFFCURVE",
"154 780 OFFCURVE",
"111 780 CURVE SMOOTH",
"40 780 LINE",
"40 754 LINE",
"123 754 OFFCURVE",
"142 754 OFFCURVE",
"142 708 CURVE SMOOTH",
"142 402 LINE SMOOTH"
);
}
);
width = 917;
},
{
anchors = (
{
name = abvm;
position = "{551, 830}";
},
{
name = blwm;
position = "{567, 244}";
}
);
components = (
{
alignment = -1;
name = topout.right;
transform = "{1, 0, 0, 1, 502, 194}";
},
{
alignment = -1;
name = topout.left;
transform = "{1, 0, 0, 1, 260, 194}";
}
);
guideLines = (
{
angle = 135.735;
position = "{633, 819}";
}
);
layerId = "0F8E8D95-EFB6-4635-B30D-2DA8DDB35575";
paths = (
{
closed = 1;
nodes = (
"70 297 OFFCURVE",
"140 244 OFFCURVE",
"280 244 CURVE SMOOTH",
"341 244 OFFCURVE",
"386 260 OFFCURVE",
"415 292 CURVE",
"443 260 OFFCURVE",
"488 244 OFFCURVE",
"547 244 CURVE SMOOTH",
"684 244 OFFCURVE",
"756 297 OFFCURVE",
"756 402 CURVE SMOOTH",
"756 565 LINE",
"605 565 LINE",
"605 406 LINE SMOOTH",
"605 375 OFFCURVE",
"586 356 OFFCURVE",
"547 356 CURVE SMOOTH",
"508 356 OFFCURVE",
"490 375 OFFCURVE",
"490 406 CURVE SMOOTH",
"490 565 LINE",
"339 565 LINE",
"339 406 LINE SMOOTH",
"339 375 OFFCURVE",
"319 356 OFFCURVE",
"280 356 CURVE SMOOTH",
"241 356 OFFCURVE",
"221 375 OFFCURVE",
"221 406 CURVE SMOOTH",
"221 730 LINE SMOOTH",
"221 763 OFFCURVE",
"201 780 OFFCURVE",
"159 780 CURVE SMOOTH",
"50 780 LINE",
"50 668 LINE",
"63 668 OFFCURVE",
"70 662 OFFCURVE",
"70 647 CURVE SMOOTH",
"70 402 LINE SMOOTH"
);
}
);
width = 824;
},
{
anchors = (
{
name = abvm;
position = "{512, 830}";
},
{
name = blwm;
position = "{526, 244}";
}
);
components = (
{
alignment = -1;
name = topout.right;
transform = "{1, 0, 0, 1, 523, 194}";
},
{
alignment = -1;
name = topout.left;
transform = "{1, 0, 0, 1, 280, 194}";
}
);
layerId = "9C354F0E-63BE-4945-A1C1-0B7B127DD18D";
paths = (
{
closed = 1;
nodes = (
"87 297 OFFCURVE",
"144 244 OFFCURVE",
"259 244 CURVE SMOOTH",
"320 244 OFFCURVE",
"365 260 OFFCURVE",
"394 292 CURVE",
"422 260 OFFCURVE",
"467 244 OFFCURVE",
"526 244 CURVE SMOOTH",
"640 244 OFFCURVE",
"697 297 OFFCURVE",
"697 402 CURVE SMOOTH",
"697 573 LINE",
"620 573 LINE",
"620 402 LINE SMOOTH",
"620 342 OFFCURVE",
"589 311 OFFCURVE",
"526 311 CURVE SMOOTH",
"463 311 OFFCURVE",
"433 342 OFFCURVE",
"433 402 CURVE SMOOTH",
"433 566 LINE",
"356 566 LINE",
"356 402 LINE SMOOTH",
"356 342 OFFCURVE",
"323 311 OFFCURVE",
"259 311 CURVE SMOOTH",
"195 311 OFFCURVE",
"164 342 OFFCURVE",
"164 402 CURVE SMOOTH",
"164 730 LINE SMOOTH",
"164 763 OFFCURVE",
"142 780 OFFCURVE",
"102 780 CURVE SMOOTH",
"29 780 LINE",
"29 713 LINE",
"67 713 OFFCURVE",
"87 703 OFFCURVE",
"87 679 CURVE SMOOTH",
"87 402 LINE SMOOTH"
);
}
);
width = 786;
},
{
anchors = (
{
name = abvm;
position = "{528, 830}";
},
{
name = blwm;
position = "{557, 244}";
}
);
components = (
{
alignment = -1;
name = topout.right;
transform = "{1, 0, 0, 1, 583, 194}";
},
{
alignment = -1;
name = topout.left;
transform = "{1, 0, 0, 1, 312, 194}";
}
);
layerId = "DE962D09-1426-4D02-9608-9FE5B080C42D";
paths = (
{
closed = 1;
nodes = (
"145 297 OFFCURVE",
"193 244 OFFCURVE",
"290 244 CURVE SMOOTH",
"351 244 OFFCURVE",
"397 260 OFFCURVE",
"425 292 CURVE",
"449 261 OFFCURVE",
"498 244 OFFCURVE",
"557 244 CURVE SMOOTH",
"653 244 OFFCURVE",
"700 297 OFFCURVE",
"700 402 CURVE SMOOTH",
"700 571 LINE",
"674 571 LINE",
"674 402 LINE SMOOTH",
"674 319 OFFCURVE",
"638 270 OFFCURVE",
"557 270 CURVE SMOOTH",
"485 270 OFFCURVE",
"438 302 OFFCURVE",
"438 332 CURVE SMOOTH",
"438 567 LINE",
"412 567 LINE",
"412 332 LINE SMOOTH",
"412 302 OFFCURVE",
"362 270 OFFCURVE",
"290 270 CURVE SMOOTH",
"209 270 OFFCURVE",
"171 321 OFFCURVE",
"171 402 CURVE SMOOTH",
"171 721 LINE SMOOTH",
"171 754 OFFCURVE",
"149 780 OFFCURVE",
"106 780 CURVE SMOOTH",
"60 780 LINE",
"60 754 LINE",
"129 754 OFFCURVE",
"145 746 OFFCURVE",
"145 710 CURVE SMOOTH",
"145 402 LINE SMOOTH"
);
}
);
width = 806;
}
);
note = uni1783;
rightMetricsKey = uni1794;
unicode = 1783;
},
{
glyphname = uni1784;
lastChange = "2016-12-05 19:32:48 +0000";
layers = (
{
anchors = (
{
name = abvm;
position = "{290, 850}";
},
{
name = blwm;
position = "{318, 244}";
}
);
guideLines = (
{
position = "{9, 208}";
showMeasurement = 1;
},
{
angle = 222.207;
position = "{294, 81}";
},
{
angle = 137.592;
position = "{359, 66}";
}
);
layerId = "46DC2CF2-3687-4CD7-A306-8CA7072459C9";
paths = (
{
closed = 1;
nodes = (
"204 244 LINE",
"318 347 LINE",
"431 244 LINE",
"537 244 LINE",
"537 555 LINE SMOOTH",
"537 622 OFFCURVE",
"513 651 OFFCURVE",
"460 676 CURVE",
"478 693 OFFCURVE",
"484 710 OFFCURVE",
"484 734 CURVE SMOOTH",
"484 777 OFFCURVE",
"453 813 OFFCURVE",
"394 813 CURVE SMOOTH",
"332 813 OFFCURVE",
"304 773 OFFCURVE",
"304 737 CURVE SMOOTH",
"304 711 OFFCURVE",
"314 690 OFFCURVE",
"334 676 CURVE",
"302 667 OFFCURVE",
"283 664 OFFCURVE",
"259 664 CURVE SMOOTH",
"213 664 OFFCURVE",
"189 689 OFFCURVE",
"189 721 CURVE SMOOTH",
"189 810 LINE",
"98 810 LINE",
"98 721 LINE SMOOTH",
"98 637 OFFCURVE",
"170 597 OFFCURVE",
"259 597 CURVE SMOOTH",
"306 597 OFFCURVE",
"352 613 OFFCURVE",
"398 629 CURVE",
"425 613 OFFCURVE",
"445 593 OFFCURVE",
"445 553 CURVE SMOOTH",
"445 326 LINE",
"318 442 LINE",
"189 325 LINE",
"189 495 LINE SMOOTH",
"189 542 OFFCURVE",
"167 566 OFFCURVE",
"122 566 CURVE SMOOTH",
"49 566 LINE",
"49 499 LINE",
"82 499 OFFCURVE",
"97 492 OFFCURVE",
"97 471 CURVE SMOOTH",
"97 244 LINE"
);
}
);
width = 635;
},
{
anchors = (
{
name = abvm;
position = "{341, 830}";
},
{
name = blwm;
position = "{363, 244}";
}
);
guideLines = (
{
angle = 137.121;
position = "{443, 395}";
},
{
angle = 222.879;
position = "{283, 391}";
},
{
angle = 145.146;
position = "{459, 402}";
},
{
angle = 214.616;
position = "{267, 399}";
}
);
layerId = "51E32C1F-DEF7-419B-8D63-3B39AA64BD60";
paths = (
{
closed = 1;
nodes = (
"253 244 LINE",
"365 322 LINE",
"477 244 LINE",
"630 244 LINE",
"630 507 LINE SMOOTH",
"630 574 OFFCURVE",
"620 599 OFFCURVE",
"561 638 CURVE",
"579 660 OFFCURVE",
"590 678 OFFCURVE",
"590 720 CURVE SMOOTH",
"590 768 OFFCURVE",
"549 826 OFFCURVE",
"467 826 CURVE SMOOTH",
"377 826 OFFCURVE",
"339 771 OFFCURVE",
"339 719 CURVE SMOOTH",
"339 687 OFFCURVE",
"351 670 OFFCURVE",
"363 653 CURVE",
"340 644 OFFCURVE",
"329 641 OFFCURVE",
"319 641 CURVE SMOOTH",
"292 641 OFFCURVE",
"279 659 OFFCURVE",
"279 687 CURVE SMOOTH",
"279 804 LINE",
"109 804 LINE",
"109 713 LINE SMOOTH",
"109 584 OFFCURVE",
"210 549 OFFCURVE",
"304 549 CURVE SMOOTH",
"375 549 OFFCURVE",
"403 562 OFFCURVE",
"426 570 CURVE",
"445 552 OFFCURVE",
"449 527 OFFCURVE",
"449 488 CURVE SMOOTH",
"449 409 LINE",
"365 467 LINE",
"281 408 LINE",
"281 439 LINE SMOOTH",
"281 507 OFFCURVE",
"262 529 OFFCURVE",
"184 529 CURVE SMOOTH",
"60 529 LINE",
"60 417 LINE",
"87 417 OFFCURVE",
"100 410 OFFCURVE",
"100 392 CURVE SMOOTH",
"100 244 LINE"
);
}
);
width = 720;
},
{
anchors = (
{
name = abvm;
position = "{267, 856}";
},
{
name = blwm;
position = "{295, 244}";
}
);
guideLines = (
{
angle = 221.009;
position = "{232, 323}";
},
{
angle = 138.865;
position = "{360, 321}";
}
);
layerId = "6517A2BC-7974-4B53-8E65-A6A29EB8D1E7";
paths = (
{
closed = 1;
nodes = (
"141 244 LINE",
"295 378 LINE",
"448 244 LINE",
"479 244 LINE",
"479 555 LINE SMOOTH",
"479 596 OFFCURVE",
"464 647 OFFCURVE",
"403 675 CURVE",
"412 684 OFFCURVE",
"415 692 OFFCURVE",
"415 704 CURVE SMOOTH",
"415 725 OFFCURVE",
"398 740 OFFCURVE",
"378 740 CURVE SMOOTH",
"354 740 OFFCURVE",
"338 721 OFFCURVE",
"338 703 CURVE SMOOTH",
"338 686 OFFCURVE",
"345 677 OFFCURVE",
"355 669 CURVE",
"330 650 OFFCURVE",
"275 643 OFFCURVE",
"242 643 CURVE SMOOTH",
"185 643 OFFCURVE",
"134 682 OFFCURVE",
"134 736 CURVE SMOOTH",
"134 816 LINE",
"108 816 LINE",
"108 736 LINE SMOOTH",
"108 658 OFFCURVE",
"178 617 OFFCURVE",
"242 617 CURVE SMOOTH",
"285 617 OFFCURVE",
"343 631 OFFCURVE",
"383 657 CURVE",
"415 645 OFFCURVE",
"453 613 OFFCURVE",
"453 549 CURVE SMOOTH",
"453 275 LINE",
"295 413 LINE",
"134 273 LINE",
"134 532 LINE SMOOTH",
"134 553 OFFCURVE",
"126 560 OFFCURVE",
"99 560 CURVE SMOOTH",
"60 560 LINE",
"60 534 LINE",
"97 534 OFFCURVE",
"108 535 OFFCURVE",
"108 522 CURVE SMOOTH",
"108 244 LINE"
);
}
);
width = 589;
},
{
anchors = (
{
name = abvm;
position = "{272, 830}";
},
{
name = blwm;
position = "{303, 244}";
}
);
guideLines = (
{
position = "{205, 467}";
showMeasurement = 1;
},
{
angle = 140.315;
position = "{373, 409}";
},
{
angle = 219.685;
position = "{230, 406}";
}
);
layerId = "0F8E8D95-EFB6-4635-B30D-2DA8DDB35575";
paths = (
{
closed = 1;
nodes = (
"210 244 LINE",
"304 322 LINE",
"397 244 LINE",
"525 244 LINE",
"525 497 LINE SMOOTH",
"525 564 OFFCURVE",
"516 589 OFFCURVE",
"467 628 CURVE",
"482 650 OFFCURVE",
"491 668 OFFCURVE",
"491 710 CURVE SMOOTH",
"491 758 OFFCURVE",
"457 816 OFFCURVE",
"389 816 CURVE SMOOTH",
"314 816 OFFCURVE",
"282 761 OFFCURVE",
"282 709 CURVE SMOOTH",
"282 677 OFFCURVE",
"292 660 OFFCURVE",
"302 643 CURVE",
"283 634 OFFCURVE",
"274 631 OFFCURVE",
"265 631 CURVE SMOOTH",
"243 631 OFFCURVE",
"232 649 OFFCURVE",
"232 677 CURVE SMOOTH",
"232 804 LINE",
"90 804 LINE",
"90 703 LINE SMOOTH",
"90 574 OFFCURVE",
"175 539 OFFCURVE",
"253 539 CURVE SMOOTH",
"310 539 OFFCURVE",
"335 552 OFFCURVE",
"355 560 CURVE",
"370 542 OFFCURVE",
"374 517 OFFCURVE",
"374 478 CURVE SMOOTH",
"374 409 LINE",
"304 467 LINE",
"234 408 LINE",
"234 419 LINE SMOOTH",
"234 487 OFFCURVE",
"220 509 OFFCURVE",
"153 509 CURVE SMOOTH",
"50 509 LINE",
"50 397 LINE",
"72 397 OFFCURVE",
"83 390 OFFCURVE",
"83 372 CURVE SMOOTH",
"83 244 LINE"
);
}
);
width = 585;
},
{
anchors = (
{
name = abvm;
position = "{231, 850}";
},
{
name = blwm;
position = "{264, 244}";
}
);
guideLines = (
{
angle = 132.384;
position = "{343, 351}";
},
{
angle = 227.616;
position = "{176, 350}";
}
);
layerId = "9C354F0E-63BE-4945-A1C1-0B7B127DD18D";
paths = (
{
closed = 1;
nodes = (
"160 244 LINE",
"255 347 LINE",
"349 244 LINE",
"438 244 LINE",
"438 555 LINE SMOOTH",
"438 622 OFFCURVE",
"418 651 OFFCURVE",
"374 676 CURVE",
"389 693 OFFCURVE",
"397 709 OFFCURVE",
"397 735 CURVE SMOOTH",
"397 774 OFFCURVE",
"372 808 OFFCURVE",
"321 808 CURVE SMOOTH",
"269 808 OFFCURVE",
"243 775 OFFCURVE",
"243 736 CURVE SMOOTH",
"243 710 OFFCURVE",
"252 690 OFFCURVE",
"269 676 CURVE",
"242 667 OFFCURVE",
"226 665 OFFCURVE",
"206 665 CURVE SMOOTH",
"168 665 OFFCURVE",
"148 689 OFFCURVE",
"148 721 CURVE SMOOTH",
"148 810 LINE",
"72 810 LINE",
"72 721 LINE SMOOTH",
"72 637 OFFCURVE",
"132 597 OFFCURVE",
"206 597 CURVE SMOOTH",
"246 597 OFFCURVE",
"284 613 OFFCURVE",
"322 629 CURVE",
"344 613 OFFCURVE",
"361 593 OFFCURVE",
"361 553 CURVE SMOOTH",
"361 326 LINE",
"255 442 LINE",
"148 325 LINE",
"148 495 LINE SMOOTH",
"148 542 OFFCURVE",
"126 566 OFFCURVE",
"84 566 CURVE SMOOTH",
"31 566 LINE",
"31 499 LINE",
"59 499 OFFCURVE",
"71 492 OFFCURVE",
"71 471 CURVE SMOOTH",
"71 244 LINE"
);
}
);
width = 516;
},
{
anchors = (
{
name = abvm;
position = "{231, 856}";
},
{
name = blwm;
position = "{255, 244}";
}
);
guideLines = (
{
angle = 227.22;
position = "{179, 332}";
},
{
angle = 180;
position = "{255, 244}";
},
{
angle = -47.4701;
position = "{336, 327}";
}
);
layerId = "DE962D09-1426-4D02-9608-9FE5B080C42D";
paths = (
{
closed = 1;
nodes = (
"133 244 LINE",
"255 377 LINE",
"377 244 LINE",
"410 244 LINE",
"410 565 LINE SMOOTH",
"410 606 OFFCURVE",
"395 655 OFFCURVE",
"334 685 CURVE",
"342 694 OFFCURVE",
"345 699 OFFCURVE",
"345 713 CURVE SMOOTH",
"345 731 OFFCURVE",
"330 745 OFFCURVE",
"310 745 CURVE SMOOTH",
"290 745 OFFCURVE",
"277 729 OFFCURVE",
"277 711 CURVE SMOOTH",
"277 695 OFFCURVE",
"286 685 OFFCURVE",
"292 679 CURVE",
"267 660 OFFCURVE",
"242 653 OFFCURVE",
"204 653 CURVE SMOOTH",
"154 653 OFFCURVE",
"115 691 OFFCURVE",
"115 746 CURVE SMOOTH",
"115 816 LINE",
"89 816 LINE",
"89 737 LINE SMOOTH",
"89 673 OFFCURVE",
"143 627 OFFCURVE",
"202 627 CURVE SMOOTH",
"238 627 OFFCURVE",
"274 639 OFFCURVE",
"314 667 CURVE",
"346 655 OFFCURVE",
"384 623 OFFCURVE",
"384 559 CURVE SMOOTH",
"384 275 LINE",
"255 415 LINE",
"125 273 LINE",
"125 542 LINE SMOOTH",
"125 563 OFFCURVE",
"117 570 OFFCURVE",
"90 570 CURVE SMOOTH",
"60 570 LINE",
"60 544 LINE",
"97 544 OFFCURVE",
"99 542 OFFCURVE",
"99 525 CURVE SMOOTH",
"99 244 LINE"
);
}
);
width = 500;
}
);
note = uni1784;
rightMetricsKey = uni1780;
unicode = 1784;
},
{
glyphname = uni1785;
lastChange = "2016-12-05 19:32:48 +0000";
layers = (
{
anchors = (
{
name = abvm;
position = "{286, 830}";
},
{
name = blwm;
position = "{297, 244}";
}
);
components = (
{
alignment = -1;
name = looptop.left;
transform = "{1, 0, 0, 1, -20, 204}";
}
);
guideLines = (
{
position = "{255, 400}";
}
);
layerId = "46DC2CF2-3687-4CD7-A306-8CA7072459C9";
paths = (
{
closed = 1;
nodes = (
"425 415 LINE",
"425 402 LINE SMOOTH",
"425 342 OFFCURVE",
"383 311 OFFCURVE",
"297 311 CURVE SMOOTH",
"212 311 OFFCURVE",
"170 342 OFFCURVE",
"170 402 CURVE SMOOTH",
"170 594 LINE",
"117 654 OFFCURVE",
"96 677 OFFCURVE",
"96 694 CURVE SMOOTH",
"96 697 OFFCURVE",
"100 704 OFFCURVE",
"108 713 CURVE",
"517 713 LINE",
"517 780 LINE",
"106 780 LINE",
"36 687 OFFCURVE",
"29 687 OFFCURVE",
"29 660 CURVE SMOOTH",
"29 643 OFFCURVE",
"43 622 OFFCURVE",
"78 578 CURVE",
"78 402 LINE SMOOTH",
"78 297 OFFCURVE",
"151 244 OFFCURVE",
"297 244 CURVE SMOOTH",
"444 244 OFFCURVE",
"517 297 OFFCURVE",
"517 402 CURVE SMOOTH",
"517 415 LINE"
);
}
);
width = 615;
},
{
anchors = (
{
name = abvm;
position = "{355, 830}";
},
{
name = blwm;
position = "{367, 244}";
}
);
components = (
{
alignment = -1;
name = looptop.left;
transform = "{1, 0, 0, 1, 46, 194}";
}
);
guideLines = (
{
position = "{321, 618}";
}
);
layerId = "51E32C1F-DEF7-419B-8D63-3B39AA64BD60";
paths = (
{
closed = 1;
nodes = (
"447 400 LINE",
"447 389 LINE SMOOTH",
"447 373 OFFCURVE",
"422 356 OFFCURVE",
"363 356 CURVE SMOOTH",
"304 356 OFFCURVE",
"280 373 OFFCURVE",
"280 389 CURVE SMOOTH",
"280 568 LINE",
"199 615 OFFCURVE",
"177 644 OFFCURVE",
"177 651 CURVE SMOOTH",
"177 656 OFFCURVE",
"180 663 OFFCURVE",
"189 668 CURVE",
"628 668 LINE",
"628 780 LINE",
"136 780 LINE",
"74 710 OFFCURVE",
"50 692 OFFCURVE",
"50 660 CURVE SMOOTH",
"50 646 OFFCURVE",
"76 610 OFFCURVE",
"99 578 CURVE",
"99 392 LINE SMOOTH",
"99 297 OFFCURVE",
"187 244 OFFCURVE",
"363 244 CURVE SMOOTH",
"538 244 OFFCURVE",
"628 297 OFFCURVE",
"628 392 CURVE SMOOTH",
"628 400 LINE"
);
}
);
width = 718;
},
{
anchors = (
{
name = abvm;
position = "{267, 830}";
},
{
name = blwm;
position = "{274, 244}";
}
);
components = (
{
alignment = -1;
name = looptop.left;
transform = "{1, 0, 0, 1, -41, 194}";
}
);
guideLines = (
{
angle = 270;
position = "{459, 813}";
},
{
position = "{234, 683}";
},
{
position = "{255, 644}";
}
);
layerId = "6517A2BC-7974-4B53-8E65-A6A29EB8D1E7";
paths = (
{
closed = 1;
nodes = (
"437 458 LINE",
"437 402 LINE SMOOTH",
"437 319 OFFCURVE",
"379 270 OFFCURVE",
"278 270 CURVE SMOOTH",
"175 270 OFFCURVE",
"116 320 OFFCURVE",
"116 402 CURVE SMOOTH",
"116 594 LINE",
"83 639 OFFCURVE",
"67 652 OFFCURVE",
"67 672 CURVE SMOOTH",
"67 701 OFFCURVE",
"98 737 OFFCURVE",
"114 754 CURVE",
"463 754 LINE",
"463 780 LINE",
"112 780 LINE",
"58 715 OFFCURVE",
"40 685 OFFCURVE",
"40 660 CURVE SMOOTH",
"40 645 OFFCURVE",
"60 630 OFFCURVE",
"90 578 CURVE",
"90 402 LINE SMOOTH",
"90 306 OFFCURVE",
"154 244 OFFCURVE",
"278 244 CURVE SMOOTH",
"401 244 OFFCURVE",
"463 307 OFFCURVE",
"463 402 CURVE SMOOTH",
"463 458 LINE"
);
}
);
width = 573;
},
{
anchors = (
{
name = abvm;
position = "{299, 830}";
},
{
name = blwm;
position = "{310, 244}";
}
);
components = (
{
alignment = -1;
name = looptop.left;
transform = "{1, 0, 0, 1, 6, 194}";
}
);
guideLines = (
{
position = "{281, 619}";
}
);
layerId = "0F8E8D95-EFB6-4635-B30D-2DA8DDB35575";
paths = (
{
closed = 1;
nodes = (
"377 398 LINE",
"377 389 LINE SMOOTH",
"377 372 OFFCURVE",
"356 356 OFFCURVE",
"307 356 CURVE SMOOTH",
"258 356 OFFCURVE",
"238 372 OFFCURVE",
"238 389 CURVE SMOOTH",
"238 568 LINE",
"170 615 OFFCURVE",
"152 644 OFFCURVE",
"152 651 CURVE SMOOTH",
"152 656 OFFCURVE",
"154 663 OFFCURVE",
"162 668 CURVE",
"528 668 LINE",
"528 780 LINE",
"118 780 LINE",
"64 711 OFFCURVE",
"46 689 OFFCURVE",
"46 663 CURVE SMOOTH",
"46 647 OFFCURVE",
"68 610 OFFCURVE",
"87 578 CURVE",
"87 392 LINE SMOOTH",
"87 297 OFFCURVE",
"160 244 OFFCURVE",
"307 244 CURVE SMOOTH",
"453 244 OFFCURVE",
"528 297 OFFCURVE",
"528 392 CURVE SMOOTH",
"528 398 LINE"
);
}
);
width = 588;
},
{
anchors = (
{
name = abvm;
position = "{256, 830}";
},
{
name = blwm;
position = "{263, 244}";
}
);
components = (
{
alignment = -1;
name = looptop.left;
transform = "{1, 0, 0, 1, 1, 194}";
}
);
guideLines = (
{
position = "{231, 644}";
}
);
layerId = "9C354F0E-63BE-4945-A1C1-0B7B127DD18D";
paths = (
{
closed = 1;
nodes = (
"369 415 LINE",
"369 402 LINE SMOOTH",
"369 342 OFFCURVE",
"335 311 OFFCURVE",
"263 311 CURVE SMOOTH",
"193 311 OFFCURVE",
"158 342 OFFCURVE",
"158 402 CURVE SMOOTH",
"158 594 LINE",
"114 654 OFFCURVE",
"96 679 OFFCURVE",
"96 694 CURVE SMOOTH",
"96 697 OFFCURVE",
"99 704 OFFCURVE",
"106 713 CURVE",
"447 713 LINE",
"447 780 LINE",
"104 780 LINE",
"46 687 OFFCURVE",
"40 687 OFFCURVE",
"40 660 CURVE SMOOTH",
"40 643 OFFCURVE",
"52 622 OFFCURVE",
"81 578 CURVE",
"81 402 LINE SMOOTH",
"81 297 OFFCURVE",
"142 244 OFFCURVE",
"263 244 CURVE SMOOTH",
"386 244 OFFCURVE",
"446 297 OFFCURVE",
"446 402 CURVE SMOOTH",
"446 415 LINE"
);
}
);
width = 525;
},
{
anchors = (
{
name = abvm;
position = "{254, 830}";
},
{
name = blwm;
position = "{266, 244}";
}
);
components = (
{
alignment = -1;
name = looptop.left;
transform = "{1, 0, 0, 1, 12, 194}";
}
);
guideLines = (
{
angle = 270;
position = "{442, 813}";
},
{
position = "{272, 638}";
},
{
angle = 180;
position = "{265, 383}";
}
);
layerId = "DE962D09-1426-4D02-9608-9FE5B080C42D";
paths = (
{
closed = 1;
nodes = (
"401 457 LINE",
"401 403 LINE SMOOTH",
"401 313 OFFCURVE",
"343 270 OFFCURVE",
"265 270 CURVE SMOOTH",
"163 270 OFFCURVE",
"128 313 OFFCURVE",
"128 403 CURVE SMOOTH",
"128 588 LINE",
"98 630 OFFCURVE",
"83 651 OFFCURVE",
"83 670 CURVE SMOOTH",
"83 698 OFFCURVE",
"114 737 OFFCURVE",
"128 754 CURVE",
"425 754 LINE",
"425 780 LINE",
"122 780 LINE",
"77 715 OFFCURVE",
"60 687 OFFCURVE",
"60 664 CURVE SMOOTH",
"60 648 OFFCURVE",
"71 630 OFFCURVE",
"102 578 CURVE",
"102 402 LINE SMOOTH",
"102 297 OFFCURVE",
"151 244 OFFCURVE",
"265 244 CURVE SMOOTH",
"357 244 OFFCURVE",
"427 297 OFFCURVE",
"427 402 CURVE SMOOTH",
"427 457 LINE"
);
}
);
width = 517;
}
);
leftMetricsKey = uni1794;
note = uni1785;
rightMetricsKey = uni1780;
unicode = 1785;
},
{
glyphname = uni1786;
lastChange = "2016-12-05 19:32:48 +0000";
layers = (
{
anchors = (
{
name = abvm;
position = "{302, 830}";
},
{
name = blwm;
position = "{304, 244}";
}
);
components = (
{
alignment = -1;
name = looptop.left;
transform = "{1, 0, 0, 1, 0, 204}";
}
);
layerId = "46DC2CF2-3687-4CD7-A306-8CA7072459C9";
paths = (
{
closed = 1;
nodes = (
"445 417 LINE",
"445 402 LINE SMOOTH",
"445 362 OFFCURVE",
"439 311 OFFCURVE",
"402 311 CURVE SMOOTH",
"369 311 OFFCURVE",
"343 357 OFFCURVE",
"318 384 CURVE SMOOTH",
"286 418 OFFCURVE",
"263 433 OFFCURVE",
"190 439 CURVE",
"190 594 LINE",
"137 654 OFFCURVE",
"116 677 OFFCURVE",
"116 694 CURVE SMOOTH",
"116 697 OFFCURVE",
"120 704 OFFCURVE",
"128 713 CURVE",
"537 713 LINE",
"537 780 LINE",
"126 780 LINE",
"56 687 OFFCURVE",
"49 687 OFFCURVE",
"49 660 CURVE SMOOTH",
"49 643 OFFCURVE",
"63 622 OFFCURVE",
"98 578 CURVE",
"98 439 LINE",
"65 437 OFFCURVE",
"49 418 OFFCURVE",
"49 381 CURVE SMOOTH",
"49 343 OFFCURVE",
"65 297 OFFCURVE",
"98 244 CURVE",
"190 244 LINE",
"190 372 LINE",
"243 367 OFFCURVE",
"253 349 OFFCURVE",
"294 305 CURVE SMOOTH",
"326 271 OFFCURVE",
"360 244 OFFCURVE",
"404 244 CURVE SMOOTH",
"486 244 OFFCURVE",
"537 308 OFFCURVE",
"537 402 CURVE SMOOTH",
"537 417 LINE"
);
}
);
width = 635;
},
{
anchors = (
{
name = abvm;
position = "{350, 830}";
},
{
name = blwm;
position = "{361, 244}";
}
);
components = (
{
alignment = -1;
name = looptop.left;
transform = "{1, 0, 0, 1, 56, 194}";
}
);
layerId = "51E32C1F-DEF7-419B-8D63-3B39AA64BD60";
paths = (
{
closed = 1;
nodes = (
"457 428 LINE",
"457 404 LINE SMOOTH",
"457 384 OFFCURVE",
"445 376 OFFCURVE",
"427 376 CURVE SMOOTH",
"408 376 OFFCURVE",
"394 390 OFFCURVE",
"369 405 CURVE SMOOTH",
"344 420 OFFCURVE",
"322 427 OFFCURVE",
"290 432 CURVE",
"290 568 LINE",
"209 615 OFFCURVE",
"187 644 OFFCURVE",
"187 651 CURVE SMOOTH",
"187 656 OFFCURVE",
"190 663 OFFCURVE",
"199 668 CURVE",
"638 668 LINE",
"638 780 LINE",
"146 780 LINE",
"82 711 OFFCURVE",
"60 687 OFFCURVE",
"60 662 CURVE SMOOTH",
"60 646 OFFCURVE",
"86 610 OFFCURVE",
"109 578 CURVE",
"109 435 LINE",
"76 433 OFFCURVE",
"60 415 OFFCURVE",
"60 376 CURVE SMOOTH",
"60 339 OFFCURVE",
"76 298 OFFCURVE",
"109 244 CURVE",
"290 244 LINE",
"290 311 LINE",
"307 310 OFFCURVE",
"332 304 OFFCURVE",
"361 287 CURVE SMOOTH",
"390 270 OFFCURVE",
"421 244 OFFCURVE",
"482 244 CURVE SMOOTH",
"551 244 OFFCURVE",
"638 287 OFFCURVE",
"638 402 CURVE SMOOTH",
"638 428 LINE"
);
}
);
width = 728;
},
{
anchors = (
{
name = abvm;
position = "{275, 830}";
},
{
name = blwm;
position = "{288, 244}";
}
);
components = (
{
alignment = -1;
name = looptop.left;
transform = "{1, 0, 0, 1, -21, 194}";
}
);
guideLines = (
{
position = "{76, 372}";
showMeasurement = 1;
}
);
layerId = "6517A2BC-7974-4B53-8E65-A6A29EB8D1E7";
paths = (
{
closed = 1;
nodes = (
"457 457 LINE",
"457 402 LINE SMOOTH",
"457 341 OFFCURVE",
"436 270 OFFCURVE",
"392 270 CURVE SMOOTH",
"353 270 OFFCURVE",
"335 300 OFFCURVE",
"309 345 CURVE SMOOTH",
"270 411 OFFCURVE",
"232 431 OFFCURVE",
"136 431 CURVE",
"136 594 LINE",
"103 639 OFFCURVE",
"87 652 OFFCURVE",
"87 672 CURVE SMOOTH",
"87 701 OFFCURVE",
"118 737 OFFCURVE",
"134 754 CURVE",
"483 754 LINE",
"483 780 LINE",
"132 780 LINE",
"78 715 OFFCURVE",
"60 685 OFFCURVE",
"60 660 CURVE SMOOTH",
"60 645 OFFCURVE",
"80 630 OFFCURVE",
"110 578 CURVE",
"110 431 LINE",
"96 427 OFFCURVE",
"83 409 OFFCURVE",
"83 372 CURVE SMOOTH",
"83 329 OFFCURVE",
"90 289 OFFCURVE",
"110 244 CURVE",
"136 244 LINE",
"136 405 LINE",
"225 404 OFFCURVE",
"248 394 OFFCURVE",
"288 328 CURVE SMOOTH",
"314 285 OFFCURVE",
"342 244 OFFCURVE",
"392 244 CURVE SMOOTH",
"441 244 OFFCURVE",
"483 299 OFFCURVE",
"483 402 CURVE SMOOTH",
"483 457 LINE"
);
}
);
width = 583;
},
{
anchors = (
{
name = abvm;
position = "{281, 830}";
},
{
name = blwm;
position = "{291, 244}";
}
);
components = (
{
alignment = -1;
name = looptop.left;
transform = "{1, 0, 0, 1, 0, 194}";
}
);
layerId = "0F8E8D95-EFB6-4635-B30D-2DA8DDB35575";
paths = (
{
closed = 1;
nodes = (
"371 398 LINE",
"371 393 LINE SMOOTH",
"371 382 OFFCURVE",
"360 374 OFFCURVE",
"348 374 CURVE SMOOTH",
"333 374 OFFCURVE",
"319 385 OFFCURVE",
"298 401 CURVE SMOOTH",
"277 417 OFFCURVE",
"265 423 OFFCURVE",
"232 433 CURVE",
"232 568 LINE",
"164 615 OFFCURVE",
"146 644 OFFCURVE",
"146 651 CURVE SMOOTH",
"146 656 OFFCURVE",
"148 663 OFFCURVE",
"156 668 CURVE",
"522 668 LINE",
"522 780 LINE",
"112 780 LINE",
"58 711 OFFCURVE",
"40 689 OFFCURVE",
"40 663 CURVE SMOOTH",
"40 647 OFFCURVE",
"62 610 OFFCURVE",
"81 578 CURVE",
"81 436 LINE",
"53 433 OFFCURVE",
"40 414 OFFCURVE",
"40 375 CURVE SMOOTH",
"40 338 OFFCURVE",
"53 298 OFFCURVE",
"81 244 CURVE",
"232 244 LINE",
"232 314 LINE",
"258 310 OFFCURVE",
"278 303 OFFCURVE",
"304 285 CURVE SMOOTH",
"325 271 OFFCURVE",
"352 244 OFFCURVE",
"408 244 CURVE SMOOTH",
"465 244 OFFCURVE",
"522 267 OFFCURVE",
"522 382 CURVE SMOOTH",
"522 398 LINE"
);
}
);
width = 582;
},
{
anchors = (
{
name = abvm;
position = "{255, 830}";
},
{
name = blwm;
position = "{262, 244}";
}
);
components = (
{
alignment = -1;
name = looptop.left;
transform = "{1, 0, 0, 1, 10, 194}";
}
);
layerId = "9C354F0E-63BE-4945-A1C1-0B7B127DD18D";
paths = (
{
closed = 1;
nodes = (
"378 407 LINE",
"378 402 LINE SMOOTH",
"378 362 OFFCURVE",
"371 311 OFFCURVE",
"340 311 CURVE SMOOTH",
"313 311 OFFCURVE",
"294 357 OFFCURVE",
"273 384 CURVE SMOOTH",
"247 418 OFFCURVE",
"228 433 OFFCURVE",
"167 439 CURVE",
"167 594 LINE",
"123 654 OFFCURVE",
"105 679 OFFCURVE",
"105 694 CURVE SMOOTH",
"105 697 OFFCURVE",
"108 704 OFFCURVE",
"115 713 CURVE",
"456 713 LINE",
"456 780 LINE",
"113 780 LINE",
"55 687 OFFCURVE",
"49 687 OFFCURVE",
"49 660 CURVE SMOOTH",
"49 643 OFFCURVE",
"61 622 OFFCURVE",
"90 578 CURVE",
"90 439 LINE",
"62 437 OFFCURVE",
"49 418 OFFCURVE",
"49 381 CURVE SMOOTH",
"49 343 OFFCURVE",
"62 297 OFFCURVE",
"90 244 CURVE",
"167 244 LINE",
"167 372 LINE",
"211 367 OFFCURVE",
"219 349 OFFCURVE",
"253 305 CURVE SMOOTH",
"280 271 OFFCURVE",
"305 244 OFFCURVE",
"342 244 CURVE SMOOTH",
"410 244 OFFCURVE",
"455 308 OFFCURVE",
"455 402 CURVE SMOOTH",
"455 407 LINE"
);
}
);
width = 534;
},
{
anchors = (
{
name = abvm;
position = "{264, 830}";
},
{
name = blwm;
position = "{248, 244}";
}
);
components = (
{
alignment = -1;
name = looptop.left;
transform = "{1, 0, 0, 1, 28, 194}";
}
);
layerId = "DE962D09-1426-4D02-9608-9FE5B080C42D";
paths = (
{
closed = 1;
nodes = (
"417 462 LINE",
"417 402 LINE SMOOTH",
"417 341 OFFCURVE",
"400 270 OFFCURVE",
"354 270 CURVE SMOOTH",
"321 270 OFFCURVE",
"303 294 OFFCURVE",
"283 346 CURVE SMOOTH",
"256 416 OFFCURVE",
"215 432 OFFCURVE",
"136 432 CURVE",
"136 588 LINE",
"106 630 OFFCURVE",
"91 651 OFFCURVE",
"91 670 CURVE SMOOTH",
"91 698 OFFCURVE",
"122 737 OFFCURVE",
"136 754 CURVE",
"443 754 LINE",
"443 780 LINE",
"130 780 LINE",
"85 715 OFFCURVE",
"68 687 OFFCURVE",
"68 664 CURVE SMOOTH",
"68 648 OFFCURVE",
"79 630 OFFCURVE",
"110 578 CURVE",
"110 432 LINE",
"96 427 OFFCURVE",
"83 409 OFFCURVE",
"83 372 CURVE SMOOTH",
"83 329 OFFCURVE",
"90 289 OFFCURVE",
"110 244 CURVE",
"136 244 LINE",
"136 405 LINE",
"206 405 OFFCURVE",
"233 399 OFFCURVE",
"261 330 CURVE SMOOTH",
"282 277 OFFCURVE",
"302 244 OFFCURVE",
"356 244 CURVE SMOOTH",
"407 244 OFFCURVE",
"443 299 OFFCURVE",
"443 402 CURVE SMOOTH",
"443 462 LINE"
);
}
);
width = 533;
}
);
note = uni1786;
unicode = 1786;
},
{
glyphname = uni1787;
lastChange = "2016-12-05 19:32:48 +0000";
layers = (
{
anchors = (
{
name = abvm;
position = "{302, 850}";
},
{
name = abvm_high;
position = "{302, 839}";
},
{
name = blwm;
position = "{318, 244}";
}
);
guideLines = (
{
angle = 222.349;
position = "{219, 109}";
},
{
angle = 137.651;
position = "{403, 120}";
},
{
position = "{857, 780}";
}
);
layerId = "46DC2CF2-3687-4CD7-A306-8CA7072459C9";
paths = (
{
closed = 1;
nodes = (
"204 244 LINE",
"318 347 LINE",
"431 244 LINE",
"537 244 LINE",
"537 603 LINE",
"445 603 LINE",
"445 326 LINE",
"318 442 LINE",
"190 325 LINE",
"190 552 LINE",
"137 612 OFFCURVE",
"116 635 OFFCURVE",
"116 652 CURVE SMOOTH",
"116 655 OFFCURVE",
"120 662 OFFCURVE",
"128 671 CURVE",
"415 671 LINE SMOOTH",
"504 671 OFFCURVE",
"537 701 OFFCURVE",
"537 762 CURVE SMOOTH",
"537 782 LINE",
"445 782 LINE",
"445 762 LINE SMOOTH",
"445 746 OFFCURVE",
"427 738 OFFCURVE",
"405 738 CURVE SMOOTH",
"126 738 LINE",
"56 645 OFFCURVE",
"49 645 OFFCURVE",
"49 618 CURVE SMOOTH",
"49 601 OFFCURVE",
"63 580 OFFCURVE",
"98 536 CURVE",
"98 244 LINE"
);
}
);
width = 635;
},
{
anchors = (
{
name = abvm;
position = "{364, 830}";
},
{
name = abvm_high;
position = "{364, 843}";
},
{
name = blwm;
position = "{374, 244}";
}
);
guideLines = (
{
position = "{857, 780}";
}
);
layerId = "51E32C1F-DEF7-419B-8D63-3B39AA64BD60";
paths = (
{
closed = 1;
nodes = (
"261 244 LINE",
"374 327 LINE",
"487 244 LINE",
"639 244 LINE",
"639 578 LINE",
"458 578 LINE",
"458 409 LINE",
"374 467 LINE",
"290 408 LINE",
"290 528 LINE",
"254 545 OFFCURVE",
"187 599 OFFCURVE",
"187 611 CURVE SMOOTH",
"187 614 OFFCURVE",
"190 620 OFFCURVE",
"198 628 CURVE",
"520 628 LINE SMOOTH",
"632 628 OFFCURVE",
"639 673 OFFCURVE",
"639 764 CURVE SMOOTH",
"639 788 LINE",
"458 788 LINE",
"458 764 LINE SMOOTH",
"458 748 OFFCURVE",
"454 740 OFFCURVE",
"438 740 CURVE SMOOTH",
"146 740 LINE",
"94 686 OFFCURVE",
"60 651 OFFCURVE",
"60 624 CURVE SMOOTH",
"60 609 OFFCURVE",
"85 573 OFFCURVE",
"109 538 CURVE",
"109 244 LINE"
);
}
);
width = 729;
},
{
anchors = (
{
name = abvm;
position = "{287, 858}";
},
{
name = abvm_high;
position = "{287, 839}";
},
{
name = blwm;
position = "{297, 244}";
}
);
guideLines = (
{
angle = 180;
position = "{297, 244}";
},
{
angle = 138.788;
position = "{390, 332}";
},
{
angle = 221.028;
position = "{207, 335}";
},
{
position = "{857, 780}";
}
);
layerId = "6517A2BC-7974-4B53-8E65-A6A29EB8D1E7";
paths = (
{
closed = 1;
nodes = (
"143 244 LINE",
"297 378 LINE",
"450 244 LINE",
"483 244 LINE",
"483 604 LINE",
"457 604 LINE",
"457 273 LINE",
"297 413 LINE",
"136 273 LINE",
"136 554 LINE",
"103 599 OFFCURVE",
"87 612 OFFCURVE",
"87 632 CURVE SMOOTH",
"87 661 OFFCURVE",
"118 697 OFFCURVE",
"134 714 CURVE",
"422 714 LINE SMOOTH",
"463 714 OFFCURVE",
"483 729 OFFCURVE",
"483 764 CURVE SMOOTH",
"483 798 LINE",
"457 798 LINE",
"457 764 LINE SMOOTH",
"457 747 OFFCURVE",
"452 740 OFFCURVE",
"417 740 CURVE SMOOTH",
"132 740 LINE",
"78 675 OFFCURVE",
"60 645 OFFCURVE",
"60 620 CURVE SMOOTH",
"60 605 OFFCURVE",
"80 590 OFFCURVE",
"110 538 CURVE",
"110 244 LINE"
);
}
);
width = 593;
},
{
anchors = (
{
name = abvm;
position = "{302, 843}";
},
{
name = abvm_high;
position = "{302, 830}";
},
{
name = blwm;
position = "{302, 244}";
}
);
guideLines = (
{
position = "{857, 780}";
}
);
layerId = "0F8E8D95-EFB6-4635-B30D-2DA8DDB35575";
paths = (
{
closed = 1;
nodes = (
"208 244 LINE",
"302 327 LINE",
"396 244 LINE",
"523 244 LINE",
"523 578 LINE",
"372 578 LINE",
"372 409 LINE",
"302 467 LINE",
"232 408 LINE",
"232 528 LINE",
"164 575 OFFCURVE",
"146 604 OFFCURVE",
"146 611 CURVE SMOOTH",
"146 616 OFFCURVE",
"148 623 OFFCURVE",
"156 628 CURVE",
"423 628 LINE SMOOTH",
"517 628 OFFCURVE",
"523 673 OFFCURVE",
"523 764 CURVE SMOOTH",
"523 788 LINE",
"372 788 LINE",
"372 764 LINE SMOOTH",
"372 748 OFFCURVE",
"368 740 OFFCURVE",
"355 740 CURVE SMOOTH",
"112 740 LINE",
"58 671 OFFCURVE",
"40 649 OFFCURVE",
"40 623 CURVE SMOOTH",
"40 607 OFFCURVE",
"62 570 OFFCURVE",
"81 538 CURVE",
"81 244 LINE"
);
}
);
width = 583;
},
{
anchors = (
{
name = abvm;
position = "{262, 850}";
},
{
name = abvm_high;
position = "{262, 839}";
},
{
name = blwm;
position = "{274, 244}";
}
);
guideLines = (
{
position = "{857, 780}";
}
);
layerId = "9C354F0E-63BE-4945-A1C1-0B7B127DD18D";
paths = (
{
closed = 1;
nodes = (
"180 244 LINE",
"274 347 LINE",
"368 244 LINE",
"457 244 LINE",
"457 605 LINE",
"380 605 LINE",
"380 326 LINE",
"274 442 LINE",
"168 325 LINE",
"168 554 LINE",
"124 614 OFFCURVE",
"106 639 OFFCURVE",
"106 654 CURVE SMOOTH",
"106 657 OFFCURVE",
"109 664 OFFCURVE",
"116 673 CURVE",
"347 673 LINE SMOOTH",
"416 673 OFFCURVE",
"457 703 OFFCURVE",
"457 764 CURVE SMOOTH",
"457 780 LINE",
"380 780 LINE",
"380 764 LINE SMOOTH",
"380 748 OFFCURVE",
"365 740 OFFCURVE",
"347 740 CURVE SMOOTH",
"114 740 LINE",
"56 647 OFFCURVE",
"50 647 OFFCURVE",
"50 620 CURVE SMOOTH",
"50 603 OFFCURVE",
"62 582 OFFCURVE",
"91 538 CURVE",
"91 244 LINE"
);
}
);
width = 535;
},
{
anchors = (
{
name = abvm;
position = "{264, 858}";
},
{
name = abvm_high;
position = "{264, 839}";
},
{
name = blwm;
position = "{274, 244}";
}
);
guideLines = (
{
angle = -45.868;
position = "{353, 332}";
},
{
angle = 225.649;
position = "{191, 328}";
},
{
position = "{857, 780}";
}
);
layerId = "DE962D09-1426-4D02-9608-9FE5B080C42D";
paths = (
{
closed = 1;
nodes = (
"143 244 LINE",
"274 378 LINE",
"404 244 LINE",
"437 244 LINE",
"437 604 LINE",
"411 604 LINE",
"411 272 LINE",
"274 413 LINE",
"136 272 LINE",
"136 548 LINE",
"106 590 OFFCURVE",
"91 611 OFFCURVE",
"91 630 CURVE SMOOTH",
"91 658 OFFCURVE",
"122 697 OFFCURVE",
"136 714 CURVE",
"374 714 LINE SMOOTH",
"435 714 OFFCURVE",
"437 729 OFFCURVE",
"437 764 CURVE SMOOTH",
"437 798 LINE",
"411 798 LINE",
"411 764 LINE SMOOTH",
"411 747 OFFCURVE",
"406 740 OFFCURVE",
"381 740 CURVE SMOOTH",
"130 740 LINE",
"85 675 OFFCURVE",
"68 647 OFFCURVE",
"68 624 CURVE SMOOTH",
"68 608 OFFCURVE",
"79 590 OFFCURVE",
"110 538 CURVE",
"110 244 LINE"
);
}
);
width = 527;
}
);
note = uni1787;
rightMetricsKey = uni1780;
unicode = 1787;
},
{
glyphname = uni1788;
lastChange = "2016-12-05 19:32:48 +0000";
layers = (
{
anchors = (
{
name = abvm;
position = "{918, 830}";
},
{
name = blwm;
position = "{949, 244}";
}
);
components = (
{
alignment = -1;
name = loopleft;
transform = "{1, 0, 0, 1, 0, 244}";
},
{
alignment = -1;
name = topout.right;
transform = "{1, 0, 0, 1, 952, 194}";
},
{
alignment = -1;
name = topout.left;
transform = "{1, 0, 0, 1, 646, 194}";
}
);
guideLines = (
{
angle = 270;
position = "{189, 277}";
showMeasurement = 1;
}
);
layerId = "46DC2CF2-3687-4CD7-A306-8CA7072459C9";
paths = (
{
closed = 1;
nodes = (
"1062 573 LINE",
"1062 402 LINE SMOOTH",
"1062 342 OFFCURVE",
"1024 311 OFFCURVE",
"949 311 CURVE SMOOTH",
"874 311 OFFCURVE",
"836 342 OFFCURVE",
"836 402 CURVE SMOOTH",
"836 573 LINE",
"744 573 LINE",
"744 402 LINE SMOOTH",
"744 342 OFFCURVE",
"706 311 OFFCURVE",
"628 311 CURVE SMOOTH",
"551 311 OFFCURVE",
"513 342 OFFCURVE",
"513 402 CURVE SMOOTH",
"513 622 LINE SMOOTH",
"513 727 OFFCURVE",
"443 780 OFFCURVE",
"305 780 CURVE SMOOTH",
"167 780 OFFCURVE",
"98 727 OFFCURVE",
"98 622 CURVE SMOOTH",
"98 473 LINE",
"190 473 LINE",
"190 622 LINE SMOOTH",
"190 682 OFFCURVE",
"228 713 OFFCURVE",
"305 713 CURVE SMOOTH",
"382 713 OFFCURVE",
"421 682 OFFCURVE",
"421 622 CURVE SMOOTH",
"421 402 LINE SMOOTH",
"421 297 OFFCURVE",
"490 244 OFFCURVE",
"628 244 CURVE SMOOTH",
"702 244 OFFCURVE",
"755 260 OFFCURVE",
"790 292 CURVE",
"825 260 OFFCURVE",
"877 244 OFFCURVE",
"949 244 CURVE SMOOTH",
"1085 244 OFFCURVE",
"1154 297 OFFCURVE",
"1154 402 CURVE SMOOTH",
"1154 573 LINE"
);
}
);
width = 1251;
},
{
anchors = (
{
name = abvm;
position = "{939, 830}";
},
{
name = blwm;
position = "{981, 244}";
}
);
components = (
{
alignment = -1;
name = loopleft;
transform = "{1, 0, 0, 1, 31, 244}";
},
{
alignment = -1;
name = topout.right;
transform = "{1, 0, 0, 1, 984, 194}";
},
{
alignment = -1;
name = topout.left;
transform = "{1, 0, 0, 1, 679, 194}";
}
);
layerId = "51E32C1F-DEF7-419B-8D63-3B39AA64BD60";
paths = (
{
closed = 1;
nodes = (
"1048 565 LINE",
"1048 402 LINE SMOOTH",
"1048 371 OFFCURVE",
"1025 356 OFFCURVE",
"980 356 CURVE SMOOTH",
"934 356 OFFCURVE",
"913 371 OFFCURVE",
"913 402 CURVE SMOOTH",
"913 565 LINE",
"732 565 LINE",
"732 402 LINE SMOOTH",
"732 371 OFFCURVE",
"708 356 OFFCURVE",
"659 356 CURVE SMOOTH",
"612 356 OFFCURVE",
"588 371 OFFCURVE",
"588 402 CURVE SMOOTH",
"588 622 LINE SMOOTH",
"588 727 OFFCURVE",
"504 780 OFFCURVE",
"336 780 CURVE SMOOTH",
"168 780 OFFCURVE",
"84 727 OFFCURVE",
"84 622 CURVE SMOOTH",
"84 495 LINE",
"265 495 LINE",
"265 622 LINE SMOOTH",
"265 653 OFFCURVE",
"289 668 OFFCURVE",
"336 668 CURVE SMOOTH",
"383 668 OFFCURVE",
"407 653 OFFCURVE",
"407 622 CURVE SMOOTH",
"407 402 LINE SMOOTH",
"407 297 OFFCURVE",
"491 244 OFFCURVE",
"659 244 CURVE SMOOTH",
"732 244 OFFCURVE",
"786 260 OFFCURVE",
"821 292 CURVE",
"856 260 OFFCURVE",
"909 244 OFFCURVE",
"980 244 CURVE SMOOTH",
"1146 244 OFFCURVE",
"1229 297 OFFCURVE",
"1229 402 CURVE SMOOTH",
"1229 565 LINE"
);
}
);
width = 1321;
},
{
anchors = (
{
name = abvm;
position = "{901, 830}";
},
{
name = blwm;
position = "{940, 244}";
}
);
components = (
{
alignment = -1;
name = loopleft;
transform = "{1, 0, 0, 1, -20, 244}";
},
{
alignment = -1;
name = topout.right;
transform = "{1, 0, 0, 1, 960, 194}";
},
{
alignment = -1;
name = topout.left;
transform = "{1, 0, 0, 1, 626, 194}";
}
);
guideLines = (
{
angle = 180;
position = "{608, 402}";
showMeasurement = 1;
}
);
layerId = "6517A2BC-7974-4B53-8E65-A6A29EB8D1E7";
paths = (
{
closed = 1;
nodes = (
"1073 580 LINE",
"1073 402 LINE SMOOTH",
"1073 322 OFFCURVE",
"1020 270 OFFCURVE",
"928 270 CURVE SMOOTH",
"824 270 OFFCURVE",
"783 317 OFFCURVE",
"783 356 CURVE SMOOTH",
"783 580 LINE",
"757 580 LINE",
"757 356 LINE SMOOTH",
"757 317 OFFCURVE",
"716 270 OFFCURVE",
"608 270 CURVE SMOOTH",
"509 270 OFFCURVE",
"459 319 OFFCURVE",
"459 402 CURVE SMOOTH",
"459 622 LINE SMOOTH",
"459 727 OFFCURVE",
"401 780 OFFCURVE",
"284 780 CURVE SMOOTH",
"168 780 OFFCURVE",
"110 727 OFFCURVE",
"110 622 CURVE SMOOTH",
"110 422 LINE",
"136 422 LINE",
"136 622 LINE SMOOTH",
"136 703 OFFCURVE",
"185 753 OFFCURVE",
"284 753 CURVE SMOOTH",
"381 753 OFFCURVE",
"433 703 OFFCURVE",
"433 622 CURVE SMOOTH",
"433 402 LINE SMOOTH",
"433 297 OFFCURVE",
"497 244 OFFCURVE",
"608 244 CURVE SMOOTH",
"696 244 OFFCURVE",
"748 275 OFFCURVE",
"770 312 CURVE",
"794 275 OFFCURVE",
"841 244 OFFCURVE",
"928 244 CURVE SMOOTH",
"1035 244 OFFCURVE",
"1099 306 OFFCURVE",
"1099 402 CURVE SMOOTH",
"1099 580 LINE"
);
}
);
width = 1199;
},
{
anchors = (
{
name = abvm;
position = "{774, 830}";
},
{
name = blwm;
position = "{807, 244}";
}
);
components = (
{
alignment = -1;
name = loopleft;
transform = "{1, 0, 0, 1, 0, 244}";
},
{
alignment = -1;
name = topout.right;
transform = "{1, 0, 0, 1, 760, 194}";
},
{
alignment = -1;
name = topout.left;
transform = "{1, 0, 0, 1, 521, 194}";
}
);
layerId = "0F8E8D95-EFB6-4635-B30D-2DA8DDB35575";
paths = (
{
closed = 1;
nodes = (
"863 565 LINE",
"863 402 LINE SMOOTH",
"863 371 OFFCURVE",
"844 356 OFFCURVE",
"807 356 CURVE SMOOTH",
"768 356 OFFCURVE",
"751 371 OFFCURVE",
"751 402 CURVE SMOOTH",
"751 565 LINE",
"600 565 LINE",
"600 402 LINE SMOOTH",
"600 371 OFFCURVE",
"580 356 OFFCURVE",
"539 356 CURVE SMOOTH",
"500 356 OFFCURVE",
"480 371 OFFCURVE",
"480 402 CURVE SMOOTH",
"480 622 LINE SMOOTH",
"480 727 OFFCURVE",
"410 780 OFFCURVE",
"270 780 CURVE SMOOTH",
"130 780 OFFCURVE",
"60 727 OFFCURVE",
"60 622 CURVE SMOOTH",
"60 495 LINE",
"211 495 LINE",
"211 622 LINE SMOOTH",
"211 653 OFFCURVE",
"231 668 OFFCURVE",
"270 668 CURVE SMOOTH",
"309 668 OFFCURVE",
"329 653 OFFCURVE",
"329 622 CURVE SMOOTH",
"329 402 LINE SMOOTH",
"329 297 OFFCURVE",
"399 244 OFFCURVE",
"539 244 CURVE SMOOTH",
"600 244 OFFCURVE",
"645 260 OFFCURVE",
"674 292 CURVE",
"703 260 OFFCURVE",
"748 244 OFFCURVE",
"807 244 CURVE SMOOTH",
"945 244 OFFCURVE",
"1014 297 OFFCURVE",
"1014 402 CURVE SMOOTH",
"1014 565 LINE"
);
}
);
width = 1082;
},
{
anchors = (
{
name = abvm;
position = "{766, 830}";
},
{
name = blwm;
position = "{788, 244}";
}
);
components = (
{
alignment = -1;
name = loopleft;
transform = "{1, 0, 0, 1, 3, 244}";
},
{
alignment = -1;
name = topout.right;
transform = "{1, 0, 0, 1, 785, 194}";
},
{
alignment = -1;
name = topout.left;
transform = "{1, 0, 0, 1, 541, 194}";
}
);
guideLines = (
{
angle = 270;
position = "{170, 521}";
showMeasurement = 1;
}
);
layerId = "9C354F0E-63BE-4945-A1C1-0B7B127DD18D";
paths = (
{
closed = 1;
nodes = (
"882 569 LINE",
"882 402 LINE SMOOTH",
"882 342 OFFCURVE",
"851 311 OFFCURVE",
"788 311 CURVE SMOOTH",
"726 311 OFFCURVE",
"694 342 OFFCURVE",
"694 402 CURVE SMOOTH",
"694 569 LINE",
"617 569 LINE",
"617 402 LINE SMOOTH",
"617 342 OFFCURVE",
"586 311 OFFCURVE",
"521 311 CURVE SMOOTH",
"457 311 OFFCURVE",
"425 342 OFFCURVE",
"425 402 CURVE SMOOTH",
"425 622 LINE SMOOTH",
"425 727 OFFCURVE",
"367 780 OFFCURVE",
"252 780 CURVE SMOOTH",
"137 780 OFFCURVE",
"78 727 OFFCURVE",
"78 622 CURVE SMOOTH",
"78 473 LINE",
"155 473 LINE",
"155 622 LINE SMOOTH",
"155 682 OFFCURVE",
"187 713 OFFCURVE",
"252 713 CURVE SMOOTH",
"316 713 OFFCURVE",
"348 682 OFFCURVE",
"348 622 CURVE SMOOTH",
"348 402 LINE SMOOTH",
"348 297 OFFCURVE",
"406 244 OFFCURVE",
"521 244 CURVE SMOOTH",
"582 244 OFFCURVE",
"627 260 OFFCURVE",
"656 292 CURVE",
"685 260 OFFCURVE",
"728 244 OFFCURVE",
"788 244 CURVE SMOOTH",
"902 244 OFFCURVE",
"959 297 OFFCURVE",
"959 402 CURVE SMOOTH",
"959 569 LINE"
);
}
);
width = 1048;
},
{
anchors = (
{
name = abvm;
position = "{768, 830}";
},
{
name = blwm;
position = "{800, 244}";
}
);
components = (
{
alignment = -1;
name = loopleft;
transform = "{1, 0, 0, 1, 0, 244}";
},
{
alignment = -1;
name = topout.right;
transform = "{1, 0, 0, 1, 814, 194}";
},
{
alignment = -1;
name = topout.left;
transform = "{1, 0, 0, 1, 537, 194}";
}
);
guideLines = (
{
position = "{650, 356}";
}
);
layerId = "DE962D09-1426-4D02-9608-9FE5B080C42D";
paths = (
{
closed = 1;
nodes = (
"905 572 LINE",
"905 402 LINE SMOOTH",
"905 297 OFFCURVE",
"842 270 OFFCURVE",
"779 270 CURVE SMOOTH",
"722 270 OFFCURVE",
"663 317 OFFCURVE",
"663 356 CURVE SMOOTH",
"663 572 LINE",
"637 572 LINE",
"637 356 LINE SMOOTH",
"637 317 OFFCURVE",
"583 270 OFFCURVE",
"513 270 CURVE SMOOTH",
"429 270 OFFCURVE",
"389 302 OFFCURVE",
"389 402 CURVE SMOOTH",
"389 622 LINE SMOOTH",
"389 727 OFFCURVE",
"325 780 OFFCURVE",
"239 780 CURVE SMOOTH",
"153 780 OFFCURVE",
"90 727 OFFCURVE",
"90 622 CURVE SMOOTH",
"90 422 LINE",
"116 422 LINE",
"116 622 LINE SMOOTH",
"116 703 OFFCURVE",
"159 754 OFFCURVE",
"239 754 CURVE SMOOTH",
"319 754 OFFCURVE",
"363 703 OFFCURVE",
"363 622 CURVE SMOOTH",
"363 402 LINE SMOOTH",
"363 283 OFFCURVE",
"418 244 OFFCURVE",
"513 244 CURVE SMOOTH",
"582 244 OFFCURVE",
"634 282 OFFCURVE",
"650 312 CURVE",
"670 282 OFFCURVE",
"716 244 OFFCURVE",
"779 244 CURVE SMOOTH",
"850 244 OFFCURVE",
"931 278 OFFCURVE",
"931 402 CURVE SMOOTH",
"931 572 LINE"
);
}
);
width = 1037;
}
);
note = uni1788;
unicode = 1788;
},
{
glyphname = uni1789;
lastChange = "2016-12-05 19:32:48 +0000";
layers = (
{
anchors = (
{
name = abvm;
position = "{632, 830}";
},
{
name = blwm;
position = "{482, 0}";
}
);
components = (
{
alignment = -1;
name = uni1789.a;
}
);
guideLines = (
{
angle = 270;
position = "{699, -30}";
showMeasurement = 1;
},
{
angle = 270;
position = "{98, 17}";
}
);
layerId = "46DC2CF2-3687-4CD7-A306-8CA7072459C9";
paths = (
{
closed = 1;
nodes = (
"790 0 OFFCURVE",
"854 66 OFFCURVE",
"854 174 CURVE SMOOTH",
"854 195 LINE",
"694 195 LINE",
"694 137 LINE",
"768 137 LINE",
"765 86 OFFCURVE",
"744 58 OFFCURVE",
"683 58 CURVE SMOOTH",
"637 58 OFFCURVE",
"591 76 OFFCURVE",
"537 108 CURVE SMOOTH",
"483 140 OFFCURVE",
"398 156 OFFCURVE",
"293 156 CURVE SMOOTH",
"98 156 LINE",
"98 98 LINE",
"293 98 LINE SMOOTH",
"371 98 OFFCURVE",
"450 93 OFFCURVE",
"502 61 CURVE SMOOTH",
"555 28 OFFCURVE",
"606 0 OFFCURVE",
"683 0 CURVE SMOOTH"
);
}
);
width = 952;
},
{
anchors = (
{
name = abvm;
position = "{633, 830}";
},
{
name = blwm;
position = "{522, 0}";
}
);
components = (
{
alignment = -1;
locked = 1;
name = uni1789.a;
}
);
guideLines = (
{
angle = 270;
position = "{50, 251}";
}
);
layerId = "51E32C1F-DEF7-419B-8D63-3B39AA64BD60";
paths = (
{
closed = 1;
nodes = (
"845 0 OFFCURVE",
"940 63 OFFCURVE",
"940 189 CURVE SMOOTH",
"940 216 LINE",
"731 216 LINE",
"731 131 LINE",
"759 131 LINE",
"757 119 OFFCURVE",
"745 103 OFFCURVE",
"719 103 CURVE SMOOTH",
"677 103 OFFCURVE",
"637 131 OFFCURVE",
"590 154 CURVE SMOOTH",
"526 186 OFFCURVE",
"425 201 OFFCURVE",
"314 201 CURVE SMOOTH",
"94 201 LINE",
"94 98 LINE",
"314 98 LINE SMOOTH",
"399 98 OFFCURVE",
"491 90 OFFCURVE",
"536 66 CURVE SMOOTH",
"601 31 OFFCURVE",
"641 0 OFFCURVE",
"729 0 CURVE SMOOTH"
);
}
);
width = 1031;
},
{
anchors = (
{
name = abvm;
position = "{599, 830}";
},
{
name = blwm;
position = "{462, 0}";
}
);
components = (
{
alignment = -1;
locked = 1;
name = uni1789.a;
}
);
guideLines = (
{
angle = 270;
position = "{103, 271}";
}
);
layerId = "6517A2BC-7974-4B53-8E65-A6A29EB8D1E7";
paths = (
{
closed = 1;
nodes = (
"734 0 OFFCURVE",
"807 63 OFFCURVE",
"807 175 CURVE SMOOTH",
"807 195 LINE",
"680 195 LINE",
"680 169 LINE",
"780 169 LINE",
"780 85 OFFCURVE",
"724 26 OFFCURVE",
"646 26 CURVE SMOOTH",
"594 26 OFFCURVE",
"558 47 OFFCURVE",
"513 73 CURVE SMOOTH",
"447 112 OFFCURVE",
"399 124 OFFCURVE",
"316 124 CURVE SMOOTH",
"114 124 LINE",
"114 98 LINE",
"292 98 LINE SMOOTH",
"365 98 OFFCURVE",
"424 98 OFFCURVE",
"486 59 CURVE SMOOTH",
"540 25 OFFCURVE",
"589 0 OFFCURVE",
"647 0 CURVE SMOOTH"
);
}
);
width = 917;
},
{
anchors = (
{
name = abvm;
position = "{538, 830}";
},
{
name = blwm;
position = "{443, 0}";
}
);
components = (
{
alignment = -1;
locked = 1;
name = uni1789.a;
}
);
guideLines = (
{
angle = 270;
position = "{60, 244}";
}
);
layerId = "0F8E8D95-EFB6-4635-B30D-2DA8DDB35575";
paths = (
{
closed = 1;
nodes = (
"682 0 OFFCURVE",
"766 63 OFFCURVE",
"766 189 CURVE SMOOTH",
"766 216 LINE",
"589 216 LINE",
"589 131 LINE",
"615 131 LINE",
"614 119 OFFCURVE",
"599 103 OFFCURVE",
"575 103 CURVE SMOOTH",
"542 103 OFFCURVE",
"505 133 OFFCURVE",
"465 156 CURVE SMOOTH",
"412 187 OFFCURVE",
"337 201 OFFCURVE",
"244 201 CURVE SMOOTH",
"61 201 LINE",
"61 98 LINE",
"244 98 LINE SMOOTH",
"315 98 OFFCURVE",
"384 90 OFFCURVE",
"420 68 CURVE SMOOTH",
"476 34 OFFCURVE",
"512 0 OFFCURVE",
"585 0 CURVE SMOOTH"
);
}
);
width = 826;
},
{
anchors = (
{
name = abvm;
position = "{516, 830}";
},
{
name = blwm;
position = "{389, 0}";
}
);
components = (
{
alignment = -1;
locked = 1;
name = uni1789.a;
}
);
guideLines = (
{
angle = 270;
position = "{70, 244}";
showMeasurement = 1;
}
);
layerId = "9C354F0E-63BE-4945-A1C1-0B7B127DD18D";
paths = (
{
closed = 1;
nodes = (
"646 0 OFFCURVE",
"709 66 OFFCURVE",
"709 174 CURVE SMOOTH",
"709 195 LINE",
"576 195 LINE",
"576 137 LINE",
"633 137 LINE",
"633 86 OFFCURVE",
"607 58 OFFCURVE",
"557 58 CURVE SMOOTH",
"518 58 OFFCURVE",
"484 82 OFFCURVE",
"439 108 CURVE SMOOTH",
"394 134 OFFCURVE",
"329 156 OFFCURVE",
"242 156 CURVE SMOOTH",
"79 156 LINE",
"79 98 LINE",
"242 98 LINE SMOOTH",
"307 98 OFFCURVE",
"366 88 OFFCURVE",
"410 61 CURVE SMOOTH",
"458 32 OFFCURVE",
"492 0 OFFCURVE",
"557 0 CURVE SMOOTH"
);
}
);
width = 787;
},
{
anchors = (
{
name = abvm;
position = "{515, 830}";
},
{
name = blwm;
position = "{397, 0}";
}
);
components = (
{
alignment = -1;
locked = 1;
name = uni1789.a;
}
);
guideLines = (
{
angle = 270;
position = "{103, 271}";
}
);
layerId = "DE962D09-1426-4D02-9608-9FE5B080C42D";
paths = (
{
closed = 1;
nodes = (
"618 0 OFFCURVE",
"671 63 OFFCURVE",
"671 175 CURVE SMOOTH",
"671 195 LINE",
"564 195 LINE",
"564 169 LINE",
"644 169 LINE",
"644 85 OFFCURVE",
"608 26 OFFCURVE",
"530 26 CURVE SMOOTH",
"476 26 OFFCURVE",
"452 47 OFFCURVE",
"393 81 CURVE SMOOTH",
"328 118 OFFCURVE",
"259 124 OFFCURVE",
"148 124 CURVE SMOOTH",
"97 124 LINE",
"97 98 LINE",
"156 98 LINE SMOOTH",
"229 98 OFFCURVE",
"325 93 OFFCURVE",
"380 59 CURVE SMOOTH",
"434 26 OFFCURVE",
"477 0 OFFCURVE",
"531 0 CURVE SMOOTH"
);
}
);
width = 761;
}
);
leftMetricsKey = uni1789.a;
note = uni1789;
rightMetricsKey = uni1789.a;
unicode = 1789;
},
{
glyphname = uni1789.a;
lastChange = "2016-12-05 19:32:48 +0000";
layers = (
{
anchors = (
{
name = abvm;
position = "{632, 830}";
},
{
name = blwm;
position = "{655, 244}";
},
{
name = blwm_self;
position = "{490, 244}";
}
);
components = (
{
alignment = -1;
name = uni1796;
}
);
layerId = "46DC2CF2-3687-4CD7-A306-8CA7072459C9";
paths = (
{
closed = 1;
nodes = (
"529 670 LINE",
"562 698 OFFCURVE",
"588 718 OFFCURVE",
"650 718 CURVE SMOOTH",
"724 718 OFFCURVE",
"762 682 OFFCURVE",
"762 622 CURVE SMOOTH",
"762 244 LINE",
"854 244 LINE",
"854 622 LINE SMOOTH",
"854 712 OFFCURVE",
"814 785 OFFCURVE",
"659 785 CURVE SMOOTH",
"584 785 OFFCURVE",
"536 756 OFFCURVE",
"503 727 CURVE"
);
}
);
width = 952;
},
{
anchors = (
{
name = abvm;
position = "{634, 830}";
},
{
name = blwm;
position = "{695, 244}";
},
{
name = blwm_self;
position = "{519, 244}";
}
);
components = (
{
alignment = -1;
locked = 1;
name = uni1796;
transform = "{1, 0, 0, 1, 6, 0}";
}
);
layerId = "51E32C1F-DEF7-419B-8D63-3B39AA64BD60";
paths = (
{
closed = 1;
nodes = (
"618 639 LINE",
"634 654 OFFCURVE",
"651 671 OFFCURVE",
"692 671 CURVE SMOOTH",
"736 671 OFFCURVE",
"760 653 OFFCURVE",
"760 622 CURVE SMOOTH",
"760 244 LINE",
"941 244 LINE",
"941 622 LINE SMOOTH",
"941 735 OFFCURVE",
"870 783 OFFCURVE",
"742 783 CURVE SMOOTH",
"666 783 OFFCURVE",
"632 763 OFFCURVE",
"593 727 CURVE"
);
}
);
width = 1031;
},
{
anchors = (
{
name = abvm;
position = "{599, 830}";
},
{
name = blwm;
position = "{652, 244}";
},
{
name = blwm_self;
position = "{471, 244}";
}
);
components = (
{
alignment = -1;
locked = 1;
name = uni1796;
}
);
layerId = "6517A2BC-7974-4B53-8E65-A6A29EB8D1E7";
paths = (
{
closed = 1;
nodes = (
"480 687 LINE",
"517 730 OFFCURVE",
"562 758 OFFCURVE",
"634 758 CURVE SMOOTH",
"737 758 OFFCURVE",
"781 727 OFFCURVE",
"781 643 CURVE SMOOTH",
"781 244 LINE",
"807 244 LINE",
"807 643 LINE SMOOTH",
"807 735 OFFCURVE",
"756 784 OFFCURVE",
"636 784 CURVE SMOOTH",
"559 784 OFFCURVE",
"502 748 OFFCURVE",
"466 707 CURVE"
);
}
);
width = 917;
},
{
anchors = (
{
name = abvm;
position = "{538, 830}";
},
{
name = blwm;
position = "{568, 244}";
},
{
name = blwm_self;
position = "{417, 244}";
}
);
components = (
{
alignment = -1;
locked = 1;
name = uni1796;
}
);
layerId = "0F8E8D95-EFB6-4635-B30D-2DA8DDB35575";
paths = (
{
closed = 1;
nodes = (
"497 640 LINE",
"512 654 OFFCURVE",
"531 672 OFFCURVE",
"560 672 CURVE SMOOTH",
"599 672 OFFCURVE",
"615 653 OFFCURVE",
"615 622 CURVE SMOOTH",
"615 244 LINE",
"766 244 LINE",
"766 622 LINE SMOOTH",
"766 730 OFFCURVE",
"719 784 OFFCURVE",
"607 784 CURVE SMOOTH",
"542 784 OFFCURVE",
"496 752 OFFCURVE",
"465 718 CURVE"
);
}
);
width = 826;
},
{
anchors = (
{
name = abvm;
position = "{516, 830}";
},
{
name = blwm;
position = "{530, 244}";
},
{
name = blwm_self;
position = "{403, 244}";
}
);
components = (
{
alignment = -1;
locked = 1;
name = uni1796;
}
);
layerId = "9C354F0E-63BE-4945-A1C1-0B7B127DD18D";
paths = (
{
closed = 1;
nodes = (
"433 660 LINE",
"460 697 OFFCURVE",
"485 717 OFFCURVE",
"531 717 CURVE SMOOTH",
"598 717 OFFCURVE",
"629 678 OFFCURVE",
"629 622 CURVE SMOOTH",
"629 244 LINE",
"706 244 LINE",
"706 622 LINE SMOOTH",
"706 708 OFFCURVE",
"668 784 OFFCURVE",
"547 784 CURVE SMOOTH",
"485 784 OFFCURVE",
"446 760 OFFCURVE",
"419 725 CURVE"
);
}
);
width = 784;
},
{
anchors = (
{
name = abvm;
position = "{512, 830}";
},
{
name = blwm;
position = "{530, 244}";
},
{
name = blwm_self;
position = "{387, 244}";
}
);
components = (
{
alignment = -1;
locked = 1;
name = uni1796;
}
);
layerId = "DE962D09-1426-4D02-9608-9FE5B080C42D";
paths = (
{
closed = 1;
nodes = (
"390 700 LINE",
"433 738 OFFCURVE",
"462 758 OFFCURVE",
"523 758 CURVE SMOOTH",
"590 758 OFFCURVE",
"645 722 OFFCURVE",
"645 643 CURVE SMOOTH",
"645 244 LINE",
"671 244 LINE",
"671 643 LINE SMOOTH",
"671 738 OFFCURVE",
"602 784 OFFCURVE",
"523 784 CURVE SMOOTH",
"462 784 OFFCURVE",
"423 759 OFFCURVE",
"385 724 CURVE"
);
}
);
width = 761;
}
);
note = uni1789.a;
},
{
glyphname = uni178A;
lastChange = "2016-12-05 19:32:48 +0000";
layers = (
{
anchors = (
{
name = abvm;
position = "{317, 830}";
},
{
name = abvm_high;
position = "{317, 819}";
},
{
name = blwm;
position = "{317, 244}";
}
);
layerId = "46DC2CF2-3687-4CD7-A306-8CA7072459C9";
paths = (
{
closed = 1;
nodes = (
"408 664 LINE SMOOTH",
"512 664 OFFCURVE",
"537 694 OFFCURVE",
"537 756 CURVE SMOOTH",
"537 810 LINE",
"445 810 LINE",
"445 756 LINE SMOOTH",
"445 739 OFFCURVE",
"427 731 OFFCURVE",
"391 731 CURVE SMOOTH",
"189 731 LINE",
"189 784 LINE",
"98 784 LINE",
"98 664 LINE"
);
},
{
closed = 1;
nodes = (
"204 244 LINE",
"318 347 LINE",
"431 244 LINE",
"537 244 LINE",
"537 596 LINE",
"445 596 LINE",
"445 326 LINE",
"318 442 LINE",
"190 325 LINE",
"190 596 LINE",
"98 596 LINE",
"98 244 LINE"
);
}
);
width = 635;
},
{
anchors = (
{
name = abvm;
position = "{354, 830}";
},
{
name = abvm_high;
position = "{354, 797}";
},
{
name = blwm;
position = "{354, 244}";
}
);
layerId = "51E32C1F-DEF7-419B-8D63-3B39AA64BD60";
paths = (
{
closed = 1;
nodes = (
"503 617 LINE SMOOTH",
"586 617 OFFCURVE",
"619 663 OFFCURVE",
"619 752 CURVE SMOOTH",
"619 793 LINE",
"438 793 LINE",
"438 752 LINE SMOOTH",
"438 737 OFFCURVE",
"420 729 OFFCURVE",
"383 729 CURVE SMOOTH",
"271 729 LINE",
"271 764 LINE",
"90 764 LINE",
"90 617 LINE"
);
},
{
closed = 1;
nodes = (
"242 244 LINE",
"355 320 LINE",
"468 244 LINE",
"619 244 LINE",
"619 576 LINE",
"438 576 LINE",
"438 409 LINE",
"355 467 LINE",
"271 408 LINE",
"271 576 LINE",
"90 576 LINE",
"90 244 LINE"
);
}
);
width = 709;
},
{
anchors = (
{
name = abvm;
position = "{296, 848}";
},
{
name = abvm_high;
position = "{296, 819}";
},
{
name = blwm;
position = "{296, 244}";
}
);
guideLines = (
{
angle = 220.844;
position = "{222, 314}";
showMeasurement = 1;
},
{
angle = -41.2124;
position = "{384, 337}";
showMeasurement = 1;
}
);
layerId = "6517A2BC-7974-4B53-8E65-A6A29EB8D1E7";
paths = (
{
closed = 1;
nodes = (
"409 683 LINE SMOOTH",
"441 683 OFFCURVE",
"484 692 OFFCURVE",
"484 760 CURVE SMOOTH",
"484 818 LINE",
"458 818 LINE",
"458 761 LINE SMOOTH",
"458 727 OFFCURVE",
"449 707 OFFCURVE",
"392 707 CURVE SMOOTH",
"137 707 LINE",
"137 784 LINE",
"113 784 LINE",
"113 683 LINE"
);
},
{
closed = 1;
nodes = (
"142 244 LINE",
"298 379 LINE",
"452 244 LINE",
"484 244 LINE",
"484 596 LINE",
"458 596 LINE",
"458 274 LINE",
"298 414 LINE",
"136 274 LINE",
"136 596 LINE",
"110 596 LINE",
"110 244 LINE"
);
}
);
width = 594;
},
{
anchors = (
{
name = abvm;
position = "{281, 830}";
},
{
name = abvm_high;
position = "{281, 818}";
},
{
name = blwm;
position = "{281, 244}";
}
);
layerId = "0F8E8D95-EFB6-4635-B30D-2DA8DDB35575";
paths = (
{
closed = 1;
nodes = (
"397 617 LINE SMOOTH",
"483 617 OFFCURVE",
"501 663 OFFCURVE",
"501 752 CURVE SMOOTH",
"501 793 LINE",
"350 793 LINE",
"350 752 LINE SMOOTH",
"350 737 OFFCURVE",
"335 729 OFFCURVE",
"304 729 CURVE SMOOTH",
"211 729 LINE",
"211 764 LINE",
"60 764 LINE",
"60 617 LINE"
);
},
{
closed = 1;
nodes = (
"187 244 LINE",
"281 320 LINE",
"375 244 LINE",
"501 244 LINE",
"501 576 LINE",
"350 576 LINE",
"350 409 LINE",
"281 467 LINE",
"211 408 LINE",
"211 576 LINE",
"60 576 LINE",
"60 244 LINE"
);
}
);
width = 561;
},
{
anchors = (
{
name = abvm;
position = "{261, 830}";
},
{
name = abvm_high;
position = "{261, 819}";
},
{
name = blwm;
position = "{261, 244}";
}
);
layerId = "9C354F0E-63BE-4945-A1C1-0B7B127DD18D";
paths = (
{
closed = 1;
nodes = (
"333 664 LINE SMOOTH",
"414 664 OFFCURVE",
"444 694 OFFCURVE",
"444 756 CURVE SMOOTH",
"444 810 LINE",
"367 810 LINE",
"367 756 LINE SMOOTH",
"367 739 OFFCURVE",
"352 731 OFFCURVE",
"322 731 CURVE SMOOTH",
"155 731 LINE",
"155 784 LINE",
"78 784 LINE",
"78 664 LINE"
);
},
{
closed = 1;
nodes = (
"166 244 LINE",
"261 347 LINE",
"356 244 LINE",
"444 244 LINE",
"444 596 LINE",
"367 596 LINE",
"367 326 LINE",
"261 442 LINE",
"155 325 LINE",
"155 596 LINE",
"78 596 LINE",
"78 244 LINE"
);
}
);
width = 522;
},
{
anchors = (
{
name = abvm;
position = "{244, 848}";
},
{
name = abvm_high;
position = "{244, 819}";
},
{
name = blwm;
position = "{244, 244}";
}
);
guideLines = (
{
angle = 226.99;
position = "{183, 340}";
showMeasurement = 1;
},
{
angle = 132.549;
position = "{307, 310}";
}
);
layerId = "DE962D09-1426-4D02-9608-9FE5B080C42D";
paths = (
{
closed = 1;
nodes = (
"329 683 LINE SMOOTH",
"361 683 OFFCURVE",
"404 692 OFFCURVE",
"404 760 CURVE SMOOTH",
"404 818 LINE",
"378 818 LINE",
"378 761 LINE SMOOTH",
"378 727 OFFCURVE",
"369 707 OFFCURVE",
"312 707 CURVE SMOOTH",
"117 707 LINE",
"117 784 LINE",
"93 784 LINE",
"93 683 LINE"
);
},
{
closed = 1;
nodes = (
"125 244 LINE",
"248 376 LINE",
"369 244 LINE",
"404 244 LINE",
"404 596 LINE",
"378 596 LINE",
"378 273 LINE",
"248 414 LINE",
"116 273 LINE",
"116 596 LINE",
"90 596 LINE",
"90 244 LINE"
);
}
);
width = 494;
}
);
note = uni178A;
rightMetricsKey = uni1780;
unicode = 178A;
},
{
glyphname = uni178B;
lastChange = "2016-12-05 19:32:48 +0000";
layers = (
{
anchors = (
{
name = abvm;
position = "{297, 850}";
},
{
name = blwm;
position = "{317, 244}";
}
);
guideLines = (
{
angle = -38.5546;
position = "{445, 473}";
}
);
layerId = "46DC2CF2-3687-4CD7-A306-8CA7072459C9";
paths = (
{
closed = 1;
nodes = (
"464 244 OFFCURVE",
"537 297 OFFCURVE",
"537 402 CURVE SMOOTH",
"537 562 LINE",
"390 676 LINE",
"391 678 LINE",
"484 678 LINE SMOOTH",
"533 678 OFFCURVE",
"547 701 OFFCURVE",
"547 753 CURVE SMOOTH",
"547 813 LINE",
"455 813 LINE",
"455 775 LINE SMOOTH",
"455 753 OFFCURVE",
"444 745 OFFCURVE",
"421 745 CURVE SMOOTH",
"362 745 LINE",
"303 669 OFFCURVE",
"300 664 OFFCURVE",
"300 653 CURVE SMOOTH",
"300 639 OFFCURVE",
"312 629 OFFCURVE",
"445 523 CURVE",
"445 402 LINE SMOOTH",
"445 342 OFFCURVE",
"403 311 OFFCURVE",
"317 311 CURVE SMOOTH",
"232 311 OFFCURVE",
"190 342 OFFCURVE",
"190 402 CURVE SMOOTH",
"190 730 LINE SMOOTH",
"190 763 OFFCURVE",
"165 780 OFFCURVE",
"116 780 CURVE SMOOTH",
"39 780 LINE",
"39 713 LINE",
"78 713 OFFCURVE",
"98 705 OFFCURVE",
"98 680 CURVE SMOOTH",
"98 402 LINE SMOOTH",
"98 297 OFFCURVE",
"171 244 OFFCURVE",
"317 244 CURVE SMOOTH"
);
}
);
width = 635;
},
{
anchors = (
{
name = abvm;
position = "{345, 830}";
},
{
name = blwm;
position = "{365, 244}";
}
);
guideLines = (
{
angle = -48.8506;
position = "{567, 719}";
}
);
layerId = "51E32C1F-DEF7-419B-8D63-3B39AA64BD60";
paths = (
{
closed = 1;
nodes = (
"542 244 OFFCURVE",
"631 297 OFFCURVE",
"631 402 CURVE SMOOTH",
"631 561 LINE",
"569 630 LINE",
"570 632 LINE",
"595 632 LINE SMOOTH",
"631 632 OFFCURVE",
"640 653 OFFCURVE",
"640 678 CURVE SMOOTH",
"640 802 LINE",
"459 802 LINE",
"459 774 LINE SMOOTH",
"459 752 OFFCURVE",
"444 744 OFFCURVE",
"428 744 CURVE SMOOTH",
"410 744 LINE",
"375 698 OFFCURVE",
"348 669 OFFCURVE",
"348 652 CURVE SMOOTH",
"348 639 OFFCURVE",
"353 633 OFFCURVE",
"450 522 CURVE",
"450 447 LINE SMOOTH",
"450 387 OFFCURVE",
"420 356 OFFCURVE",
"365 356 CURVE SMOOTH",
"310 356 OFFCURVE",
"282 387 OFFCURVE",
"282 447 CURVE SMOOTH",
"282 717 LINE SMOOTH",
"282 763 OFFCURVE",
"243 780 OFFCURVE",
"164 780 CURVE SMOOTH",
"60 780 LINE",
"60 668 LINE",
"87 668 OFFCURVE",
"101 660 OFFCURVE",
"101 645 CURVE SMOOTH",
"101 402 LINE SMOOTH",
"101 297 OFFCURVE",
"189 244 OFFCURVE",
"365 244 CURVE SMOOTH"
);
}
);
width = 724;
},
{
anchors = (
{
name = abvm;
position = "{288, 856}";
},
{
name = blwm;
position = "{318, 244}";
}
);
guideLines = (
{
angle = -42.2446;
position = "{449, 690}";
}
);
layerId = "6517A2BC-7974-4B53-8E65-A6A29EB8D1E7";
paths = (
{
closed = 1;
nodes = (
"443 244 OFFCURVE",
"505 297 OFFCURVE",
"505 402 CURVE SMOOTH",
"505 569 LINE",
"383 680 LINE",
"421 734 LINE",
"471 734 LINE SMOOTH",
"509 734 OFFCURVE",
"518 749 OFFCURVE",
"518 785 CURVE SMOOTH",
"518 817 LINE",
"492 817 LINE",
"492 789 LINE SMOOTH",
"492 767 OFFCURVE",
"486 760 OFFCURVE",
"468 760 CURVE SMOOTH",
"413 760 LINE",
"402 746 OFFCURVE",
"361 700 OFFCURVE",
"361 680 CURVE SMOOTH",
"361 665 OFFCURVE",
"381 647 OFFCURVE",
"479 558 CURVE",
"479 402 LINE SMOOTH",
"479 308 OFFCURVE",
"426 270 OFFCURVE",
"318 270 CURVE SMOOTH",
"219 270 OFFCURVE",
"158 308 OFFCURVE",
"158 401 CURVE SMOOTH",
"158 747 LINE SMOOTH",
"158 776 OFFCURVE",
"144 780 OFFCURVE",
"117 780 CURVE SMOOTH",
"60 780 LINE",
"60 754 LINE",
"108 754 OFFCURVE",
"132 754 OFFCURVE",
"132 739 CURVE SMOOTH",
"132 402 LINE SMOOTH",
"132 297 OFFCURVE",
"194 244 OFFCURVE",
"318 244 CURVE SMOOTH"
);
}
);
width = 628;
},
{
anchors = (
{
name = abvm;
position = "{284, 830}";
},
{
name = blwm;
position = "{294, 244}";
}
);
guideLines = (
{
angle = -48.8506;
position = "{531, 744}";
}
);
layerId = "0F8E8D95-EFB6-4635-B30D-2DA8DDB35575";
paths = (
{
closed = 1;
nodes = (
"442 244 OFFCURVE",
"516 297 OFFCURVE",
"516 402 CURVE SMOOTH",
"516 538 LINE",
"466 600 LINE",
"467 602 LINE",
"481 602 LINE SMOOTH",
"517 602 OFFCURVE",
"526 623 OFFCURVE",
"526 648 CURVE SMOOTH",
"526 802 LINE",
"375 802 LINE",
"375 743 LINE SMOOTH",
"375 722 OFFCURVE",
"360 714 OFFCURVE",
"346 714 CURVE SMOOTH",
"332 714 LINE",
"303 668 OFFCURVE",
"280 639 OFFCURVE",
"280 622 CURVE SMOOTH",
"280 609 OFFCURVE",
"284 603 OFFCURVE",
"365 492 CURVE",
"365 447 LINE SMOOTH",
"365 387 OFFCURVE",
"340 356 OFFCURVE",
"294 356 CURVE SMOOTH",
"248 356 OFFCURVE",
"225 387 OFFCURVE",
"225 447 CURVE SMOOTH",
"225 725 LINE SMOOTH",
"225 763 OFFCURVE",
"193 780 OFFCURVE",
"127 780 CURVE SMOOTH",
"40 780 LINE",
"40 668 LINE",
"63 668 OFFCURVE",
"74 663 OFFCURVE",
"74 648 CURVE SMOOTH",
"74 402 LINE SMOOTH",
"74 297 OFFCURVE",
"148 244 OFFCURVE",
"294 244 CURVE SMOOTH"
);
}
);
width = 586;
},
{
anchors = (
{
name = abvm;
position = "{252, 850}";
},
{
name = blwm;
position = "{272, 244}";
}
);
layerId = "9C354F0E-63BE-4945-A1C1-0B7B127DD18D";
paths = (
{
closed = 1;
nodes = (
"394 244 OFFCURVE",
"455 297 OFFCURVE",
"455 402 CURVE SMOOTH",
"455 539 LINE",
"353 656 LINE",
"354 658 LINE",
"422 658 LINE SMOOTH",
"471 658 OFFCURVE",
"485 681 OFFCURVE",
"485 733 CURVE SMOOTH",
"485 813 LINE",
"408 813 LINE",
"408 752 LINE SMOOTH",
"408 733 OFFCURVE",
"399 725 OFFCURVE",
"378 725 CURVE SMOOTH",
"339 725 LINE",
"290 649 OFFCURVE",
"288 644 OFFCURVE",
"288 633 CURVE SMOOTH",
"288 615 OFFCURVE",
"298 609 OFFCURVE",
"378 503 CURVE",
"378 402 LINE SMOOTH",
"378 342 OFFCURVE",
"343 311 OFFCURVE",
"272 311 CURVE SMOOTH",
"201 311 OFFCURVE",
"166 342 OFFCURVE",
"166 402 CURVE SMOOTH",
"166 730 LINE SMOOTH",
"166 763 OFFCURVE",
"145 780 OFFCURVE",
"104 780 CURVE SMOOTH",
"40 780 LINE",
"40 713 LINE",
"73 713 OFFCURVE",
"89 705 OFFCURVE",
"89 690 CURVE SMOOTH",
"89 402 LINE SMOOTH",
"89 297 OFFCURVE",
"150 244 OFFCURVE",
"272 244 CURVE SMOOTH"
);
}
);
width = 563;
},
{
anchors = (
{
name = abvm;
position = "{256, 856}";
},
{
name = blwm;
position = "{276, 244}";
}
);
layerId = "DE962D09-1426-4D02-9608-9FE5B080C42D";
paths = (
{
closed = 1;
nodes = (
"375 244 OFFCURVE",
"437 297 OFFCURVE",
"437 402 CURVE SMOOTH",
"437 569 LINE",
"315 680 LINE",
"353 734 LINE",
"403 734 LINE SMOOTH",
"441 734 OFFCURVE",
"450 749 OFFCURVE",
"450 785 CURVE SMOOTH",
"450 817 LINE",
"424 817 LINE",
"424 789 LINE SMOOTH",
"424 767 OFFCURVE",
"418 760 OFFCURVE",
"400 760 CURVE SMOOTH",
"345 760 LINE",
"334 746 OFFCURVE",
"293 700 OFFCURVE",
"293 680 CURVE SMOOTH",
"293 665 OFFCURVE",
"313 647 OFFCURVE",
"411 558 CURVE",
"411 402 LINE SMOOTH",
"411 308 OFFCURVE",
"358 270 OFFCURVE",
"280 270 CURVE SMOOTH",
"211 270 OFFCURVE",
"150 308 OFFCURVE",
"150 401 CURVE SMOOTH",
"150 747 LINE SMOOTH",
"150 776 OFFCURVE",
"136 780 OFFCURVE",
"109 780 CURVE SMOOTH",
"60 780 LINE",
"60 754 LINE",
"108 754 OFFCURVE",
"124 754 OFFCURVE",
"124 739 CURVE SMOOTH",
"124 402 LINE SMOOTH",
"124 297 OFFCURVE",
"186 244 OFFCURVE",
"280 244 CURVE SMOOTH"
);
}
);
width = 540;
}
);
note = uni178B;
unicode = 178B;
},
{
glyphname = uni178C;
lastChange = "2016-12-05 19:32:48 +0000";
layers = (
{
anchors = (
{
name = abvm;
position = "{306, 830}";
},
{
name = blwm;
position = "{317, 244}";
}
);
layerId = "46DC2CF2-3687-4CD7-A306-8CA7072459C9";
paths = (
{
closed = 1;
nodes = (
"537 234 LINE",
"537 438 LINE",
"445 438 LINE",
"445 420 LINE SMOOTH",
"445 379 OFFCURVE",
"332 311 OFFCURVE",
"265 311 CURVE SMOOTH",
"217 311 OFFCURVE",
"190 342 OFFCURVE",
"190 402 CURVE SMOOTH",
"190 425 LINE",
"276 438 LINE SMOOTH",
"450 464 OFFCURVE",
"537 524 OFFCURVE",
"537 652 CURVE SMOOTH",
"537 715 OFFCURVE",
"498 780 OFFCURVE",
"426 780 CURVE SMOOTH",
"385 780 OFFCURVE",
"349 759 OFFCURVE",
"319 719 CURVE",
"317 719 LINE",
"281 760 OFFCURVE",
"259 780 OFFCURVE",
"217 780 CURVE SMOOTH",
"155 780 OFFCURVE",
"97 730 OFFCURVE",
"97 656 CURVE SMOOTH",
"97 577 OFFCURVE",
"148 545 OFFCURVE",
"201 545 CURVE SMOOTH",
"238 545 LINE",
"238 612 LINE",
"206 617 OFFCURVE",
"189 627 OFFCURVE",
"189 660 CURVE SMOOTH",
"189 686 OFFCURVE",
"202 707 OFFCURVE",
"224 707 CURVE SMOOTH",
"256 707 OFFCURVE",
"286 646 OFFCURVE",
"315 646 CURVE SMOOTH",
"334 646 OFFCURVE",
"346 662 OFFCURVE",
"358 678 CURVE SMOOTH",
"370 693 OFFCURVE",
"383 707 OFFCURVE",
"403 707 CURVE SMOOTH",
"431 707 OFFCURVE",
"445 681 OFFCURVE",
"445 642 CURVE SMOOTH",
"445 556 OFFCURVE",
"387 522 OFFCURVE",
"271 505 CURVE SMOOTH",
"98 480 LINE",
"98 402 LINE SMOOTH",
"98 312 OFFCURVE",
"155 244 OFFCURVE",
"254 244 CURVE SMOOTH",
"325 244 OFFCURVE",
"379 276 OFFCURVE",
"444 319 CURVE",
"445 319 LINE",
"445 234 LINE"
);
}
);
width = 635;
},
{
anchors = (
{
name = abvm;
position = "{341, 830}";
},
{
name = blwm;
position = "{354, 244}";
}
);
guideLines = (
{
angle = 190.905;
position = "{237, 445}";
}
);
layerId = "51E32C1F-DEF7-419B-8D63-3B39AA64BD60";
paths = (
{
closed = 1;
nodes = (
"620 234 LINE",
"620 418 LINE",
"439 418 LINE",
"439 404 LINE SMOOTH",
"439 383 OFFCURVE",
"354 351 OFFCURVE",
"317 351 CURVE SMOOTH",
"286 351 OFFCURVE",
"271 370 OFFCURVE",
"271 392 CURVE SMOOTH",
"271 401 LINE",
"313 409 LINE SMOOTH",
"502 445 OFFCURVE",
"619 531 OFFCURVE",
"619 648 CURVE SMOOTH",
"619 742 OFFCURVE",
"564 780 OFFCURVE",
"489 780 CURVE SMOOTH",
"432 780 OFFCURVE",
"393 759 OFFCURVE",
"356 719 CURVE",
"354 719 LINE",
"317 762 OFFCURVE",
"284 780 OFFCURVE",
"236 780 CURVE SMOOTH",
"136 780 OFFCURVE",
"90 724 OFFCURVE",
"90 656 CURVE SMOOTH",
"90 579 OFFCURVE",
"141 536 OFFCURVE",
"228 536 CURVE SMOOTH",
"273 536 LINE",
"273 621 LINE",
"270 621 OFFCURVE",
"260 625 OFFCURVE",
"260 640 CURVE SMOOTH",
"260 651 OFFCURVE",
"269 657 OFFCURVE",
"278 657 CURVE SMOOTH",
"300 657 OFFCURVE",
"328 601 OFFCURVE",
"355 601 CURVE SMOOTH",
"373 601 OFFCURVE",
"384 614 OFFCURVE",
"396 628 CURVE SMOOTH",
"409 643 OFFCURVE",
"423 657 OFFCURVE",
"431 657 CURVE SMOOTH",
"443 657 OFFCURVE",
"448 647 OFFCURVE",
"448 633 CURVE SMOOTH",
"448 589 OFFCURVE",
"396 539 OFFCURVE",
"308 522 CURVE SMOOTH",
"90 480 LINE",
"90 387 LINE SMOOTH",
"90 294 OFFCURVE",
"190 244 OFFCURVE",
"282 244 CURVE SMOOTH",
"329 244 OFFCURVE",
"382 257 OFFCURVE",
"438 309 CURVE",
"439 309 LINE",
"439 234 LINE"
);
}
);
width = 704;
},
{
anchors = (
{
name = abvm;
position = "{296, 830}";
},
{
name = blwm;
position = "{305, 244}";
}
);
guideLines = (
{
angle = 185.345;
position = "{208, 512}";
}
);
layerId = "6517A2BC-7974-4B53-8E65-A6A29EB8D1E7";
paths = (
{
closed = 1;
nodes = (
"492 234 LINE",
"492 428 LINE",
"466 428 LINE",
"466 414 LINE SMOOTH",
"466 376 OFFCURVE",
"351 270 OFFCURVE",
"248 270 CURVE SMOOTH",
"182 270 OFFCURVE",
"144 317 OFFCURVE",
"144 402 CURVE SMOOTH",
"144 446 LINE",
"294 470 LINE SMOOTH",
"411 489 OFFCURVE",
"492 546 OFFCURVE",
"492 660 CURVE SMOOTH",
"492 738 OFFCURVE",
"460 780 OFFCURVE",
"401 780 CURVE SMOOTH",
"362 780 OFFCURVE",
"328 750 OFFCURVE",
"302 718 CURVE",
"301 718 LINE",
"282 745 OFFCURVE",
"255 780 OFFCURVE",
"206 780 CURVE SMOOTH",
"155 780 OFFCURVE",
"110 727 OFFCURVE",
"110 660 CURVE SMOOTH",
"110 606 OFFCURVE",
"136 545 OFFCURVE",
"209 545 CURVE SMOOTH",
"220 545 LINE",
"220 571 LINE",
"155 571 OFFCURVE",
"136 606 OFFCURVE",
"136 664 CURVE SMOOTH",
"136 706 OFFCURVE",
"164 754 OFFCURVE",
"205 754 CURVE SMOOTH",
"259 754 OFFCURVE",
"271 690 OFFCURVE",
"301 690 CURVE SMOOTH",
"314 690 OFFCURVE",
"328 707 OFFCURVE",
"338 719 CURVE SMOOTH",
"350 733 OFFCURVE",
"371 754 OFFCURVE",
"401 754 CURVE SMOOTH",
"439 754 OFFCURVE",
"466 724 OFFCURVE",
"466 655 CURVE SMOOTH",
"466 572 OFFCURVE",
"405 514 OFFCURVE",
"289 496 CURVE SMOOTH",
"118 470 LINE",
"118 402 LINE SMOOTH",
"118 289 OFFCURVE",
"177 244 OFFCURVE",
"248 244 CURVE SMOOTH",
"323 244 OFFCURVE",
"418 298 OFFCURVE",
"465 365 CURVE",
"466 365 LINE",
"466 234 LINE"
);
}
);
width = 602;
},
{
anchors = (
{
name = abvm;
position = "{264, 830}";
},
{
name = blwm;
position = "{273, 244}";
}
);
guideLines = (
{
angle = 192.995;
position = "{184, 448}";
}
);
layerId = "0F8E8D95-EFB6-4635-B30D-2DA8DDB35575";
paths = (
{
closed = 1;
nodes = (
"495 234 LINE",
"495 418 LINE",
"344 418 LINE",
"344 404 LINE SMOOTH",
"344 383 OFFCURVE",
"273 351 OFFCURVE",
"242 351 CURVE SMOOTH",
"217 351 OFFCURVE",
"204 370 OFFCURVE",
"204 392 CURVE SMOOTH",
"204 401 LINE",
"239 409 LINE SMOOTH",
"397 445 OFFCURVE",
"494 531 OFFCURVE",
"494 648 CURVE SMOOTH",
"494 742 OFFCURVE",
"448 780 OFFCURVE",
"386 780 CURVE SMOOTH",
"338 780 OFFCURVE",
"306 759 OFFCURVE",
"275 719 CURVE",
"273 719 LINE",
"242 762 OFFCURVE",
"215 780 OFFCURVE",
"175 780 CURVE SMOOTH",
"91 780 OFFCURVE",
"53 724 OFFCURVE",
"53 656 CURVE SMOOTH",
"53 579 OFFCURVE",
"96 536 OFFCURVE",
"168 536 CURVE SMOOTH",
"206 536 LINE",
"206 621 LINE",
"203 621 OFFCURVE",
"195 625 OFFCURVE",
"195 640 CURVE SMOOTH",
"195 651 OFFCURVE",
"202 657 OFFCURVE",
"210 657 CURVE SMOOTH",
"228 657 OFFCURVE",
"252 601 OFFCURVE",
"274 601 CURVE SMOOTH",
"289 601 OFFCURVE",
"298 614 OFFCURVE",
"308 628 CURVE SMOOTH",
"319 643 OFFCURVE",
"331 657 OFFCURVE",
"337 657 CURVE SMOOTH",
"347 657 OFFCURVE",
"352 647 OFFCURVE",
"352 633 CURVE SMOOTH",
"352 589 OFFCURVE",
"308 539 OFFCURVE",
"235 522 CURVE SMOOTH",
"53 480 LINE",
"53 387 LINE SMOOTH",
"53 294 OFFCURVE",
"136 244 OFFCURVE",
"213 244 CURVE SMOOTH",
"252 244 OFFCURVE",
"297 257 OFFCURVE",
"343 309 CURVE",
"344 309 LINE",
"344 234 LINE"
);
}
);
width = 555;
},
{
anchors = (
{
name = abvm;
position = "{252, 830}";
},
{
name = blwm;
position = "{262, 244}";
}
);
layerId = "9C354F0E-63BE-4945-A1C1-0B7B127DD18D";
paths = (
{
closed = 1;
nodes = (
"445 234 LINE",
"445 438 LINE",
"368 438 LINE",
"368 431 LINE SMOOTH",
"368 380 OFFCURVE",
"269 311 OFFCURVE",
"217 311 CURVE SMOOTH",
"179 311 OFFCURVE",
"155 342 OFFCURVE",
"155 402 CURVE SMOOTH",
"155 435 LINE",
"227 448 LINE SMOOTH",
"372 474 OFFCURVE",
"445 538 OFFCURVE",
"445 660 CURVE SMOOTH",
"445 729 OFFCURVE",
"417 790 OFFCURVE",
"357 790 CURVE SMOOTH",
"322 790 OFFCURVE",
"292 768 OFFCURVE",
"263 729 CURVE",
"262 729 LINE",
"232 770 OFFCURVE",
"213 790 OFFCURVE",
"178 790 CURVE SMOOTH",
"127 790 OFFCURVE",
"79 740 OFFCURVE",
"79 671 CURVE SMOOTH",
"79 587 OFFCURVE",
"120 555 OFFCURVE",
"172 555 CURVE SMOOTH",
"196 555 LINE",
"196 625 LINE",
"169 625 OFFCURVE",
"155 637 OFFCURVE",
"155 670 CURVE SMOOTH",
"155 696 OFFCURVE",
"167 717 OFFCURVE",
"185 717 CURVE SMOOTH",
"216 717 OFFCURVE",
"236 656 OFFCURVE",
"262 656 CURVE SMOOTH",
"276 656 OFFCURVE",
"287 673 OFFCURVE",
"298 689 CURVE SMOOTH",
"308 704 OFFCURVE",
"320 717 OFFCURVE",
"336 717 CURVE SMOOTH",
"355 717 OFFCURVE",
"368 695 OFFCURVE",
"368 653 CURVE SMOOTH",
"368 570 OFFCURVE",
"320 532 OFFCURVE",
"223 515 CURVE SMOOTH",
"78 490 LINE",
"78 402 LINE SMOOTH",
"78 312 OFFCURVE",
"124 244 OFFCURVE",
"214 244 CURVE SMOOTH",
"271 244 OFFCURVE",
"307 276 OFFCURVE",
"367 319 CURVE",
"368 319 LINE",
"368 234 LINE"
);
}
);
width = 523;
},
{
anchors = (
{
name = abvm;
position = "{262, 830}";
},
{
name = blwm;
position = "{267, 244}";
}
);
guideLines = (
{
angle = 185.268;
position = "{175, 509}";
}
);
layerId = "DE962D09-1426-4D02-9608-9FE5B080C42D";
paths = (
{
closed = 1;
nodes = (
"413 234 LINE",
"413 428 LINE",
"387 428 LINE",
"387 402 LINE SMOOTH",
"387 355 OFFCURVE",
"266 270 OFFCURVE",
"210 270 CURVE SMOOTH",
"152 270 OFFCURVE",
"125 317 OFFCURVE",
"125 402 CURVE SMOOTH",
"125 452 LINE",
"245 468 LINE SMOOTH",
"346 481 OFFCURVE",
"423 540 OFFCURVE",
"423 660 CURVE SMOOTH",
"423 731 OFFCURVE",
"385 780 OFFCURVE",
"340 780 CURVE SMOOTH",
"306 780 OFFCURVE",
"291 766 OFFCURVE",
"257 728 CURVE",
"256 728 LINE",
"224 765 OFFCURVE",
"210 780 OFFCURVE",
"182 780 CURVE SMOOTH",
"140 780 OFFCURVE",
"90 728 OFFCURVE",
"90 660 CURVE SMOOTH",
"90 596 OFFCURVE",
"127 545 OFFCURVE",
"189 545 CURVE SMOOTH",
"197 545 LINE",
"197 571 LINE",
"139 571 OFFCURVE",
"116 611 OFFCURVE",
"116 661 CURVE SMOOTH",
"116 706 OFFCURVE",
"146 754 OFFCURVE",
"180 754 CURVE SMOOTH",
"216 754 OFFCURVE",
"231 700 OFFCURVE",
"257 700 CURVE SMOOTH",
"270 700 OFFCURVE",
"280 716 OFFCURVE",
"293 729 CURVE SMOOTH",
"309 745 OFFCURVE",
"319 754 OFFCURVE",
"339 754 CURVE SMOOTH",
"371 754 OFFCURVE",
"397 716 OFFCURVE",
"397 652 CURVE SMOOTH",
"397 554 OFFCURVE",
"327 504 OFFCURVE",
"240 493 CURVE SMOOTH",
"99 475 LINE",
"99 402 LINE SMOOTH",
"99 289 OFFCURVE",
"139 244 OFFCURVE",
"211 244 CURVE SMOOTH",
"253 244 OFFCURVE",
"324 279 OFFCURVE",
"386 345 CURVE",
"387 345 LINE",
"387 234 LINE"
);
}
);
width = 513;
}
);
note = uni178C;
unicode = 178C;
},
{
glyphname = uni178D;
lastChange = "2016-12-05 19:32:48 +0000";
layers = (
{
anchors = (
{
name = abvm;
position = "{637, 830}";
},
{
name = blwm;
position = "{671, 244}";
}
);
components = (
{
alignment = -1;
locked = 1;
name = uni1796;
},
{
alignment = -1;
locked = 1;
name = topout.right;
transform = "{1, 0, 0, 1, 628, 194}";
}
);
guideLines = (
{
angle = 270;
position = "{731, 250}";
showMeasurement = 1;
}
);
layerId = "46DC2CF2-3687-4CD7-A306-8CA7072459C9";
paths = (
{
closed = 1;
nodes = (
"738 573 LINE",
"738 389 LINE SMOOTH",
"738 350 OFFCURVE",
"720 308 OFFCURVE",
"683 308 CURVE SMOOTH",
"648 308 OFFCURVE",
"609 336 OFFCURVE",
"590 428 CURVE",
"520 428 LINE",
"520 361 LINE",
"544 361 LINE",
"572 294 OFFCURVE",
"613 244 OFFCURVE",
"692 244 CURVE SMOOTH",
"776 244 OFFCURVE",
"830 312 OFFCURVE",
"830 402 CURVE SMOOTH",
"830 573 LINE"
);
}
);
width = 924;
},
{
anchors = (
{
name = abvm;
position = "{700, 830}";
},
{
name = blwm;
position = "{695, 244}";
}
);
components = (
{
alignment = -1;
locked = 1;
name = uni1796;
},
{
alignment = -1;
locked = 1;
name = topout.right;
transform = "{1, 0, 0, 1, 682, 194}";
}
);
layerId = "51E32C1F-DEF7-419B-8D63-3B39AA64BD60";
paths = (
{
closed = 1;
nodes = (
"746 565 LINE",
"746 413 LINE SMOOTH",
"746 380 OFFCURVE",
"729 365 OFFCURVE",
"706 365 CURVE SMOOTH",
"679 365 OFFCURVE",
"664 385 OFFCURVE",
"653 419 CURVE",
"606 419 LINE",
"606 303 LINE",
"633 303 LINE",
"667 266 OFFCURVE",
"700 244 OFFCURVE",
"762 244 CURVE SMOOTH",
"838 244 OFFCURVE",
"927 295 OFFCURVE",
"927 407 CURVE SMOOTH",
"927 565 LINE"
);
}
);
width = 1005;
},
{
anchors = (
{
name = abvm;
position = "{593, 830}";
},
{
name = blwm;
position = "{638, 244}";
}
);
components = (
{
alignment = -1;
locked = 1;
name = uni1796;
},
{
alignment = -1;
locked = 1;
name = topout.right;
transform = "{1, 0, 0, 1, 633, 194}";
}
);
layerId = "6517A2BC-7974-4B53-8E65-A6A29EB8D1E7";
paths = (
{
closed = 1;
nodes = (
"746 581 LINE",
"746 382 LINE SMOOTH",
"746 313 OFFCURVE",
"697 270 OFFCURVE",
"642 270 CURVE SMOOTH",
"580 270 OFFCURVE",
"530 308 OFFCURVE",
"511 415 CURVE",
"476 415 LINE",
"476 389 LINE",
"493 389 LINE",
"516 280 OFFCURVE",
"577 244 OFFCURVE",
"642 244 CURVE SMOOTH",
"714 244 OFFCURVE",
"772 294 OFFCURVE",
"772 392 CURVE SMOOTH",
"772 581 LINE"
);
}
);
width = 885;
},
{
anchors = (
{
name = abvm;
position = "{562, 830}";
},
{
name = blwm;
position = "{578, 244}";
}
);
components = (
{
alignment = -1;
locked = 1;
name = uni1796;
},
{
alignment = -1;
locked = 1;
name = topout.right;
transform = "{1, 0, 0, 1, 500, 194}";
}
);
guideLines = (
{
position = "{544, 513}";
showMeasurement = 1;
}
);
layerId = "0F8E8D95-EFB6-4635-B30D-2DA8DDB35575";
paths = (
{
closed = 1;
nodes = (
"603 565 LINE",
"603 413 LINE SMOOTH",
"603 380 OFFCURVE",
"588 365 OFFCURVE",
"569 365 CURVE SMOOTH",
"547 365 OFFCURVE",
"534 385 OFFCURVE",
"525 419 CURVE",
"486 419 LINE",
"486 303 LINE",
"509 303 LINE",
"529 266 OFFCURVE",
"561 244 OFFCURVE",
"610 244 CURVE SMOOTH",
"673 244 OFFCURVE",
"754 295 OFFCURVE",
"754 407 CURVE SMOOTH",
"754 565 LINE"
);
}
);
width = 822;
},
{
anchors = (
{
name = abvm;
position = "{538, 830}";
},
{
name = blwm;
position = "{559, 244}";
}
);
components = (
{
alignment = -1;
locked = 1;
name = uni1796;
},
{
alignment = -1;
locked = 1;
name = topout.right;
transform = "{1, 0, 0, 1, 524, 194}";
}
);
guideLines = (
{
angle = 270;
position = "{691, 494}";
showMeasurement = 1;
},
{
position = "{535, 532}";
showMeasurement = 1;
}
);
layerId = "9C354F0E-63BE-4945-A1C1-0B7B127DD18D";
paths = (
{
closed = 1;
nodes = (
"621 573 LINE",
"621 389 LINE SMOOTH",
"621 350 OFFCURVE",
"606 308 OFFCURVE",
"575 308 CURVE SMOOTH",
"546 308 OFFCURVE",
"513 336 OFFCURVE",
"497 428 CURVE",
"439 428 LINE",
"439 361 LINE",
"459 361 LINE",
"482 294 OFFCURVE",
"517 244 OFFCURVE",
"582 244 CURVE SMOOTH",
"652 244 OFFCURVE",
"698 312 OFFCURVE",
"698 402 CURVE SMOOTH",
"698 573 LINE"
);
}
);
width = 787;
},
{
anchors = (
{
name = abvm;
position = "{499, 830}";
},
{
name = blwm;
position = "{513, 244}";
}
);
components = (
{
alignment = -1;
locked = 1;
name = uni1796;
},
{
alignment = -1;
locked = 1;
name = topout.right;
transform = "{1, 0, 0, 1, 528, 194}";
}
);
layerId = "DE962D09-1426-4D02-9608-9FE5B080C42D";
paths = (
{
closed = 1;
nodes = (
"619 561 LINE",
"619 382 LINE SMOOTH",
"619 313 OFFCURVE",
"588 270 OFFCURVE",
"536 270 CURVE SMOOTH",
"475 270 OFFCURVE",
"450 324 OFFCURVE",
"424 415 CURVE",
"389 415 LINE",
"389 389 LINE",
"406 389 LINE",
"432 293 OFFCURVE",
"466 244 OFFCURVE",
"536 244 CURVE SMOOTH",
"605 244 OFFCURVE",
"645 294 OFFCURVE",
"645 392 CURVE SMOOTH",
"645 561 LINE"
);
}
);
width = 745;
}
);
leftMetricsKey = uni1796;
note = uni178D;
unicode = 178D;
},
{
glyphname = uni178E;
lastChange = "2016-12-05 19:32:48 +0000";
layers = (
{
anchors = (
{
name = abvm;
position = "{617, 830}";
},
{
name = blwm;
position = "{620, 244}";
}
);
components = (
{
alignment = -1;
name = loopleft;
transform = "{1, 0, 0, 1, 0, 244}";
}
);
layerId = "46DC2CF2-3687-4CD7-A306-8CA7072459C9";
paths = (
{
closed = 1;
nodes = (
"190 479 LINE",
"190 622 LINE SMOOTH",
"190 682 OFFCURVE",
"227 713 OFFCURVE",
"302 713 CURVE SMOOTH",
"377 713 OFFCURVE",
"415 682 OFFCURVE",
"415 622 CURVE SMOOTH",
"415 244 LINE",
"521 244 LINE",
"620 333 LINE",
"718 244 LINE",
"824 244 LINE",
"824 622 LINE SMOOTH",
"824 682 OFFCURVE",
"862 713 OFFCURVE",
"937 713 CURVE SMOOTH",
"1012 713 OFFCURVE",
"1050 682 OFFCURVE",
"1050 622 CURVE SMOOTH",
"1050 244 LINE",
"1142 244 LINE",
"1142 622 LINE SMOOTH",
"1142 727 OFFCURVE",
"1073 780 OFFCURVE",
"937 780 CURVE SMOOTH",
"801 780 OFFCURVE",
"732 727 OFFCURVE",
"732 622 CURVE SMOOTH",
"732 326 LINE",
"620 428 LINE",
"507 325 LINE",
"507 622 LINE SMOOTH",
"507 727 OFFCURVE",
"438 780 OFFCURVE",
"302 780 CURVE SMOOTH",
"166 780 OFFCURVE",
"98 727 OFFCURVE",
"98 622 CURVE SMOOTH",
"98 479 LINE"
);
}
);
width = 1240;
},
{
anchors = (
{
name = abvm;
position = "{657, 830}";
},
{
name = blwm;
position = "{655, 244}";
}
);
components = (
{
alignment = -1;
name = loopleft;
transform = "{1, 0, 0, 1, 37, 244}";
}
);
layerId = "51E32C1F-DEF7-419B-8D63-3B39AA64BD60";
paths = (
{
closed = 1;
nodes = (
"271 495 LINE",
"271 622 LINE SMOOTH",
"271 653 OFFCURVE",
"294 668 OFFCURVE",
"339 668 CURVE SMOOTH",
"386 668 OFFCURVE",
"409 653 OFFCURVE",
"409 622 CURVE SMOOTH",
"409 244 LINE",
"560 244 LINE",
"657 306 LINE",
"755 244 LINE",
"906 244 LINE",
"906 622 LINE SMOOTH",
"906 653 OFFCURVE",
"929 668 OFFCURVE",
"974 668 CURVE SMOOTH",
"1019 668 OFFCURVE",
"1042 653 OFFCURVE",
"1042 622 CURVE SMOOTH",
"1042 244 LINE",
"1223 244 LINE",
"1223 622 LINE SMOOTH",
"1223 727 OFFCURVE",
"1139 780 OFFCURVE",
"974 780 CURVE SMOOTH",
"809 780 OFFCURVE",
"725 727 OFFCURVE",
"725 622 CURVE SMOOTH",
"725 409 LINE",
"657 453 LINE",
"590 408 LINE",
"590 622 LINE SMOOTH",
"590 727 OFFCURVE",
"504 780 OFFCURVE",
"339 780 CURVE SMOOTH",
"173 780 OFFCURVE",
"90 727 OFFCURVE",
"90 622 CURVE SMOOTH",
"90 495 LINE"
);
}
);
width = 1313;
},
{
anchors = (
{
name = abvm;
position = "{599, 830}";
},
{
name = blwm;
position = "{599, 244}";
}
);
components = (
{
alignment = -1;
name = loopleft;
transform = "{1, 0, 0, 1, -20, 244}";
}
);
guideLines = (
{
position = "{565, 336}";
},
{
angle = 43.7455;
position = "{513, 332}";
},
{
angle = 136.049;
position = "{682, 334}";
}
);
layerId = "6517A2BC-7974-4B53-8E65-A6A29EB8D1E7";
paths = (
{
closed = 1;
nodes = (
"136 432 LINE",
"136 622 LINE SMOOTH",
"136 703 OFFCURVE",
"186 754 OFFCURVE",
"281 754 CURVE SMOOTH",
"376 754 OFFCURVE",
"427 703 OFFCURVE",
"427 622 CURVE SMOOTH",
"427 244 LINE",
"459 244 LINE",
"599 378 LINE",
"738 244 LINE",
"770 244 LINE",
"770 622 LINE SMOOTH",
"770 703 OFFCURVE",
"821 754 OFFCURVE",
"916 754 CURVE SMOOTH",
"1011 754 OFFCURVE",
"1062 703 OFFCURVE",
"1062 622 CURVE SMOOTH",
"1062 244 LINE",
"1088 244 LINE",
"1088 622 LINE SMOOTH",
"1088 727 OFFCURVE",
"1029 780 OFFCURVE",
"916 780 CURVE SMOOTH",
"803 780 OFFCURVE",
"744 727 OFFCURVE",
"744 622 CURVE SMOOTH",
"744 274 LINE",
"599 414 LINE",
"453 274 LINE",
"453 622 LINE SMOOTH",
"453 727 OFFCURVE",
"394 780 OFFCURVE",
"281 780 CURVE SMOOTH",
"167 780 OFFCURVE",
"110 727 OFFCURVE",
"110 622 CURVE SMOOTH",
"110 432 LINE"
);
}
);
width = 1198;
},
{
anchors = (
{
name = abvm;
position = "{533, 830}";
},
{
name = blwm;
position = "{533, 244}";
}
);
components = (
{
alignment = -1;
name = loopleft;
transform = "{1, 0, 0, 1, 0, 244}";
}
);
layerId = "0F8E8D95-EFB6-4635-B30D-2DA8DDB35575";
paths = (
{
closed = 1;
nodes = (
"211 495 LINE",
"211 622 LINE SMOOTH",
"211 653 OFFCURVE",
"230 668 OFFCURVE",
"268 668 CURVE SMOOTH",
"307 668 OFFCURVE",
"326 653 OFFCURVE",
"326 622 CURVE SMOOTH",
"326 244 LINE",
"452 244 LINE",
"533 306 LINE",
"614 244 LINE",
"740 244 LINE",
"740 622 LINE SMOOTH",
"740 653 OFFCURVE",
"759 668 OFFCURVE",
"797 668 CURVE SMOOTH",
"834 668 OFFCURVE",
"853 653 OFFCURVE",
"853 622 CURVE SMOOTH",
"853 244 LINE",
"1004 244 LINE",
"1004 622 LINE SMOOTH",
"1004 727 OFFCURVE",
"934 780 OFFCURVE",
"797 780 CURVE SMOOTH",
"659 780 OFFCURVE",
"589 727 OFFCURVE",
"589 622 CURVE SMOOTH",
"589 409 LINE",
"533 453 LINE",
"477 408 LINE",
"477 622 LINE SMOOTH",
"477 727 OFFCURVE",
"405 780 OFFCURVE",
"268 780 CURVE SMOOTH",
"129 780 OFFCURVE",
"60 727 OFFCURVE",
"60 622 CURVE SMOOTH",
"60 495 LINE"
);
}
);
width = 1064;
},
{
anchors = (
{
name = abvm;
position = "{514, 830}";
},
{
name = blwm;
position = "{514, 244}";
}
);
components = (
{
alignment = -1;
name = loopleft;
transform = "{1, 0, 0, 1, 3, 244}";
}
);
layerId = "9C354F0E-63BE-4945-A1C1-0B7B127DD18D";
paths = (
{
closed = 1;
nodes = (
"155 480 LINE",
"155 622 LINE SMOOTH",
"155 682 OFFCURVE",
"187 713 OFFCURVE",
"249 713 CURVE SMOOTH",
"312 713 OFFCURVE",
"343 682 OFFCURVE",
"343 622 CURVE SMOOTH",
"343 244 LINE",
"432 244 LINE",
"514 333 LINE",
"596 244 LINE",
"684 244 LINE",
"684 622 LINE SMOOTH",
"684 682 OFFCURVE",
"716 713 OFFCURVE",
"778 713 CURVE SMOOTH",
"841 713 OFFCURVE",
"872 682 OFFCURVE",
"872 622 CURVE SMOOTH",
"872 244 LINE",
"949 244 LINE",
"949 622 LINE SMOOTH",
"949 727 OFFCURVE",
"892 780 OFFCURVE",
"778 780 CURVE SMOOTH",
"665 780 OFFCURVE",
"607 727 OFFCURVE",
"607 622 CURVE SMOOTH",
"607 326 LINE",
"514 428 LINE",
"420 325 LINE",
"420 622 LINE SMOOTH",
"420 727 OFFCURVE",
"362 780 OFFCURVE",
"249 780 CURVE SMOOTH",
"136 780 OFFCURVE",
"78 727 OFFCURVE",
"78 622 CURVE SMOOTH",
"78 480 LINE"
);
}
);
width = 1027;
},
{
anchors = (
{
name = abvm;
position = "{498, 830}";
},
{
name = blwm;
position = "{498, 244}";
}
);
components = (
{
alignment = -1;
name = loopleft;
transform = "{1, 0, 0, 1, 0, 244}";
}
);
guideLines = (
{
angle = 228.532;
position = "{428, 333}";
},
{
angle = 130.965;
position = "{569, 330}";
}
);
layerId = "DE962D09-1426-4D02-9608-9FE5B080C42D";
paths = (
{
closed = 1;
nodes = (
"116 434 LINE",
"116 622 LINE SMOOTH",
"116 703 OFFCURVE",
"153 754 OFFCURVE",
"233 754 CURVE SMOOTH",
"312 754 OFFCURVE",
"350 703 OFFCURVE",
"350 622 CURVE SMOOTH",
"350 244 LINE",
"384 244 LINE",
"498 373 LINE",
"610 244 LINE",
"644 244 LINE",
"644 622 LINE SMOOTH",
"644 703 OFFCURVE",
"683 754 OFFCURVE",
"762 754 CURVE SMOOTH",
"841 754 OFFCURVE",
"879 703 OFFCURVE",
"879 622 CURVE SMOOTH",
"879 244 LINE",
"905 244 LINE",
"905 622 LINE SMOOTH",
"905 727 OFFCURVE",
"852 780 OFFCURVE",
"762 780 CURVE SMOOTH",
"672 780 OFFCURVE",
"618 727 OFFCURVE",
"618 622 CURVE SMOOTH",
"618 274 LINE",
"498 412 LINE",
"376 274 LINE",
"376 622 LINE SMOOTH",
"376 727 OFFCURVE",
"323 780 OFFCURVE",
"233 780 CURVE SMOOTH",
"142 780 OFFCURVE",
"90 727 OFFCURVE",
"90 622 CURVE SMOOTH",
"90 434 LINE"
);
}
);
width = 995;
}
);
note = uni178E;
unicode = 178E;
},
{
glyphname = uni178F;
lastChange = "2016-12-05 19:32:48 +0000";
layers = (
{
anchors = (
{
name = abvm;
position = "{318, 830}";
},
{
name = blwm;
position = "{317, 244}";
}
);
components = (
{
alignment = -1;
name = uni178F.base;
transform = "{1, 0, 0, 1, 0, 244}";
}
);
guideLines = (
{
position = "{318, 586}";
}
);
layerId = "46DC2CF2-3687-4CD7-A306-8CA7072459C9";
paths = (
{
closed = 1;
nodes = (
"537 713 LINE",
"537 780 LINE",
"98 780 LINE",
"98 713 LINE"
);
}
);
width = 635;
},
{
anchors = (
{
name = abvm;
position = "{355, 830}";
},
{
name = blwm;
position = "{354, 244}";
}
);
components = (
{
alignment = -1;
name = uni178F.base;
transform = "{1, 0, 0, 1, 6, 244}";
}
);
guideLines = (
{
position = "{355, 830}";
}
);
layerId = "51E32C1F-DEF7-419B-8D63-3B39AA64BD60";
paths = (
{
closed = 1;
nodes = (
"619 668 LINE",
"619 780 LINE",
"90 780 LINE",
"90 668 LINE"
);
}
);
width = 710;
},
{
anchors = (
{
name = abvm;
position = "{295, 830}";
},
{
name = blwm;
position = "{296, 244}";
}
);
components = (
{
alignment = -1;
name = uni178F.base;
transform = "{1, 0, 0, 1, 0, 244}";
}
);
guideLines = (
{
position = "{297, 830}";
}
);
layerId = "6517A2BC-7974-4B53-8E65-A6A29EB8D1E7";
paths = (
{
closed = 1;
nodes = (
"481 754 LINE",
"481 780 LINE",
"110 780 LINE",
"110 754 LINE"
);
}
);
width = 593;
},
{
anchors = (
{
name = abvm;
position = "{281, 830}";
},
{
name = blwm;
position = "{297, 244}";
}
);
components = (
{
alignment = -1;
name = uni178F.base;
transform = "{1, 0, 0, 1, 0, 244}";
}
);
guideLines = (
{
position = "{281, 830}";
}
);
layerId = "0F8E8D95-EFB6-4635-B30D-2DA8DDB35575";
paths = (
{
closed = 1;
nodes = (
"501 668 LINE",
"501 780 LINE",
"60 780 LINE",
"60 668 LINE"
);
}
);
width = 562;
},
{
anchors = (
{
name = abvm;
position = "{259, 830}";
},
{
name = blwm;
position = "{271, 244}";
}
);
components = (
{
alignment = -1;
name = uni178F.base;
transform = "{1, 0, 0, 1, 1, 244}";
}
);
guideLines = (
{
position = "{262, 830}";
}
);
layerId = "9C354F0E-63BE-4945-A1C1-0B7B127DD18D";
paths = (
{
closed = 1;
nodes = (
"445 713 LINE",
"445 780 LINE",
"79 780 LINE",
"79 713 LINE"
);
}
);
width = 523;
},
{
anchors = (
{
name = abvm;
position = "{245, 830}";
},
{
name = blwm;
position = "{251, 244}";
}
);
components = (
{
alignment = -1;
name = uni178F.base;
transform = "{1, 0, 0, 1, 0, 244}";
}
);
guideLines = (
{
position = "{246, 830}";
}
);
layerId = "DE962D09-1426-4D02-9608-9FE5B080C42D";
paths = (
{
closed = 1;
nodes = (
"401 754 LINE",
"401 780 LINE",
"90 780 LINE",
"90 754 LINE"
);
}
);
width = 491;
}
);
leftMetricsKey = uni1780;
note = uni178F;
rightMetricsKey = uni1780;
unicode = 178F;
},
{
glyphname = uni1790;
lastChange = "2016-12-05 19:32:48 +0000";
layers = (
{
anchors = (
{
name = abvm;
position = "{307, 850}";
},
{
name = abvm_high;
position = "{307, 839}";
},
{
name = blwm;
position = "{317, 244}";
}
);
components = (
{
alignment = -1;
name = looptop.left;
transform = "{1, 0, 0, 1, 0, 194}";
}
);
guideLines = (
{
position = "{857, 780}";
}
);
layerId = "46DC2CF2-3687-4CD7-A306-8CA7072459C9";
paths = (
{
closed = 1;
nodes = (
"445 410 LINE",
"445 402 LINE SMOOTH",
"445 342 OFFCURVE",
"403 311 OFFCURVE",
"317 311 CURVE SMOOTH",
"232 311 OFFCURVE",
"190 342 OFFCURVE",
"190 402 CURVE SMOOTH",
"190 564 LINE",
"137 624 OFFCURVE",
"116 647 OFFCURVE",
"116 664 CURVE SMOOTH",
"116 667 OFFCURVE",
"119 671 OFFCURVE",
"128 683 CURVE",
"436 683 LINE SMOOTH",
"502 683 OFFCURVE",
"537 713 OFFCURVE",
"537 774 CURVE SMOOTH",
"537 790 LINE",
"445 790 LINE",
"445 774 LINE SMOOTH",
"445 758 OFFCURVE",
"436 750 OFFCURVE",
"409 750 CURVE SMOOTH",
"126 750 LINE",
"56 657 OFFCURVE",
"49 657 OFFCURVE",
"49 630 CURVE SMOOTH",
"49 613 OFFCURVE",
"63 592 OFFCURVE",
"98 548 CURVE",
"98 402 LINE SMOOTH",
"98 297 OFFCURVE",
"171 244 OFFCURVE",
"317 244 CURVE SMOOTH",
"464 244 OFFCURVE",
"537 297 OFFCURVE",
"537 402 CURVE SMOOTH",
"537 410 LINE"
);
}
);
width = 635;
},
{
anchors = (
{
name = abvm;
position = "{360, 842}";
},
{
name = abvm_high;
position = "{360, 842}";
},
{
name = blwm;
position = "{373, 244}";
}
);
components = (
{
alignment = -1;
name = looptop.left;
transform = "{1, 0, 0, 1, 56, 186}";
}
);
guideLines = (
{
position = "{857, 780}";
}
);
layerId = "51E32C1F-DEF7-419B-8D63-3B39AA64BD60";
paths = (
{
closed = 1;
nodes = (
"457 397 LINE",
"457 392 LINE SMOOTH",
"457 376 OFFCURVE",
"428 356 OFFCURVE",
"373 356 CURVE SMOOTH",
"318 356 OFFCURVE",
"290 376 OFFCURVE",
"290 397 CURVE SMOOTH",
"290 548 LINE",
"255 564 OFFCURVE",
"187 617 OFFCURVE",
"187 630 CURVE SMOOTH",
"187 637 OFFCURVE",
"191 643 OFFCURVE",
"198 648 CURVE",
"512 648 LINE SMOOTH",
"612 648 OFFCURVE",
"638 693 OFFCURVE",
"638 784 CURVE SMOOTH",
"638 798 LINE",
"458 798 LINE",
"458 784 LINE SMOOTH",
"458 768 OFFCURVE",
"454 760 OFFCURVE",
"429 760 CURVE SMOOTH",
"146 760 LINE",
"100 705 OFFCURVE",
"60 676 OFFCURVE",
"60 640 CURVE SMOOTH",
"60 626 OFFCURVE",
"86 590 OFFCURVE",
"109 558 CURVE",
"109 402 LINE SMOOTH",
"109 297 OFFCURVE",
"197 244 OFFCURVE",
"373 244 CURVE SMOOTH",
"550 244 OFFCURVE",
"638 297 OFFCURVE",
"638 387 CURVE SMOOTH",
"638 397 LINE"
);
}
);
width = 728;
},
{
anchors = (
{
name = abvm;
position = "{282, 857}";
},
{
name = abvm_high;
position = "{282, 839}";
},
{
name = blwm;
position = "{292, 244}";
}
);
components = (
{
alignment = -1;
name = looptop.left;
transform = "{1, 0, 0, 1, -21, 194}";
}
);
guideLines = (
{
position = "{857, 780}";
}
);
layerId = "6517A2BC-7974-4B53-8E65-A6A29EB8D1E7";
paths = (
{
closed = 1;
nodes = (
"457 440 LINE",
"457 396 LINE SMOOTH",
"457 316 OFFCURVE",
"404 270 OFFCURVE",
"296 270 CURVE SMOOTH",
"188 270 OFFCURVE",
"136 316 OFFCURVE",
"136 396 CURVE SMOOTH",
"136 558 LINE",
"103 601 OFFCURVE",
"87 622 OFFCURVE",
"87 638 CURVE SMOOTH",
"87 669 OFFCURVE",
"119 707 OFFCURVE",
"135 724 CURVE",
"423 724 LINE SMOOTH",
"473 724 OFFCURVE",
"483 745 OFFCURVE",
"483 787 CURVE SMOOTH",
"483 808 LINE",
"457 808 LINE",
"457 787 LINE SMOOTH",
"457 757 OFFCURVE",
"446 750 OFFCURVE",
"423 750 CURVE SMOOTH",
"130 750 LINE",
"76 685 OFFCURVE",
"60 655 OFFCURVE",
"60 634 CURVE SMOOTH",
"60 617 OFFCURVE",
"74 598 OFFCURVE",
"110 548 CURVE",
"110 402 LINE SMOOTH",
"110 297 OFFCURVE",
"169 244 OFFCURVE",
"293 244 CURVE SMOOTH",
"410 244 OFFCURVE",
"483 291 OFFCURVE",
"483 402 CURVE SMOOTH",
"483 440 LINE"
);
}
);
width = 593;
},
{
anchors = (
{
name = abvm;
position = "{290, 843}";
},
{
name = abvm_high;
position = "{290, 843}";
},
{
name = blwm;
position = "{300, 244}";
}
);
components = (
{
alignment = -1;
name = looptop.left;
transform = "{1, 0, 0, 1, 0, 186}";
}
);
layerId = "0F8E8D95-EFB6-4635-B30D-2DA8DDB35575";
paths = (
{
closed = 1;
nodes = (
"371 398 LINE",
"371 392 LINE SMOOTH",
"371 367 OFFCURVE",
"347 356 OFFCURVE",
"301 356 CURVE SMOOTH",
"255 356 OFFCURVE",
"232 367 OFFCURVE",
"232 392 CURVE SMOOTH",
"232 548 LINE",
"164 595 OFFCURVE",
"146 624 OFFCURVE",
"146 631 CURVE SMOOTH",
"146 636 OFFCURVE",
"148 643 OFFCURVE",
"156 648 CURVE",
"417 648 LINE SMOOTH",
"500 648 OFFCURVE",
"522 693 OFFCURVE",
"522 784 CURVE SMOOTH",
"522 798 LINE",
"372 798 LINE",
"372 784 LINE SMOOTH",
"372 768 OFFCURVE",
"368 760 OFFCURVE",
"348 760 CURVE SMOOTH",
"112 760 LINE",
"58 691 OFFCURVE",
"40 669 OFFCURVE",
"40 643 CURVE SMOOTH",
"40 627 OFFCURVE",
"62 590 OFFCURVE",
"81 558 CURVE",
"81 402 LINE SMOOTH",
"81 297 OFFCURVE",
"154 244 OFFCURVE",
"301 244 CURVE SMOOTH",
"448 244 OFFCURVE",
"522 295 OFFCURVE",
"522 386 CURVE SMOOTH",
"522 398 LINE"
);
}
);
width = 582;
},
{
anchors = (
{
name = abvm;
position = "{253, 850}";
},
{
name = abvm_high;
position = "{262, 839}";
},
{
name = blwm;
position = "{263, 244}";
}
);
components = (
{
alignment = -1;
name = looptop.left;
transform = "{1, 0, 0, 1, 1, 194}";
}
);
layerId = "9C354F0E-63BE-4945-A1C1-0B7B127DD18D";
paths = (
{
closed = 1;
nodes = (
"369 422 LINE",
"369 402 LINE SMOOTH",
"369 342 OFFCURVE",
"335 311 OFFCURVE",
"263 311 CURVE SMOOTH",
"193 311 OFFCURVE",
"158 342 OFFCURVE",
"158 402 CURVE SMOOTH",
"158 564 LINE",
"114 624 OFFCURVE",
"96 649 OFFCURVE",
"96 664 CURVE SMOOTH",
"96 667 OFFCURVE",
"98 671 OFFCURVE",
"106 683 CURVE",
"363 683 LINE SMOOTH",
"418 683 OFFCURVE",
"447 713 OFFCURVE",
"447 774 CURVE SMOOTH",
"447 790 LINE",
"370 790 LINE",
"370 774 LINE SMOOTH",
"370 758 OFFCURVE",
"363 750 OFFCURVE",
"340 750 CURVE SMOOTH",
"104 750 LINE",
"46 657 OFFCURVE",
"40 657 OFFCURVE",
"40 630 CURVE SMOOTH",
"40 613 OFFCURVE",
"52 592 OFFCURVE",
"81 548 CURVE",
"81 402 LINE SMOOTH",
"81 297 OFFCURVE",
"142 244 OFFCURVE",
"263 244 CURVE SMOOTH",
"386 244 OFFCURVE",
"446 297 OFFCURVE",
"446 402 CURVE SMOOTH",
"446 422 LINE"
);
}
);
width = 517;
},
{
anchors = (
{
name = abvm;
position = "{245, 856}";
},
{
name = abvm_high;
position = "{245, 839}";
},
{
name = blwm;
position = "{255, 244}";
}
);
components = (
{
alignment = -1;
name = looptop.left;
transform = "{1, 0, 0, 1, -2, 194}";
}
);
layerId = "DE962D09-1426-4D02-9608-9FE5B080C42D";
paths = (
{
closed = 1;
nodes = (
"387 440 LINE",
"387 396 LINE SMOOTH",
"387 316 OFFCURVE",
"347 270 OFFCURVE",
"257 270 CURVE SMOOTH",
"167 270 OFFCURVE",
"128 316 OFFCURVE",
"128 396 CURVE SMOOTH",
"128 558 LINE",
"98 600 OFFCURVE",
"83 621 OFFCURVE",
"83 640 CURVE SMOOTH",
"83 668 OFFCURVE",
"114 707 OFFCURVE",
"128 724 CURVE",
"363 724 LINE SMOOTH",
"404 724 OFFCURVE",
"413 745 OFFCURVE",
"413 787 CURVE SMOOTH",
"413 808 LINE",
"391 808 LINE",
"391 787 LINE SMOOTH",
"391 757 OFFCURVE",
"382 750 OFFCURVE",
"363 750 CURVE SMOOTH",
"122 750 LINE",
"77 685 OFFCURVE",
"60 657 OFFCURVE",
"60 634 CURVE SMOOTH",
"60 618 OFFCURVE",
"71 600 OFFCURVE",
"102 548 CURVE",
"102 402 LINE SMOOTH",
"102 297 OFFCURVE",
"151 244 OFFCURVE",
"254 244 CURVE SMOOTH",
"352 244 OFFCURVE",
"413 291 OFFCURVE",
"413 402 CURVE SMOOTH",
"413 440 LINE"
);
}
);
width = 503;
}
);
note = uni1790;
unicode = 1790;
},
{
glyphname = uni1791;
lastChange = "2016-12-05 19:32:48 +0000";
layers = (
{
anchors = (
{
name = abvm;
position = "{292, 830}";
},
{
name = blwm;
position = "{309, 244}";
}
);
layerId = "46DC2CF2-3687-4CD7-A306-8CA7072459C9";
paths = (
{
closed = 1;
nodes = (
"425 244 OFFCURVE",
"489 297 OFFCURVE",
"489 402 CURVE SMOOTH",
"489 424 LINE",
"504 430 OFFCURVE",
"519 451 OFFCURVE",
"519 480 CURVE SMOOTH",
"519 508 OFFCURVE",
"495 537 OFFCURVE",
"458 537 CURVE SMOOTH",
"430 537 OFFCURVE",
"409 523 OFFCURVE",
"401 497 CURVE",
"238 520 OFFCURVE",
"171 548 OFFCURVE",
"171 622 CURVE SMOOTH",
"171 682 OFFCURVE",
"205 713 OFFCURVE",
"299 713 CURVE SMOOTH",
"394 713 OFFCURVE",
"427 679 OFFCURVE",
"427 632 CURVE SMOOTH",
"427 608 LINE",
"519 608 LINE",
"519 632 LINE SMOOTH",
"519 709 OFFCURVE",
"462 780 OFFCURVE",
"299 780 CURVE SMOOTH",
"137 780 OFFCURVE",
"80 712 OFFCURVE",
"80 622 CURVE SMOOTH",
"80 512 OFFCURVE",
"172 462 OFFCURVE",
"397 429 CURVE",
"397 402 LINE SMOOTH",
"397 342 OFFCURVE",
"363 311 OFFCURVE",
"296 311 CURVE SMOOTH",
"230 311 OFFCURVE",
"196 342 OFFCURVE",
"196 402 CURVE SMOOTH",
"196 428 LINE",
"104 428 LINE",
"104 402 LINE SMOOTH",
"104 297 OFFCURVE",
"168 244 OFFCURVE",
"296 244 CURVE SMOOTH"
);
}
);
width = 599;
},
{
anchors = (
{
name = abvm;
position = "{318, 830}";
},
{
name = blwm;
position = "{334, 244}";
}
);
layerId = "51E32C1F-DEF7-419B-8D63-3B39AA64BD60";
paths = (
{
closed = 1;
nodes = (
"478 244 OFFCURVE",
"557 297 OFFCURVE",
"557 402 CURVE SMOOTH",
"557 404 LINE",
"579 420 OFFCURVE",
"593 439 OFFCURVE",
"593 483 CURVE SMOOTH",
"593 538 OFFCURVE",
"541 581 OFFCURVE",
"484 581 CURVE SMOOTH",
"433 581 OFFCURVE",
"401 554 OFFCURVE",
"383 522 CURVE",
"303 549 OFFCURVE",
"241 573 OFFCURVE",
"241 622 CURVE SMOOTH",
"241 651 OFFCURVE",
"275 668 OFFCURVE",
"324 668 CURVE SMOOTH",
"371 668 OFFCURVE",
"409 660 OFFCURVE",
"409 619 CURVE SMOOTH",
"409 608 LINE",
"589 608 LINE",
"589 632 LINE SMOOTH",
"589 743 OFFCURVE",
"500 780 OFFCURVE",
"324 780 CURVE SMOOTH",
"153 780 OFFCURVE",
"60 730 OFFCURVE",
"60 618 CURVE SMOOTH",
"60 515 OFFCURVE",
"176 447 OFFCURVE",
"376 411 CURVE",
"376 402 LINE SMOOTH",
"376 371 OFFCURVE",
"360 356 OFFCURVE",
"321 356 CURVE SMOOTH",
"283 356 OFFCURVE",
"267 371 OFFCURVE",
"267 402 CURVE SMOOTH",
"267 412 LINE",
"86 412 LINE",
"86 402 LINE SMOOTH",
"86 297 OFFCURVE",
"164 244 OFFCURVE",
"321 244 CURVE SMOOTH"
);
}
);
width = 667;
},
{
anchors = (
{
name = abvm;
position = "{288, 830}";
},
{
name = blwm;
position = "{298, 244}";
}
);
layerId = "6517A2BC-7974-4B53-8E65-A6A29EB8D1E7";
paths = (
{
closed = 1;
nodes = (
"390 244 OFFCURVE",
"443 297 OFFCURVE",
"443 402 CURVE SMOOTH",
"443 436 LINE",
"460 438 OFFCURVE",
"474 452 OFFCURVE",
"474 468 CURVE SMOOTH",
"474 484 OFFCURVE",
"464 495 OFFCURVE",
"448 495 CURVE SMOOTH",
"431 495 OFFCURVE",
"419 482 OFFCURVE",
"417 458 CURVE",
"211 491 OFFCURVE",
"125 525 OFFCURVE",
"125 622 CURVE SMOOTH",
"125 713 OFFCURVE",
"166 754 OFFCURVE",
"286 754 CURVE SMOOTH",
"393 754 OFFCURVE",
"447 708 OFFCURVE",
"447 632 CURVE SMOOTH",
"447 608 LINE",
"473 608 LINE",
"473 632 LINE SMOOTH",
"473 716 OFFCURVE",
"410 780 OFFCURVE",
"286 780 CURVE SMOOTH",
"155 780 OFFCURVE",
"100 723 OFFCURVE",
"100 622 CURVE SMOOTH",
"100 516 OFFCURVE",
"179 471 OFFCURVE",
"417 436 CURVE",
"417 402 LINE SMOOTH",
"417 322 OFFCURVE",
"370 270 OFFCURVE",
"283 270 CURVE SMOOTH",
"196 270 OFFCURVE",
"150 321 OFFCURVE",
"150 402 CURVE SMOOTH",
"150 440 LINE",
"124 440 LINE",
"124 402 LINE SMOOTH",
"124 297 OFFCURVE",
"177 244 OFFCURVE",
"283 244 CURVE SMOOTH"
);
}
);
width = 574;
},
{
anchors = (
{
name = abvm;
position = "{265, 830}";
},
{
name = blwm;
position = "{288, 244}";
}
);
layerId = "0F8E8D95-EFB6-4635-B30D-2DA8DDB35575";
paths = (
{
closed = 1;
nodes = (
"398 244 OFFCURVE",
"464 297 OFFCURVE",
"464 402 CURVE SMOOTH",
"464 404 LINE",
"483 420 OFFCURVE",
"497 439 OFFCURVE",
"497 483 CURVE SMOOTH",
"497 538 OFFCURVE",
"451 577 OFFCURVE",
"403 577 CURVE SMOOTH",
"361 577 OFFCURVE",
"334 554 OFFCURVE",
"319 522 CURVE",
"231 558 OFFCURVE",
"201 580 OFFCURVE",
"201 619 CURVE SMOOTH",
"201 651 OFFCURVE",
"229 668 OFFCURVE",
"270 668 CURVE SMOOTH",
"309 668 OFFCURVE",
"341 657 OFFCURVE",
"341 632 CURVE SMOOTH",
"341 608 LINE",
"491 608 LINE",
"491 632 LINE SMOOTH",
"491 743 OFFCURVE",
"417 780 OFFCURVE",
"270 780 CURVE SMOOTH",
"128 780 OFFCURVE",
"50 734 OFFCURVE",
"50 622 CURVE SMOOTH",
"50 509 OFFCURVE",
"146 453 OFFCURVE",
"313 413 CURVE",
"313 402 LINE SMOOTH",
"313 371 OFFCURVE",
"300 356 OFFCURVE",
"268 356 CURVE SMOOTH",
"236 356 OFFCURVE",
"223 371 OFFCURVE",
"223 402 CURVE SMOOTH",
"223 412 LINE",
"72 412 LINE",
"72 402 LINE SMOOTH",
"72 297 OFFCURVE",
"137 244 OFFCURVE",
"268 244 CURVE SMOOTH"
);
}
);
width = 547;
},
{
anchors = (
{
name = abvm;
position = "{253, 830}";
},
{
name = blwm;
position = "{271, 244}";
}
);
layerId = "9C354F0E-63BE-4945-A1C1-0B7B127DD18D";
paths = (
{
closed = 1;
nodes = (
"366 244 OFFCURVE",
"419 297 OFFCURVE",
"419 402 CURVE SMOOTH",
"419 424 LINE",
"431 430 OFFCURVE",
"444 451 OFFCURVE",
"444 480 CURVE SMOOTH",
"444 508 OFFCURVE",
"424 537 OFFCURVE",
"393 537 CURVE SMOOTH",
"370 537 OFFCURVE",
"352 523 OFFCURVE",
"346 497 CURVE",
"210 520 OFFCURVE",
"154 548 OFFCURVE",
"154 622 CURVE SMOOTH",
"154 682 OFFCURVE",
"182 713 OFFCURVE",
"261 713 CURVE SMOOTH",
"340 713 OFFCURVE",
"367 679 OFFCURVE",
"367 632 CURVE SMOOTH",
"367 608 LINE",
"444 608 LINE",
"444 632 LINE SMOOTH",
"444 709 OFFCURVE",
"396 780 OFFCURVE",
"261 780 CURVE SMOOTH",
"126 780 OFFCURVE",
"78 712 OFFCURVE",
"78 622 CURVE SMOOTH",
"78 512 OFFCURVE",
"155 462 OFFCURVE",
"342 429 CURVE",
"342 402 LINE SMOOTH",
"342 342 OFFCURVE",
"314 311 OFFCURVE",
"258 311 CURVE SMOOTH",
"203 311 OFFCURVE",
"175 342 OFFCURVE",
"175 402 CURVE SMOOTH",
"175 428 LINE",
"98 428 LINE",
"98 402 LINE SMOOTH",
"98 297 OFFCURVE",
"151 244 OFFCURVE",
"258 244 CURVE SMOOTH"
);
}
);
width = 522;
},
{
anchors = (
{
name = abvm;
position = "{245, 830}";
},
{
name = blwm;
position = "{246, 244}";
}
);
layerId = "DE962D09-1426-4D02-9608-9FE5B080C42D";
paths = (
{
closed = 1;
nodes = (
"326 244 OFFCURVE",
"376 297 OFFCURVE",
"376 402 CURVE SMOOTH",
"376 434 LINE",
"391 437 OFFCURVE",
"400 448 OFFCURVE",
"400 464 CURVE SMOOTH",
"400 480 OFFCURVE",
"388 489 OFFCURVE",
"377 489 CURVE SMOOTH",
"362 489 OFFCURVE",
"349 480 OFFCURVE",
"349 458 CURVE",
"178 491 OFFCURVE",
"116 525 OFFCURVE",
"116 622 CURVE SMOOTH",
"116 713 OFFCURVE",
"151 754 OFFCURVE",
"247 754 CURVE SMOOTH",
"334 754 OFFCURVE",
"375 708 OFFCURVE",
"375 632 CURVE SMOOTH",
"375 608 LINE",
"401 608 LINE",
"401 632 LINE SMOOTH",
"401 716 OFFCURVE",
"348 780 OFFCURVE",
"247 780 CURVE SMOOTH",
"141 780 OFFCURVE",
"90 723 OFFCURVE",
"90 622 CURVE SMOOTH",
"90 516 OFFCURVE",
"152 471 OFFCURVE",
"350 436 CURVE",
"350 402 LINE SMOOTH",
"350 322 OFFCURVE",
"315 270 OFFCURVE",
"243 270 CURVE SMOOTH",
"170 270 OFFCURVE",
"136 321 OFFCURVE",
"136 402 CURVE SMOOTH",
"136 440 LINE",
"110 440 LINE",
"110 402 LINE SMOOTH",
"110 297 OFFCURVE",
"161 244 OFFCURVE",
"243 244 CURVE SMOOTH"
);
}
);
width = 491;
}
);
note = uni1791;
unicode = 1791;
},
{
glyphname = uni1792;
lastChange = "2016-12-05 19:32:48 +0000";
layers = (
{
anchors = (
{
name = abvm;
position = "{292, 830}";
},
{
name = blwm;
position = "{316, 244}";
}
);
components = (
{
alignment = -1;
name = looptop.left;
transform = "{1, 0, 0, 1, 0, 194}";
}
);
layerId = "46DC2CF2-3687-4CD7-A306-8CA7072459C9";
paths = (
{
closed = 1;
nodes = (
"445 409 LINE",
"445 326 LINE",
"318 432 LINE",
"190 325 LINE",
"190 594 LINE",
"137 654 OFFCURVE",
"116 677 OFFCURVE",
"116 694 CURVE SMOOTH",
"116 697 OFFCURVE",
"119 701 OFFCURVE",
"128 713 CURVE",
"537 713 LINE",
"537 780 LINE",
"126 780 LINE",
"54 687 OFFCURVE",
"49 687 OFFCURVE",
"49 660 CURVE SMOOTH",
"49 643 OFFCURVE",
"63 622 OFFCURVE",
"98 578 CURVE",
"98 244 LINE",
"204 244 LINE",
"318 337 LINE",
"431 244 LINE",
"537 244 LINE",
"537 409 LINE"
);
}
);
width = 635;
},
{
anchors = (
{
name = abvm;
position = "{365, 830}";
},
{
name = blwm;
position = "{374, 244}";
}
);
components = (
{
alignment = -1;
name = looptop.left;
transform = "{1, 0, 0, 1, 56, 204}";
}
);
layerId = "51E32C1F-DEF7-419B-8D63-3B39AA64BD60";
paths = (
{
closed = 1;
nodes = (
"457 432 LINE",
"457 389 LINE",
"374 407 LINE",
"290 388 LINE",
"290 568 LINE",
"255 584 OFFCURVE",
"187 637 OFFCURVE",
"187 650 CURVE SMOOTH",
"187 657 OFFCURVE",
"191 663 OFFCURVE",
"198 668 CURVE",
"638 668 LINE",
"638 780 LINE",
"146 780 LINE",
"100 725 OFFCURVE",
"60 696 OFFCURVE",
"60 660 CURVE SMOOTH",
"60 646 OFFCURVE",
"86 610 OFFCURVE",
"109 578 CURVE",
"109 244 LINE",
"261 244 LINE",
"374 280 LINE",
"487 244 LINE",
"638 244 LINE",
"638 432 LINE"
);
}
);
width = 728;
},
{
anchors = (
{
name = abvm;
position = "{271, 830}";
},
{
name = blwm;
position = "{297, 244}";
}
);
components = (
{
alignment = -1;
name = looptop.left;
transform = "{1, 0, 0, 1, -21, 194}";
}
);
layerId = "6517A2BC-7974-4B53-8E65-A6A29EB8D1E7";
paths = (
{
closed = 1;
nodes = (
"457 442 LINE",
"457 274 LINE",
"297 413 LINE",
"136 273 LINE",
"136 588 LINE",
"103 631 OFFCURVE",
"87 652 OFFCURVE",
"87 668 CURVE SMOOTH",
"87 699 OFFCURVE",
"119 737 OFFCURVE",
"135 754 CURVE",
"483 754 LINE",
"483 780 LINE",
"130 780 LINE",
"76 715 OFFCURVE",
"60 685 OFFCURVE",
"60 664 CURVE SMOOTH",
"60 647 OFFCURVE",
"74 628 OFFCURVE",
"110 578 CURVE",
"110 244 LINE",
"143 244 LINE",
"297 378 LINE",
"450 244 LINE",
"483 244 LINE",
"483 442 LINE"
);
}
);
width = 593;
},
{
anchors = (
{
name = abvm;
position = "{291, 830}";
},
{
name = blwm;
position = "{308, 244}";
}
);
components = (
{
alignment = -1;
name = looptop.left;
transform = "{1, 0, 0, 1, 0, 194}";
}
);
guideLines = (
{
position = "{256, 619}";
}
);
layerId = "0F8E8D95-EFB6-4635-B30D-2DA8DDB35575";
paths = (
{
closed = 1;
nodes = (
"371 402 LINE",
"371 369 LINE",
"302 387 LINE",
"232 368 LINE",
"232 568 LINE",
"164 615 OFFCURVE",
"146 644 OFFCURVE",
"146 651 CURVE SMOOTH",
"146 656 OFFCURVE",
"148 663 OFFCURVE",
"156 668 CURVE",
"522 668 LINE",
"522 780 LINE",
"112 780 LINE",
"58 711 OFFCURVE",
"40 689 OFFCURVE",
"40 663 CURVE SMOOTH",
"40 647 OFFCURVE",
"62 610 OFFCURVE",
"81 578 CURVE",
"81 244 LINE",
"208 244 LINE",
"302 280 LINE",
"396 244 LINE",
"522 244 LINE",
"522 402 LINE"
);
}
);
width = 582;
},
{
anchors = (
{
name = abvm;
position = "{245, 830}";
},
{
name = blwm;
position = "{263, 244}";
}
);
components = (
{
alignment = -1;
name = looptop.left;
transform = "{1, 0, 0, 1, 1, 194}";
}
);
layerId = "9C354F0E-63BE-4945-A1C1-0B7B127DD18D";
paths = (
{
closed = 1;
nodes = (
"369 420 LINE",
"369 326 LINE",
"264 432 LINE",
"158 325 LINE",
"158 594 LINE",
"114 654 OFFCURVE",
"96 679 OFFCURVE",
"96 694 CURVE SMOOTH",
"96 697 OFFCURVE",
"98 701 OFFCURVE",
"106 713 CURVE",
"447 713 LINE",
"447 780 LINE",
"104 780 LINE",
"46 687 OFFCURVE",
"40 687 OFFCURVE",
"40 660 CURVE SMOOTH",
"40 643 OFFCURVE",
"52 622 OFFCURVE",
"81 578 CURVE",
"81 244 LINE",
"170 244 LINE",
"264 337 LINE",
"358 244 LINE",
"446 244 LINE",
"446 420 LINE"
);
}
);
width = 525;
},
{
anchors = (
{
name = abvm;
position = "{246, 830}";
},
{
name = blwm;
position = "{258, 244}";
}
);
components = (
{
alignment = -1;
name = looptop.left;
transform = "{1, 0, 0, 1, -2, 194}";
}
);
layerId = "DE962D09-1426-4D02-9608-9FE5B080C42D";
paths = (
{
closed = 1;
nodes = (
"387 440 LINE",
"387 274 LINE",
"258 413 LINE",
"128 273 LINE",
"128 588 LINE",
"98 630 OFFCURVE",
"83 651 OFFCURVE",
"83 670 CURVE SMOOTH",
"83 698 OFFCURVE",
"114 737 OFFCURVE",
"128 754 CURVE",
"417 754 LINE",
"417 780 LINE",
"122 780 LINE",
"77 715 OFFCURVE",
"60 687 OFFCURVE",
"60 664 CURVE SMOOTH",
"60 648 OFFCURVE",
"71 630 OFFCURVE",
"102 578 CURVE",
"102 244 LINE",
"137 244 LINE",
"258 375 LINE",
"378 244 LINE",
"413 244 LINE",
"413 440 LINE"
);
}
);
width = 507;
}
);
note = uni1792;
unicode = 1792;
},
{
glyphname = uni1793;
lastChange = "2016-12-05 19:32:48 +0000";
layers = (
{
anchors = (
{
name = abvm;
position = "{302, 830}";
},
{
name = blwm;
position = "{317, 244}";
}
);
layerId = "46DC2CF2-3687-4CD7-A306-8CA7072459C9";
paths = (
{
closed = 1;
nodes = (
"189 244 LINE",
"189 348 LINE",
"235 348 OFFCURVE",
"256 329 OFFCURVE",
"289 299 CURVE SMOOTH",
"323 268 OFFCURVE",
"351 244 OFFCURVE",
"399 244 CURVE SMOOTH",
"478 244 OFFCURVE",
"547 296 OFFCURVE",
"547 376 CURVE SMOOTH",
"547 445 OFFCURVE",
"495 483 OFFCURVE",
"363 505 CURVE SMOOTH",
"248 524 OFFCURVE",
"189 560 OFFCURVE",
"189 622 CURVE SMOOTH",
"189 682 OFFCURVE",
"223 713 OFFCURVE",
"323 713 CURVE SMOOTH",
"412 713 OFFCURVE",
"445 683 OFFCURVE",
"445 653 CURVE SMOOTH",
"445 625 OFFCURVE",
"429 605 OFFCURVE",
"396 605 CURVE",
"396 545 LINE",
"403 545 LINE SMOOTH",
"502 545 OFFCURVE",
"537 596 OFFCURVE",
"537 650 CURVE SMOOTH",
"537 719 OFFCURVE",
"480 780 OFFCURVE",
"317 780 CURVE SMOOTH",
"155 780 OFFCURVE",
"98 712 OFFCURVE",
"98 622 CURVE SMOOTH",
"98 524 OFFCURVE",
"186 466 OFFCURVE",
"358 438 CURVE SMOOTH",
"425 427 OFFCURVE",
"455 407 OFFCURVE",
"455 362 CURVE SMOOTH",
"455 328 OFFCURVE",
"428 311 OFFCURVE",
"405 311 CURVE SMOOTH",
"376 311 OFFCURVE",
"348 340 OFFCURVE",
"327 359 CURVE SMOOTH",
"299 384 OFFCURVE",
"265 415 OFFCURVE",
"189 415 CURVE",
"189 450 LINE",
"97 450 LINE",
"97 244 LINE"
);
}
);
width = 635;
},
{
anchors = (
{
name = abvm;
position = "{348, 830}";
},
{
name = blwm;
position = "{354, 244}";
}
);
guideLines = (
{
angle = 152.403;
position = "{351, 253}";
}
);
layerId = "51E32C1F-DEF7-419B-8D63-3B39AA64BD60";
paths = (
{
closed = 1;
nodes = (
"271 244 LINE",
"271 291 LINE",
"293 286 OFFCURVE",
"316 277 OFFCURVE",
"331 269 CURVE SMOOTH",
"358 255 OFFCURVE",
"400 244 OFFCURVE",
"444 244 CURVE SMOOTH",
"538 244 OFFCURVE",
"629 296 OFFCURVE",
"629 388 CURVE SMOOTH",
"629 471 OFFCURVE",
"555 500 OFFCURVE",
"416 535 CURVE SMOOTH",
"348 552 OFFCURVE",
"271 575 OFFCURVE",
"271 620 CURVE SMOOTH",
"271 651 OFFCURVE",
"314 668 OFFCURVE",
"362 668 CURVE SMOOTH",
"408 668 OFFCURVE",
"433 662 OFFCURVE",
"433 645 CURVE SMOOTH",
"433 638 OFFCURVE",
"425 631 OFFCURVE",
"414 629 CURVE",
"414 556 LINE",
"454 556 LINE SMOOTH",
"592 556 OFFCURVE",
"612 607 OFFCURVE",
"612 655 CURVE SMOOTH",
"612 744 OFFCURVE",
"531 780 OFFCURVE",
"354 780 CURVE SMOOTH",
"183 780 OFFCURVE",
"90 734 OFFCURVE",
"90 629 CURVE SMOOTH",
"90 523 OFFCURVE",
"236 474 OFFCURVE",
"383 436 CURVE SMOOTH",
"422 426 OFFCURVE",
"449 412 OFFCURVE",
"449 390 CURVE SMOOTH",
"449 366 OFFCURVE",
"429 356 OFFCURVE",
"401 356 CURVE SMOOTH",
"380 356 OFFCURVE",
"359 366 OFFCURVE",
"336 377 CURVE SMOOTH",
"315 387 OFFCURVE",
"292 396 OFFCURVE",
"271 399 CURVE",
"271 440 LINE",
"90 440 LINE",
"90 244 LINE"
);
}
);
width = 703;
},
{
anchors = (
{
name = abvm;
position = "{293, 830}";
},
{
name = blwm;
position = "{296, 244}";
}
);
guideLines = (
{
angle = 162.36;
position = "{729, 504}";
}
);
layerId = "6517A2BC-7974-4B53-8E65-A6A29EB8D1E7";
paths = (
{
closed = 1;
nodes = (
"136 244 LINE",
"136 376 LINE",
"218 376 OFFCURVE",
"231 360 OFFCURVE",
"291 294 CURVE SMOOTH",
"313 270 OFFCURVE",
"345 244 OFFCURVE",
"389 244 CURVE SMOOTH",
"452 244 OFFCURVE",
"489 303 OFFCURVE",
"489 357 CURVE SMOOTH",
"489 438 OFFCURVE",
"405 466 OFFCURVE",
"299 493 CURVE SMOOTH",
"229 511 OFFCURVE",
"136 523 OFFCURVE",
"136 617 CURVE SMOOTH",
"136 694 OFFCURVE",
"179 754 OFFCURVE",
"299 754 CURVE SMOOTH",
"376 754 OFFCURVE",
"457 718 OFFCURVE",
"457 640 CURVE SMOOTH",
"457 591 OFFCURVE",
"427 557 OFFCURVE",
"394 557 CURVE",
"394 531 LINE",
"396 531 LINE SMOOTH",
"440 531 OFFCURVE",
"483 575 OFFCURVE",
"483 640 CURVE SMOOTH",
"483 734 OFFCURVE",
"397 780 OFFCURVE",
"297 780 CURVE SMOOTH",
"167 780 OFFCURVE",
"110 705 OFFCURVE",
"110 622 CURVE SMOOTH",
"110 499 OFFCURVE",
"223 486 OFFCURVE",
"301 466 CURVE SMOOTH",
"399 441 OFFCURVE",
"463 414 OFFCURVE",
"463 354 CURVE SMOOTH",
"463 318 OFFCURVE",
"439 270 OFFCURVE",
"388 270 CURVE SMOOTH",
"354 270 OFFCURVE",
"319 302 OFFCURVE",
"303 319 CURVE SMOOTH",
"259 366 OFFCURVE",
"240 402 OFFCURVE",
"136 402 CURVE",
"136 440 LINE",
"110 440 LINE",
"110 244 LINE"
);
}
);
width = 599;
},
{
anchors = (
{
name = abvm;
position = "{281, 830}";
},
{
name = blwm;
position = "{285, 244}";
}
);
layerId = "0F8E8D95-EFB6-4635-B30D-2DA8DDB35575";
paths = (
{
closed = 1;
nodes = (
"221 244 LINE",
"221 291 LINE",
"239 286 OFFCURVE",
"258 277 OFFCURVE",
"271 269 CURVE SMOOTH",
"293 255 OFFCURVE",
"328 244 OFFCURVE",
"365 244 CURVE SMOOTH",
"443 244 OFFCURVE",
"519 296 OFFCURVE",
"519 388 CURVE SMOOTH",
"519 471 OFFCURVE",
"457 501 OFFCURVE",
"342 535 CURVE SMOOTH",
"285 552 OFFCURVE",
"221 575 OFFCURVE",
"221 620 CURVE SMOOTH",
"221 651 OFFCURVE",
"257 668 OFFCURVE",
"297 668 CURVE SMOOTH",
"335 668 OFFCURVE",
"356 662 OFFCURVE",
"356 645 CURVE SMOOTH",
"356 638 OFFCURVE",
"349 631 OFFCURVE",
"340 629 CURVE",
"340 556 LINE",
"373 556 LINE SMOOTH",
"488 556 OFFCURVE",
"505 607 OFFCURVE",
"505 655 CURVE SMOOTH",
"505 744 OFFCURVE",
"437 780 OFFCURVE",
"290 780 CURVE SMOOTH",
"147 780 OFFCURVE",
"70 734 OFFCURVE",
"70 629 CURVE SMOOTH",
"70 523 OFFCURVE",
"192 473 OFFCURVE",
"314 436 CURVE SMOOTH",
"347 426 OFFCURVE",
"369 412 OFFCURVE",
"369 390 CURVE SMOOTH",
"369 366 OFFCURVE",
"352 356 OFFCURVE",
"329 356 CURVE SMOOTH",
"312 356 OFFCURVE",
"294 366 OFFCURVE",
"275 377 CURVE SMOOTH",
"257 387 OFFCURVE",
"238 396 OFFCURVE",
"221 399 CURVE",
"221 440 LINE",
"70 440 LINE",
"70 244 LINE"
);
}
);
width = 582;
},
{
anchors = (
{
name = abvm;
position = "{245, 830}";
},
{
name = blwm;
position = "{257, 244}";
}
);
guideLines = (
{
angle = 122.55;
position = "{318, 365}";
}
);
layerId = "9C354F0E-63BE-4945-A1C1-0B7B127DD18D";
paths = (
{
closed = 1;
nodes = (
"150 244 LINE",
"150 348 LINE",
"188 348 OFFCURVE",
"206 329 OFFCURVE",
"234 299 CURVE SMOOTH",
"263 268 OFFCURVE",
"285 244 OFFCURVE",
"325 244 CURVE SMOOTH",
"391 244 OFFCURVE",
"449 296 OFFCURVE",
"449 376 CURVE SMOOTH",
"449 445 OFFCURVE",
"405 483 OFFCURVE",
"295 505 CURVE SMOOTH",
"199 524 OFFCURVE",
"150 560 OFFCURVE",
"150 622 CURVE SMOOTH",
"150 682 OFFCURVE",
"178 713 OFFCURVE",
"262 713 CURVE SMOOTH",
"336 713 OFFCURVE",
"364 683 OFFCURVE",
"364 653 CURVE SMOOTH",
"364 625 OFFCURVE",
"350 605 OFFCURVE",
"323 605 CURVE",
"323 545 LINE",
"329 545 LINE SMOOTH",
"411 545 OFFCURVE",
"440 596 OFFCURVE",
"440 650 CURVE SMOOTH",
"440 719 OFFCURVE",
"393 780 OFFCURVE",
"257 780 CURVE SMOOTH",
"122 780 OFFCURVE",
"74 712 OFFCURVE",
"74 622 CURVE SMOOTH",
"74 524 OFFCURVE",
"148 466 OFFCURVE",
"291 438 CURVE SMOOTH",
"347 427 OFFCURVE",
"372 407 OFFCURVE",
"372 362 CURVE SMOOTH",
"372 328 OFFCURVE",
"349 311 OFFCURVE",
"330 311 CURVE SMOOTH",
"306 311 OFFCURVE",
"283 340 OFFCURVE",
"265 359 CURVE SMOOTH",
"242 384 OFFCURVE",
"214 415 OFFCURVE",
"150 415 CURVE",
"150 450 LINE",
"73 450 LINE",
"73 244 LINE"
);
}
);
width = 514;
},
{
anchors = (
{
name = abvm;
position = "{249, 830}";
},
{
name = blwm;
position = "{256, 244}";
}
);
guideLines = (
{
angle = 172.798;
position = "{257, 552}";
}
);
layerId = "DE962D09-1426-4D02-9608-9FE5B080C42D";
paths = (
{
closed = 1;
nodes = (
"115 244 LINE",
"115 385 LINE",
"150 385 OFFCURVE",
"171 357 OFFCURVE",
"205 311 CURVE SMOOTH",
"236 269 OFFCURVE",
"272 244 OFFCURVE",
"312 244 CURVE SMOOTH",
"364 244 OFFCURVE",
"415 279 OFFCURVE",
"415 344 CURVE SMOOTH",
"415 408 OFFCURVE",
"343 451 OFFCURVE",
"243 473 CURVE SMOOTH",
"171 489 OFFCURVE",
"116 532 OFFCURVE",
"116 612 CURVE SMOOTH",
"116 703 OFFCURVE",
"164 744 OFFCURVE",
"248 744 CURVE SMOOTH",
"315 744 OFFCURVE",
"374 713 OFFCURVE",
"374 637 CURVE SMOOTH",
"374 583 OFFCURVE",
"337 547 OFFCURVE",
"318 547 CURVE",
"318 521 LINE",
"320 521 LINE SMOOTH",
"353 521 OFFCURVE",
"400 574 OFFCURVE",
"400 637 CURVE SMOOTH",
"400 730 OFFCURVE",
"329 770 OFFCURVE",
"248 770 CURVE SMOOTH",
"153 770 OFFCURVE",
"90 713 OFFCURVE",
"90 612 CURVE SMOOTH",
"90 504 OFFCURVE",
"159 465 OFFCURVE",
"252 444 CURVE SMOOTH",
"341 424 OFFCURVE",
"389 375 OFFCURVE",
"389 340 CURVE SMOOTH",
"389 298 OFFCURVE",
"355 270 OFFCURVE",
"313 270 CURVE SMOOTH",
"280 270 OFFCURVE",
"257 288 OFFCURVE",
"228 323 CURVE SMOOTH",
"203 353 OFFCURVE",
"176 411 OFFCURVE",
"115 411 CURVE",
"115 450 LINE",
"90 450 LINE",
"90 244 LINE"
);
}
);
width = 505;
}
);
note = uni1793;
unicode = 1793;
},
{
glyphname = uni1794;
lastChange = "2016-12-05 19:32:48 +0000";
layers = (
{
anchors = (
{
name = abvm;
position = "{307, 830}";
},
{
name = blwm;
position = "{317, 244}";
}
);
components = (
{
alignment = -1;
locked = 1;
name = topout.right;
transform = "{1, 0, 0, 1, 335, 194}";
},
{
alignment = -1;
locked = 1;
name = topout.left;
transform = "{1, 0, 0, 1, 0, 194}";
}
);
guideLines = (
{
position = "{54, 395}";
},
{
angle = 41.929;
position = "{502, 449}";
}
);
layerId = "46DC2CF2-3687-4CD7-A306-8CA7072459C9";
paths = (
{
closed = 1;
nodes = (
"98 565 LINE",
"98 402 LINE SMOOTH",
"98 297 OFFCURVE",
"171 244 OFFCURVE",
"317 244 CURVE SMOOTH",
"464 244 OFFCURVE",
"537 297 OFFCURVE",
"537 402 CURVE SMOOTH",
"537 566 LINE",
"445 566 LINE",
"445 402 LINE SMOOTH",
"445 342 OFFCURVE",
"403 311 OFFCURVE",
"317 311 CURVE SMOOTH",
"232 311 OFFCURVE",
"190 342 OFFCURVE",
"190 402 CURVE SMOOTH",
"190 565 LINE"
);
}
);
width = 635;
},
{
anchors = (
{
name = abvm;
position = "{346, 830}";
},
{
name = blwm;
position = "{356, 244}";
}
);
components = (
{
alignment = -1;
locked = 1;
name = topout.right;
transform = "{1, 0, 0, 1, 376, 194}";
},
{
alignment = -1;
locked = 1;
name = topout.left;
transform = "{1, 0, 0, 1, 39, 194}";
}
);
guideLines = (
{
angle = 135;
position = "{437, 634}";
},
{
angle = 90;
position = "{273, 618}";
},
{
position = "{416, 840}";
}
);
layerId = "51E32C1F-DEF7-419B-8D63-3B39AA64BD60";
paths = (
{
closed = 1;
nodes = (
"92 568 LINE",
"92 402 LINE SMOOTH",
"92 297 OFFCURVE",
"180 244 OFFCURVE",
"356 244 CURVE SMOOTH",
"533 244 OFFCURVE",
"621 297 OFFCURVE",
"621 402 CURVE SMOOTH",
"621 566 LINE",
"440 566 LINE",
"440 412 LINE SMOOTH",
"440 381 OFFCURVE",
"413 356 OFFCURVE",
"356 356 CURVE SMOOTH",
"301 356 OFFCURVE",
"273 381 OFFCURVE",
"273 412 CURVE SMOOTH",
"273 568 LINE"
);
}
);
width = 713;
},
{
anchors = (
{
name = abvm;
position = "{277, 830}";
},
{
name = blwm;
position = "{297, 244}";
}
);
components = (
{
alignment = -1;
locked = 1;
name = topout.right;
transform = "{1, 0, 0, 1, 345, 194}";
},
{
alignment = -1;
locked = 1;
name = topout.left;
transform = "{1, 0, 0, 1, -20, 194}";
}
);
guideLines = (
{
position = "{34, 639}";
}
);
layerId = "6517A2BC-7974-4B53-8E65-A6A29EB8D1E7";
paths = (
{
closed = 1;
nodes = (
"111 577 LINE",
"111 402 LINE SMOOTH",
"111 297 OFFCURVE",
"173 244 OFFCURVE",
"297 244 CURVE SMOOTH",
"422 244 OFFCURVE",
"484 297 OFFCURVE",
"484 402 CURVE SMOOTH",
"484 577 LINE",
"458 577 LINE",
"458 402 LINE SMOOTH",
"458 319 OFFCURVE",
"404 269 OFFCURVE",
"297 269 CURVE SMOOTH",
"190 269 OFFCURVE",
"137 319 OFFCURVE",
"137 402 CURVE SMOOTH",
"137 577 LINE"
);
}
);
width = 593;
},
{
anchors = (
{
name = abvm;
position = "{291, 830}";
},
{
name = blwm;
position = "{301, 244}";
}
);
components = (
{
alignment = -1;
locked = 1;
name = topout.right;
transform = "{1, 0, 0, 1, 269, 194}";
},
{
alignment = -1;
locked = 1;
name = topout.left;
transform = "{1, 0, 0, 1, 2, 194}";
}
);
layerId = "0F8E8D95-EFB6-4635-B30D-2DA8DDB35575";
paths = (
{
closed = 1;
nodes = (
"81 573 LINE",
"81 402 LINE SMOOTH",
"81 297 OFFCURVE",
"154 244 OFFCURVE",
"301 244 CURVE SMOOTH",
"449 244 OFFCURVE",
"523 297 OFFCURVE",
"523 402 CURVE SMOOTH",
"523 570 LINE",
"372 570 LINE",
"372 412 LINE SMOOTH",
"372 381 OFFCURVE",
"349 356 OFFCURVE",
"301 356 CURVE SMOOTH",
"255 356 OFFCURVE",
"232 381 OFFCURVE",
"232 412 CURVE SMOOTH",
"232 573 LINE"
);
}
);
width = 591;
},
{
anchors = (
{
name = abvm;
position = "{270, 830}";
},
{
name = blwm;
position = "{280, 244}";
}
);
components = (
{
alignment = -1;
locked = 1;
name = topout.right;
transform = "{1, 0, 0, 1, 290, 194}";
},
{
alignment = -1;
locked = 1;
name = topout.left;
transform = "{1, 0, 0, 1, 22, 194}";
}
);
layerId = "9C354F0E-63BE-4945-A1C1-0B7B127DD18D";
paths = (
{
closed = 1;
nodes = (
"98 569 LINE",
"98 402 LINE SMOOTH",
"98 297 OFFCURVE",
"158 244 OFFCURVE",
"280 244 CURVE SMOOTH",
"403 244 OFFCURVE",
"464 297 OFFCURVE",
"464 402 CURVE SMOOTH",
"464 569 LINE",
"387 569 LINE",
"387 402 LINE SMOOTH",
"387 342 OFFCURVE",
"352 311 OFFCURVE",
"280 311 CURVE SMOOTH",
"209 311 OFFCURVE",
"175 342 OFFCURVE",
"175 402 CURVE SMOOTH",
"175 569 LINE"
);
}
);
width = 553;
},
{
anchors = (
{
name = abvm;
position = "{255, 830}";
},
{
name = blwm;
position = "{275, 244}";
}
);
components = (
{
alignment = -1;
locked = 1;
name = topout.right;
transform = "{1, 0, 0, 1, 314, 194}";
},
{
alignment = -1;
locked = 1;
name = topout.left;
transform = "{1, 0, 0, 1, 20, 194}";
}
);
layerId = "DE962D09-1426-4D02-9608-9FE5B080C42D";
paths = (
{
closed = 1;
nodes = (
"120 565 LINE",
"120 402 LINE SMOOTH",
"120 297 OFFCURVE",
"172 244 OFFCURVE",
"275 244 CURVE SMOOTH",
"379 244 OFFCURVE",
"431 297 OFFCURVE",
"431 402 CURVE SMOOTH",
"431 568 LINE",
"405 568 LINE",
"405 402 LINE SMOOTH",
"405 319 OFFCURVE",
"364 269 OFFCURVE",
"275 269 CURVE SMOOTH",
"186 269 OFFCURVE",
"146 319 OFFCURVE",
"146 402 CURVE SMOOTH",
"146 565 LINE"
);
}
);
width = 537;
}
);
note = uni1794;
unicode = 1794;
},
{
glyphname = uni1794.a;
lastChange = "2016-12-05 19:32:48 +0000";
layers = (
{
anchors = (
{
name = abvm;
position = "{312, 830}";
},
{
name = blwm;
position = "{317, 204}";
}
);
components = (
{
alignment = -1;
name = uni1794.a2;
}
);
guideLines = (
{
angle = 270;
position = "{562, 645}";
}
);
layerId = "46DC2CF2-3687-4CD7-A306-8CA7072459C9";
paths = (
{
closed = 1;
nodes = (
"445 268 LINE",
"445 204 LINE",
"537 204 LINE",
"537 268 LINE"
);
}
);
width = 635;
},
{
anchors = (
{
name = abvm;
position = "{372, 830}";
},
{
name = blwm;
position = "{374, 204}";
}
);
components = (
{
alignment = -1;
name = uni1794.a2;
}
);
guideLines = (
{
angle = 270;
position = "{661, 894}";
showMeasurement = 1;
}
);
layerId = "51E32C1F-DEF7-419B-8D63-3B39AA64BD60";
paths = (
{
closed = 1;
nodes = (
"458 256 LINE",
"458 204 LINE",
"639 204 LINE",
"639 256 LINE"
);
}
);
width = 721;
},
{
anchors = (
{
name = abvm;
position = "{296, 830}";
},
{
name = blwm;
position = "{297, 204}";
}
);
components = (
{
alignment = -1;
name = uni1794.a2;
}
);
layerId = "6517A2BC-7974-4B53-8E65-A6A29EB8D1E7";
paths = (
{
closed = 1;
nodes = (
"457 299 LINE",
"457 204 LINE",
"483 204 LINE",
"483 299 LINE"
);
}
);
width = 597;
},
{
anchors = (
{
name = abvm;
position = "{306, 830}";
},
{
name = blwm;
position = "{308, 204}";
}
);
components = (
{
alignment = -1;
name = uni1794.a2;
}
);
guideLines = (
{
angle = 270;
position = "{641, 894}";
showMeasurement = 1;
}
);
layerId = "0F8E8D95-EFB6-4635-B30D-2DA8DDB35575";
paths = (
{
closed = 1;
nodes = (
"372 246 LINE",
"372 204 LINE",
"522 204 LINE",
"522 246 LINE"
);
}
);
width = 601;
},
{
anchors = (
{
name = abvm;
position = "{262, 830}";
},
{
name = blwm;
position = "{266, 204}";
}
);
components = (
{
alignment = -1;
name = uni1794.a2;
}
);
guideLines = (
{
angle = 270;
position = "{550, 889}";
}
);
layerId = "9C354F0E-63BE-4945-A1C1-0B7B127DD18D";
paths = (
{
closed = 1;
nodes = (
"367 254 LINE",
"367 204 LINE",
"444 204 LINE",
"444 254 LINE"
);
}
);
width = 522;
},
{
anchors = (
{
name = abvm;
position = "{244, 830}";
},
{
name = blwm;
position = "{254, 204}";
}
);
components = (
{
alignment = -1;
name = uni1794.a2;
}
);
layerId = "DE962D09-1426-4D02-9608-9FE5B080C42D";
paths = (
{
closed = 1;
nodes = (
"369 258 LINE",
"369 204 LINE",
"395 204 LINE",
"395 258 LINE"
);
}
);
width = 512;
}
);
note = uni1794.a;
},
{
glyphname = uni1794.a2;
lastChange = "2016-12-05 19:32:48 +0000";
layers = (
{
anchors = (
{
name = abvm;
position = "{296, 830}";
},
{
name = blwm;
position = "{297, 204}";
}
);
layerId = "6517A2BC-7974-4B53-8E65-A6A29EB8D1E7";
paths = (
{
closed = 1;
nodes = (
"110 402 LINE SMOOTH",
"110 292 OFFCURVE",
"174 234 OFFCURVE",
"256 234 CURVE SMOOTH",
"345 234 OFFCURVE",
"416 288 OFFCURVE",
"456 336 CURVE",
"457 336 LINE",
"457 234 LINE",
"483 234 LINE",
"483 633 LINE",
"457 633 LINE",
"457 385 LINE SMOOTH",
"457 359 OFFCURVE",
"364 260 OFFCURVE",
"257 260 CURVE SMOOTH",
"183 260 OFFCURVE",
"136 314 OFFCURVE",
"136 415 CURVE SMOOTH",
"136 588 LINE",
"103 633 OFFCURVE",
"87 655 OFFCURVE",
"87 668 CURVE SMOOTH",
"87 699 OFFCURVE",
"119 737 OFFCURVE",
"135 754 CURVE",
"507 754 LINE",
"507 780 LINE",
"130 780 LINE",
"76 715 OFFCURVE",
"60 685 OFFCURVE",
"60 664 CURVE SMOOTH",
"60 647 OFFCURVE",
"74 628 OFFCURVE",
"110 578 CURVE"
);
}
);
width = 597;
},
{
anchors = (
{
name = abvm;
position = "{312, 830}";
},
{
name = blwm;
position = "{317, 204}";
}
);
layerId = "46DC2CF2-3687-4CD7-A306-8CA7072459C9";
paths = (
{
closed = 1;
nodes = (
"98 402 LINE SMOOTH",
"98 312 OFFCURVE",
"162 234 OFFCURVE",
"268 234 CURVE SMOOTH",
"341 234 OFFCURVE",
"391 262 OFFCURVE",
"444 302 CURVE",
"445 302 LINE",
"445 234 LINE",
"537 234 LINE",
"537 633 LINE",
"445 633 LINE",
"445 411 LINE SMOOTH",
"445 371 OFFCURVE",
"338 301 OFFCURVE",
"276 301 CURVE SMOOTH",
"220 301 OFFCURVE",
"190 342 OFFCURVE",
"190 402 CURVE SMOOTH",
"190 594 LINE",
"137 654 OFFCURVE",
"116 677 OFFCURVE",
"116 694 CURVE SMOOTH",
"116 697 OFFCURVE",
"120 704 OFFCURVE",
"128 713 CURVE",
"562 713 LINE",
"562 780 LINE",
"126 780 LINE",
"56 687 OFFCURVE",
"49 687 OFFCURVE",
"49 660 CURVE SMOOTH",
"49 643 OFFCURVE",
"63 622 OFFCURVE",
"98 578 CURVE"
);
}
);
width = 635;
},
{
anchors = (
{
name = abvm;
position = "{372, 830}";
},
{
name = blwm;
position = "{374, 204}";
}
);
layerId = "51E32C1F-DEF7-419B-8D63-3B39AA64BD60";
paths = (
{
closed = 1;
nodes = (
"109 402 LINE SMOOTH",
"109 289 OFFCURVE",
"207 234 OFFCURVE",
"299 234 CURVE SMOOTH",
"380 234 OFFCURVE",
"417 259 OFFCURVE",
"457 287 CURVE",
"458 287 LINE",
"458 234 LINE",
"639 234 LINE",
"639 623 LINE",
"458 623 LINE",
"458 434 LINE SMOOTH",
"458 394 OFFCURVE",
"396 346 OFFCURVE",
"351 346 CURVE SMOOTH",
"307 346 OFFCURVE",
"290 371 OFFCURVE",
"290 402 CURVE SMOOTH",
"290 568 LINE",
"255 586 OFFCURVE",
"187 637 OFFCURVE",
"187 650 CURVE SMOOTH",
"187 657 OFFCURVE",
"191 664 OFFCURVE",
"199 668 CURVE",
"661 668 LINE",
"661 780 LINE",
"146 780 LINE",
"84 710 OFFCURVE",
"60 692 OFFCURVE",
"60 665 CURVE SMOOTH",
"60 646 OFFCURVE",
"86 610 OFFCURVE",
"109 578 CURVE"
);
}
);
width = 721;
},
{
anchors = (
{
name = abvm;
position = "{244, 830}";
},
{
name = blwm;
position = "{246, 204}";
}
);
layerId = "DE962D09-1426-4D02-9608-9FE5B080C42D";
paths = (
{
closed = 1;
nodes = (
"82 382 LINE SMOOTH",
"82 270 OFFCURVE",
"125 234 OFFCURVE",
"193 234 CURVE SMOOTH",
"261 234 OFFCURVE",
"316 283 OFFCURVE",
"368 336 CURVE",
"369 336 LINE",
"369 234 LINE",
"395 234 LINE",
"395 633 LINE",
"369 633 LINE",
"369 385 LINE SMOOTH",
"369 359 OFFCURVE",
"267 260 OFFCURVE",
"190 260 CURVE SMOOTH",
"138 260 OFFCURVE",
"108 294 OFFCURVE",
"108 395 CURVE SMOOTH",
"108 588 LINE",
"78 630 OFFCURVE",
"63 651 OFFCURVE",
"63 670 CURVE SMOOTH",
"63 698 OFFCURVE",
"94 737 OFFCURVE",
"108 754 CURVE",
"414 754 LINE",
"414 780 LINE",
"102 780 LINE",
"57 715 OFFCURVE",
"40 687 OFFCURVE",
"40 664 CURVE SMOOTH",
"40 648 OFFCURVE",
"51 630 OFFCURVE",
"82 578 CURVE"
);
}
);
width = 512;
},
{
anchors = (
{
name = abvm;
position = "{262, 830}";
},
{
name = blwm;
position = "{266, 204}";
}
);
layerId = "9C354F0E-63BE-4945-A1C1-0B7B127DD18D";
paths = (
{
closed = 1;
nodes = (
"78 402 LINE SMOOTH",
"78 312 OFFCURVE",
"121 234 OFFCURVE",
"218 234 CURVE SMOOTH",
"277 234 OFFCURVE",
"320 263 OFFCURVE",
"366 302 CURVE",
"367 302 LINE",
"367 234 LINE",
"444 234 LINE",
"444 633 LINE",
"367 633 LINE",
"367 431 LINE SMOOTH",
"367 371 OFFCURVE",
"276 301 OFFCURVE",
"225 301 CURVE SMOOTH",
"178 301 OFFCURVE",
"155 342 OFFCURVE",
"155 402 CURVE SMOOTH",
"155 594 LINE",
"111 654 OFFCURVE",
"93 679 OFFCURVE",
"93 694 CURVE SMOOTH",
"93 697 OFFCURVE",
"96 704 OFFCURVE",
"103 713 CURVE",
"465 713 LINE",
"465 780 LINE",
"101 780 LINE",
"43 687 OFFCURVE",
"37 687 OFFCURVE",
"37 660 CURVE SMOOTH",
"37 643 OFFCURVE",
"49 622 OFFCURVE",
"78 578 CURVE"
);
}
);
width = 522;
},
{
anchors = (
{
name = abvm;
position = "{306, 830}";
},
{
name = blwm;
position = "{308, 204}";
}
);
layerId = "0F8E8D95-EFB6-4635-B30D-2DA8DDB35575";
paths = (
{
closed = 1;
nodes = (
"81 402 LINE SMOOTH",
"81 289 OFFCURVE",
"161 234 OFFCURVE",
"243 234 CURVE SMOOTH",
"311 234 OFFCURVE",
"341 258 OFFCURVE",
"371 287 CURVE",
"372 287 LINE",
"372 234 LINE",
"522 234 LINE",
"522 633 LINE",
"372 633 LINE",
"372 434 LINE SMOOTH",
"372 394 OFFCURVE",
"327 346 OFFCURVE",
"281 346 CURVE SMOOTH",
"246 346 OFFCURVE",
"232 371 OFFCURVE",
"232 402 CURVE SMOOTH",
"232 568 LINE",
"164 615 OFFCURVE",
"146 644 OFFCURVE",
"146 651 CURVE SMOOTH",
"146 656 OFFCURVE",
"148 663 OFFCURVE",
"156 668 CURVE",
"541 668 LINE",
"541 780 LINE",
"112 780 LINE",
"58 711 OFFCURVE",
"40 689 OFFCURVE",
"40 663 CURVE SMOOTH",
"40 647 OFFCURVE",
"62 610 OFFCURVE",
"81 578 CURVE"
);
}
);
width = 601;
}
);
leftMetricsKey = uni1794.a;
rightMetricsKey = uni1794.a;
},
